<svg width="113" height="100" viewBox="0 0 113 100" fill="none" xmlns="http://www.w3.org/2000/svg">
<path d="M34.8334 98.3697C34.8334 98.3697 25.6359 94.9302 34.8334 69.0199C34.8334 69.0199 4.25455 77.0449 0.575219 64.4345C-3.10411 51.8225 12.0709 48.6129 12.0709 48.6129C12.0709 48.6129 21.7277 45.6314 32.0743 45.1734C32.0743 45.1734 15.1749 25.6824 17.4167 10.3204C19.6584 -5.04315 40.1212 7.56883 40.1212 7.56883C40.1212 7.56883 44.9496 12.1543 50.6982 19.4929C50.6982 19.4929 61.0448 -0.226265 71.161 0.00196075C81.2771 0.231796 82.1974 4.35918 82.1974 4.35918C82.1974 4.35918 87.946 12.1559 77.1385 30.4993C77.1385 30.4993 107.489 21.0986 112.086 33.2509C116.684 45.4032 102.43 50.2185 102.43 50.2185C102.43 50.2185 95.3015 51.8241 89.0935 52.512C89.0935 52.512 107.948 60.3087 105.418 72.2312C102.889 84.1553 87.253 76.3586 87.253 76.3586L78.5164 70.1675C78.5164 70.1675 85.8735 93.098 74.3778 97.2237C62.8821 101.35 58.0537 83.4658 58.0537 83.4658C58.0537 83.4658 45.6377 106.166 34.8318 98.3697H34.8334Z" fill="#E89A8B"/>
<path d="M36.1791 93.6785C36.1791 93.6785 31.1808 86.4597 38.9379 64.7319C38.9379 64.7319 8.93531 74.3084 5.83217 63.7335C2.72903 53.1574 18.1216 50.2563 18.1216 50.2563C18.1216 50.2563 27.9539 47.1463 36.6802 46.7622C36.6802 46.7622 19.7416 26.9498 21.6323 14.0675C22.6355 4.33397 37.1818 11.8213 37.1818 11.8213C37.1818 11.8213 46.7518 18.27 51.6002 24.4241C51.6002 24.4241 62.5079 3.89301 71.0398 4.08439C79.5718 4.27713 79.0654 9.82469 79.0654 9.82469C79.0654 9.82469 82.1613 17.653 73.0462 33.0354C73.0462 33.0354 104.782 26.3388 108.66 36.5295C112.538 46.7202 96.1198 48.7588 96.1198 48.7588C96.1198 48.7588 89.3172 50.9273 84.0814 51.5042C84.0814 51.5042 103.521 60.7237 101.387 70.7217C99.2539 80.7211 83.8306 71.2209 83.8306 71.2209L75.3039 65.4765C75.3039 65.4765 82.7422 90.4686 73.0467 93.9284C63.3513 97.3882 58.2495 77.9599 58.2495 77.9599C58.2495 77.9599 45.2928 100.217 36.1791 93.6785Z" stroke="#232323" stroke-width="2" stroke-miterlimit="10"/>
</svg>
