<svg width="130" height="115" viewBox="0 0 130 115" fill="none" xmlns="http://www.w3.org/2000/svg">
<path d="M40.0739 113.125C40.0739 113.125 29.4927 109.17 40.0739 79.3729C40.0739 79.3729 4.89462 88.6016 0.661757 74.0997C-3.5711 59.5959 13.8869 55.9048 13.8869 55.9048C13.8869 55.9048 24.9965 52.4761 36.8997 51.9494C36.8997 51.9494 17.4578 29.5348 20.0369 11.8685C22.6159 -5.79963 46.1571 8.70416 46.1571 8.70416C46.1571 8.70416 51.7119 13.9774 58.3254 22.4169C58.3254 22.4169 70.2286 -0.260208 81.8666 0.00225067C93.5047 0.266563 94.5633 5.01306 94.5633 5.01306C94.5633 5.01306 101.177 13.9793 88.7434 35.0742C88.7434 35.0742 123.659 24.2634 128.949 38.2385C134.239 52.2137 117.839 57.7513 117.839 57.7513C117.839 57.7513 109.639 59.5977 102.497 60.3888C102.497 60.3888 124.188 69.355 121.277 83.0659C118.368 96.7786 100.38 87.8124 100.38 87.8124L90.3286 80.6926C90.3286 80.6926 98.7925 107.063 85.5674 111.807C72.3422 116.552 66.7874 95.9857 66.7874 95.9857C66.7874 95.9857 52.5036 122.091 40.072 113.125H40.0739Z" fill="#E89A8B"/>
<path d="M41.622 107.73C41.622 107.73 35.8716 99.4287 44.7958 74.4416C44.7958 74.4416 10.2795 85.4546 6.70952 73.2936C3.13953 61.1309 20.8478 57.7947 20.8478 57.7947C20.8478 57.7947 32.1594 54.2183 42.1985 53.7765C42.1985 53.7765 22.7115 30.9922 24.8866 16.1776C26.0407 4.98406 42.7755 13.5945 42.7755 13.5945C42.7755 13.5945 53.7853 21.0105 59.3631 28.0877C59.3631 28.0877 71.9117 4.47695 81.7272 4.69704C91.5427 4.91869 90.9601 11.2984 90.9601 11.2984C90.9601 11.2984 94.5217 20.3009 84.0354 37.9907C84.0354 37.9907 120.545 30.2896 125.007 42.0089C129.468 53.7283 110.58 56.0727 110.58 56.0727C110.58 56.0727 102.754 58.5664 96.7308 59.2298C96.7308 59.2298 119.094 69.8323 116.639 81.33C114.186 92.8292 96.4422 81.904 96.4422 81.904L86.6328 75.2979C86.6328 75.2979 95.19 104.039 84.036 108.018C72.882 111.996 67.0127 89.6539 67.0127 89.6539C67.0127 89.6539 52.1068 115.249 41.622 107.73Z" stroke="#232323" stroke-width="2" stroke-miterlimit="10"/>
</svg>
