<svg width="100" height="113" viewBox="0 0 100 113" fill="none" xmlns="http://www.w3.org/2000/svg">
<path d="M0.193208 93.2256V52.143C0.193208 52.143 1.29305 16.8479 27.9235 6.01697C54.554 -4.81394 65.9372 2.28335 65.9372 2.28335C65.9372 2.28335 89.2598 10.3119 95.1395 28.6143C101.019 46.9168 99.9153 50.8375 99.9153 50.8375L99.9989 104.809C99.9989 104.809 100.321 119.123 89.8327 106.863C79.3444 94.6034 73.4772 107.501 73.4772 107.501C73.4772 107.501 67.8149 119.335 58.9032 107.288C49.9915 95.2412 43.4928 105.264 43.4928 105.264C43.4928 105.264 36.1535 121.47 28.0824 106.969C20.0113 92.4687 12.2497 106.969 12.2497 106.969C12.2497 106.969 -1.79739 126.828 0.193208 93.2299V93.2256Z" fill="#90C081"/>
<path d="M5.89712 88.9673V52.6358C5.89712 52.6358 6.87221 21.4225 30.4819 11.8441C54.0916 2.26576 64.1836 8.54227 64.1836 8.54227C64.1836 8.54227 84.8606 15.6424 90.0734 31.8281C95.2862 48.0139 94.3074 51.4813 94.3074 51.4813L94.3816 99.2113C94.3816 99.2113 94.6671 111.87 85.3685 101.028C76.07 90.1858 70.8683 101.592 70.8683 101.592C70.8683 101.592 65.8483 112.058 57.9475 101.404C50.0467 90.7499 44.2851 99.6137 44.2851 99.6137C44.2851 99.6137 37.7784 113.945 30.6228 101.122C23.4672 88.2979 16.586 101.122 16.586 101.122C16.586 101.122 4.13233 118.684 5.89712 88.9711V88.9673Z" fill="#90C081" stroke="#232323" stroke-width="2" stroke-miterlimit="10"/>
<path d="M37.2742 58.0113C43.949 58.0113 49.36 52.9203 49.36 46.6403C49.36 40.3603 43.949 35.2693 37.2742 35.2693C30.5995 35.2693 25.1885 40.3603 25.1885 46.6403C25.1885 52.9203 30.5995 58.0113 37.2742 58.0113Z" fill="white"/>
<path d="M71.0475 58.0113C77.7223 58.0113 83.1333 52.9203 83.1333 46.6403C83.1333 40.3603 77.7223 35.2693 71.0475 35.2693C64.3728 35.2693 58.9618 40.3603 58.9618 46.6403C58.9618 52.9203 64.3728 58.0113 71.0475 58.0113Z" fill="white"/>
<path d="M41.5608 51.4115C44.1522 51.4115 46.2529 49.2754 46.2529 46.6403C46.2529 44.0053 44.1522 41.8691 41.5608 41.8691C38.9694 41.8691 36.8687 44.0053 36.8687 46.6403C36.8687 49.2754 38.9694 51.4115 41.5608 51.4115Z" fill="#232323"/>
<path d="M75.7439 51.4115C78.3353 51.4115 80.436 49.2754 80.436 46.6403C80.436 44.0053 78.3353 41.8691 75.7439 41.8691C73.1525 41.8691 71.0518 44.0053 71.0518 46.6403C71.0518 49.2754 73.1525 51.4115 75.7439 51.4115Z" fill="#232323"/>
</svg>
