<svg width="20" height="20" viewBox="0 0 20 20" fill="none" xmlns="http://www.w3.org/2000/svg">
<g id="checkbox">
<rect id="Rectangle 240648356" x="0.5" y="0.5" width="19" height="19" rx="4.5" stroke="#BDAB90"/>
<path id="Vector" d="M15.7797 6.58044C15.9247 6.40229 16.0036 6.16666 15.9999 5.9232C15.9961 5.67973 15.91 5.44744 15.7595 5.27525C15.6091 5.10307 15.4062 5.00444 15.1935 5.00015C14.9808 4.99585 14.775 5.08622 14.6193 5.25223L8.08439 12.7328L5.38065 9.63784C5.22502 9.47184 5.01918 9.38147 4.80649 9.38576C4.5938 9.39006 4.39087 9.48869 4.24046 9.66087C4.09004 9.83306 4.00388 10.0653 4.00013 10.3088C3.99638 10.5523 4.07532 10.7879 4.22034 10.9661L7.50424 14.7252C7.65817 14.9011 7.86683 15 8.08439 15C8.30195 15 8.51062 14.9011 8.66455 14.7252L15.7797 6.58044Z" fill="#BDAB90"/>
</g>
</svg>
