<svg width="60" height="60" viewBox="0 0 60 60" fill="none" xmlns="http://www.w3.org/2000/svg">
<g id="Group 2085663008">
<circle id="Ellipse 3216" cx="29.9924" cy="29.9998" r="29" stroke="#B4FF9C" stroke-width="2"/>
<path id="Vector" d="M40.5701 25.0026C40.8481 24.6641 40.9994 24.2164 40.9922 23.7538C40.985 23.2912 40.8199 22.8499 40.5316 22.5227C40.2433 22.1956 39.8543 22.0082 39.4467 22C39.039 21.9919 38.6445 22.1636 38.3462 22.479L25.8209 36.6921L20.6387 30.8117C20.3404 30.4963 19.9459 30.3245 19.5382 30.3327C19.1306 30.3409 18.7416 30.5283 18.4533 30.8554C18.165 31.1826 17.9999 31.6239 17.9927 32.0865C17.9855 32.5491 18.1368 32.9968 18.4148 33.3353L24.7089 40.4776C25.0039 40.8119 25.4039 40.9998 25.8209 40.9998C26.2378 40.9998 26.6378 40.8119 26.9328 40.4776L40.5701 25.0026Z" fill="#B4FF9C"/>
</g>
</svg>
