<svg width="60" height="60" viewBox="0 0 60 60" fill="none" xmlns="http://www.w3.org/2000/svg">
<g id="play showreel">
<g id="butto_play">
<path id="[Linked] &#208;&#158;&#208;&#177;&#208;&#187;&#208;&#176;&#209;&#129;&#209;&#130;&#209;&#140; &#208;&#189;&#208;&#176;&#208;&#182;&#208;&#176;&#209;&#130;&#208;&#184;&#209;&#143;" d="M1 30C1 13.9837 13.9837 1 30 1C46.0163 1 59 13.9837 59 30C59 46.0163 46.0163 59 30 59C13.9837 59 1 46.0163 1 30Z" stroke="#EEEAD9" stroke-width="2"/>
<path id="Vector" d="M35 31C35.0004 31.1567 34.9608 31.3108 34.8851 31.4474C34.8095 31.584 34.7003 31.6983 34.5682 31.7794L26.3818 36.8641C26.2438 36.95 26.0857 36.9968 25.9239 36.9998C25.7621 37.0029 25.6024 36.962 25.4614 36.8814C25.3217 36.8021 25.2053 36.6865 25.1242 36.5463C25.0431 36.4062 25.0002 36.2467 25 36.0842V25.9158C25.0002 25.7533 25.0431 25.5938 25.1242 25.4537C25.2053 25.3135 25.3217 25.1979 25.4614 25.1186C25.6024 25.038 25.7621 24.9971 25.9239 25.0002C26.0857 25.0032 26.2438 25.05 26.3818 25.1359L34.5682 30.2206C34.7003 30.3017 34.8095 30.416 34.8851 30.5526C34.9608 30.6892 35.0004 30.8433 35 31Z" fill="#EEEAD9"/>
</g>
</g>
</svg>
