<svg width="103" height="128" viewBox="0 0 103 128" fill="none" xmlns="http://www.w3.org/2000/svg">
<path d="M18.4151 37.4021C17.9546 37.9607 17.3971 38.3587 16.7425 38.5961C16.088 38.8334 15.416 38.9036 14.7265 38.8067C14.037 38.7098 13.4093 38.4357 12.8433 37.9843C12.2813 37.5362 11.8809 36.9903 11.642 36.3468C11.3989 35.7001 11.3278 35.0372 11.4286 34.3582C11.5293 33.6792 11.8099 33.0604 12.2704 32.5018C12.6149 32.0838 13.0193 31.7569 13.4837 31.5211C13.9439 31.282 14.5044 31.1261 15.1649 31.0534L15.2959 32.3068C14.797 32.3553 14.392 32.4619 14.0807 32.6266C13.7687 32.7841 13.4951 33.0055 13.2599 33.2909C12.9485 33.6687 12.7573 34.089 12.6862 34.5519C12.6184 35.0107 12.6671 35.4592 12.8324 35.8974C12.9935 36.3323 13.2655 36.7024 13.6483 37.0077C14.031 37.3129 14.4574 37.4998 14.9274 37.5682C15.3934 37.6333 15.8475 37.5859 16.2899 37.4258C16.7356 37.2617 17.1142 36.9907 17.4256 36.613C17.6608 36.3276 17.8265 36.0201 17.9227 35.6905C18.0181 35.3537 18.04 34.9382 17.9884 34.4441L19.2573 34.317C19.3289 34.9669 19.2918 35.5401 19.1458 36.0365C19.0032 36.5289 18.7596 36.9841 18.4151 37.4021Z" fill="#EEEAD9"/>
<path d="M29.5797 28.7877L28.4795 29.4289L25.6134 24.9095L25.2482 29.0712L21.2193 27.4704L24.0853 31.9898L22.9919 32.6271L18.9082 26.1878L19.9072 25.6056L24.1143 27.2832L24.4971 22.9306L25.4961 22.3484L29.5797 28.7877Z" fill="#EEEAD9"/>
<path d="M36.6024 26.0596C35.9452 26.3632 35.2665 26.4817 34.5665 26.4152C33.8665 26.3487 33.2207 26.1252 32.6293 25.7449C32.0378 25.3645 31.5776 24.8519 31.2485 24.2071C30.9217 23.5669 30.7842 22.9081 30.8358 22.2308C30.8851 21.5488 31.0987 20.9256 31.4768 20.3612C31.8548 19.7967 32.3725 19.3628 33.0297 19.0592C33.687 18.7557 34.3656 18.6372 35.0656 18.7037C35.7657 18.7702 36.4126 18.9959 37.0064 19.3809C37.5978 19.7613 38.0569 20.2716 38.3836 20.9118C38.7127 21.5566 38.8515 22.2177 38.7999 22.895C38.7482 23.5724 38.5334 24.1933 38.1554 24.7577C37.7773 25.3221 37.2597 25.7561 36.6024 26.0596ZM36.0271 24.9323C36.4716 24.727 36.8214 24.4336 37.0766 24.0521C37.3365 23.6683 37.484 23.2476 37.5192 22.79C37.5521 22.3277 37.4572 21.8785 37.2346 21.4424C37.0121 21.0063 36.7009 20.6599 36.3011 20.4032C35.8989 20.1418 35.459 19.9895 34.9812 19.9465C34.5082 19.9012 34.0495 19.9812 33.605 20.1865C33.1606 20.3918 32.8084 20.6863 32.5485 21.07C32.2933 21.4516 32.1493 21.8735 32.1164 22.3358C32.0812 22.7935 32.1749 23.2404 32.3975 23.6764C32.62 24.1125 32.9324 24.4612 33.3346 24.7226C33.7344 24.9794 34.1708 25.1304 34.6438 25.1756C35.1215 25.2187 35.5826 25.1376 36.0271 24.9323Z" fill="#EEEAD9"/>
<path d="M46.705 23.6156L45.4365 23.7277L44.7285 17.4078L41.9892 17.6498L41.8483 16.3921L48.5954 15.796L48.7363 17.0538L45.997 17.2958L46.705 23.6156Z" fill="#EEEAD9"/>
<path d="M54.0468 27.6262L52.7846 27.5332C53.108 22.4549 53.2795 19.8434 53.2992 19.6986C53.4094 19.0331 53.6608 18.4458 54.0533 17.9369C54.4461 17.4227 54.9357 17.0279 55.5221 16.7526C56.1136 16.4776 56.7496 16.3652 57.4301 16.4153C58.1521 16.4685 58.7979 16.6937 59.3675 17.0908C59.9372 17.4878 60.3797 17.9957 60.6952 18.6142C61.0107 19.2328 61.1454 19.9033 61.0994 20.6258C61.0534 21.3483 60.8349 21.9928 60.4439 22.5594C60.053 23.1259 59.5502 23.5641 58.9355 23.8739C58.3209 24.1837 57.6526 24.312 56.9306 24.2588C56.3124 24.2133 55.7469 24.0385 55.234 23.7343C54.7263 23.4306 54.4268 23.2153 54.3358 23.0885L54.0468 27.6262ZM57.011 22.9958C57.4993 23.0317 57.951 22.9449 58.3662 22.7353C58.7865 22.526 59.1289 22.2301 59.3934 21.8475C59.6581 21.4596 59.8061 21.0214 59.8372 20.5328C59.8683 20.0442 59.7771 19.591 59.5637 19.1732C59.3506 18.7502 59.049 18.4042 58.6591 18.1352C58.2744 17.8667 57.8379 17.7144 57.3496 17.6784C56.8614 17.6424 56.4071 17.7291 55.9867 17.9383C55.5715 18.1479 55.2315 18.4467 54.9668 18.8345C54.7023 19.2171 54.5546 19.6527 54.5235 20.1413C54.4923 20.6299 54.5833 21.0857 54.7965 21.5088C55.0099 21.9266 55.309 22.2698 55.6937 22.5384C56.0836 22.8073 56.5227 22.9598 57.011 22.9958Z" fill="#EEEAD9"/>
<path d="M66.1604 27.1094C65.5158 26.7798 65.0135 26.324 64.6534 25.7421C64.2933 25.1602 64.0969 24.5275 64.0641 23.8439C64.0313 23.1604 64.1858 22.5026 64.5278 21.8704C64.8723 21.2336 65.3434 20.7348 65.9412 20.3738C66.5415 20.0083 67.1902 19.805 67.8874 19.7638C68.5845 19.7227 69.2553 19.867 69.8998 20.1967C70.498 20.5026 70.9731 20.9211 71.3252 21.4522C71.6845 21.981 71.8989 22.5585 71.9686 23.1849C72.0382 23.8112 71.9515 24.4365 71.7085 25.0609L71.511 25.4424L71.1998 25.985L65.4198 23.0285C65.2564 23.4947 65.2898 24.0294 65.52 24.6325C65.7502 25.2357 66.1644 25.6903 66.7626 25.9962C67.3468 26.2951 68.027 26.3564 68.8031 26.1803L69.1616 27.3725C68.5485 27.5209 68.004 27.5699 67.5281 27.5195C67.0568 27.4715 66.6009 27.3348 66.1604 27.1094ZM70.6404 24.2776C70.8013 23.816 70.7667 23.2836 70.5365 22.6804C70.3088 22.0727 69.8958 21.6158 69.2977 21.3099C68.6995 21.0039 68.0784 20.9318 67.4344 21.0937C66.7928 21.251 66.322 21.5248 66.022 21.9153L70.6404 24.2776Z" fill="#EEEAD9"/>
<path d="M75.6124 32.108L74.524 31.447L78.0273 26.1396L75.6768 24.7122L76.3741 23.6559L82.1635 27.1718L81.4663 28.228L79.1158 26.8006L75.6124 32.108Z" fill="#EEEAD9"/>
<path d="M82.9331 38.4634L80.3637 35.6468L86.222 30.7661L87.075 31.7012L85.1242 33.3264L86.8406 35.208C87.0582 35.4466 87.2216 35.7067 87.3306 35.9883C87.4768 36.388 87.5206 36.795 87.4621 37.2095C87.3757 37.8097 87.0904 38.3115 86.6063 38.7148C86.1221 39.1182 85.561 39.3215 84.9231 39.3248C84.553 39.3283 84.1937 39.2586 83.845 39.1157C83.5003 38.9695 83.1963 38.752 82.9331 38.4634ZM83.9055 37.6533C84.1441 37.915 84.4438 38.0582 84.8043 38.0828C85.1649 38.1075 85.4812 38.0065 85.7533 37.7798C86.0214 37.5564 86.1673 37.2724 86.1909 36.9277C86.2145 36.583 86.1069 36.2798 85.8682 36.0181L84.1518 34.1365L82.189 35.7717L83.9055 37.6533Z" fill="#EEEAD9"/>
<path d="M24.2801 118.4L17.3695 115.178L20.6846 108.311L21.8317 108.846L19.0668 114.573L20.8015 115.382L23.5664 109.655L24.7134 110.19L21.9486 115.917L23.6762 116.723L26.4411 110.996L27.5952 111.534L24.2801 118.4Z" fill="#EEEAD9"/>
<path d="M32.7119 121.145C32.0038 120.995 31.3989 120.685 30.8974 120.217C30.3958 119.748 30.0382 119.188 29.8246 118.535C29.6109 117.883 29.5851 117.204 29.747 116.498C29.9077 115.798 30.2277 115.195 30.707 114.69C31.1873 114.18 31.7575 113.814 32.4175 113.592C33.0775 113.37 33.7616 113.335 34.4697 113.485C35.1778 113.636 35.7827 113.945 36.2843 114.414C36.7858 114.883 37.1428 115.446 37.3553 116.103C37.5689 116.755 37.5954 117.432 37.4346 118.132C37.2727 118.838 36.9521 119.443 36.4729 119.948C35.9937 120.453 35.4241 120.817 34.7641 121.039C34.1041 121.26 33.42 121.296 32.7119 121.145ZM32.995 119.912C33.4739 120.014 33.9362 119.99 34.3821 119.839C34.8331 119.69 35.2206 119.445 35.5446 119.104C35.8698 118.758 36.0872 118.346 36.1967 117.869C36.3062 117.392 36.2886 116.933 36.1439 116.492C36.0004 116.047 35.7568 115.665 35.413 115.347C35.0743 115.03 34.6655 114.821 34.1866 114.719C33.7078 114.617 33.2428 114.641 32.7919 114.79C32.346 114.94 31.9605 115.188 31.6353 115.534C31.3112 115.875 31.0945 116.284 30.985 116.761C30.8755 117.239 30.8925 117.7 31.0359 118.146C31.1806 118.587 31.4223 118.965 31.761 119.282C32.1048 119.6 32.5161 119.81 32.995 119.912Z" fill="#EEEAD9"/>
<path d="M43.6221 127.365C43.1337 127.331 42.6759 127.21 42.2487 127.003C41.8215 126.795 41.3965 126.466 40.9737 126.013L41.9432 125.18C42.4818 125.751 43.0758 126.058 43.7253 126.104C44.1929 126.136 44.6283 126.052 45.0314 125.851C45.4346 125.649 45.7662 125.364 46.0262 124.996C46.2863 124.628 46.4354 124.21 46.4736 123.743L46.5233 123.136C46.4607 123.199 46.1972 123.322 45.733 123.503C45.2691 123.68 44.7749 123.75 44.2501 123.713C43.7357 123.677 43.261 123.539 42.826 123.3C42.3914 123.056 42.0307 122.738 41.7439 122.347C41.2151 121.658 40.9866 120.874 41.0583 119.997L41.396 115.87L42.6663 115.959L42.3287 120.086C42.2786 120.698 42.4515 121.235 42.8475 121.696C43.2435 122.157 43.7454 122.409 44.3533 122.451C44.6858 122.475 45.0003 122.431 45.2966 122.322C45.5935 122.207 45.8525 122.042 46.0738 121.828C46.478 121.423 46.7025 120.945 46.7476 120.395L47.0852 116.268L48.3477 116.356L47.7408 123.871C47.7136 124.203 47.6401 124.527 47.5202 124.842C47.1998 125.629 46.6804 126.261 45.9621 126.738C45.2438 127.215 44.4638 127.424 43.6221 127.365Z" fill="#EEEAD9"/>
<path d="M54.8677 126.877L53.6091 127.009C53.0949 121.947 52.8356 119.342 52.8312 119.196C52.8306 118.521 52.982 117.897 53.2852 117.326C53.5878 116.75 54.0054 116.274 54.5379 115.898C55.0756 115.522 55.6837 115.299 56.3623 115.227C57.0822 115.152 57.7554 115.259 58.3817 115.549C59.008 115.84 59.5272 116.262 59.9394 116.815C60.3517 117.369 60.5943 118.006 60.6675 118.726C60.7407 119.446 60.6311 120.12 60.3389 120.748C60.0467 121.376 59.6232 121.897 59.0685 122.311C58.5138 122.726 57.8764 122.971 57.1564 123.046C56.54 123.111 55.9543 123.039 55.3991 122.831C54.8491 122.621 54.5188 122.462 54.4083 122.353L54.8677 126.877ZM57.0285 121.787C57.5154 121.736 57.9462 121.57 58.3208 121.29C58.7007 121.009 58.9894 120.657 59.1872 120.233C59.3844 119.804 59.4583 119.345 59.4088 118.858C59.3593 118.371 59.1952 117.941 58.9164 117.567C58.6371 117.188 58.2833 116.9 57.8551 116.704C57.432 116.508 56.977 116.435 56.4901 116.486C56.0032 116.538 55.5699 116.704 55.1901 116.984C54.8154 117.265 54.5295 117.619 54.3323 118.049C54.1345 118.473 54.0604 118.928 54.1099 119.415C54.1593 119.902 54.3237 120.336 54.6031 120.715C54.8819 121.089 55.2328 121.374 55.6558 121.57C56.0841 121.766 56.5416 121.838 57.0285 121.787Z" fill="#EEEAD9"/>
<path d="M72.4862 118.962L71.2696 119.311L71.0623 118.606C71.0263 118.687 70.8207 118.892 70.4454 119.222C70.0737 119.545 69.6375 119.779 69.1368 119.922C68.6362 120.066 68.1387 120.1 67.6443 120.025C67.1534 119.944 66.7006 119.77 66.2858 119.505C65.5462 119.039 65.0522 118.385 64.8036 117.54L63.6345 113.568L64.8511 113.219L66.0202 117.191C66.1923 117.776 66.5479 118.219 67.0869 118.519C67.6295 118.813 68.1937 118.876 68.7795 118.708C69.0949 118.618 69.3719 118.471 69.6105 118.267C69.8476 118.058 70.0307 117.813 70.1598 117.532C70.4027 117.029 70.4447 116.508 70.2858 115.968L69.1167 111.996L70.3333 111.647L72.4862 118.962Z" fill="#EEEAD9"/>
<path d="M83.0767 112.635L81.9391 113.19L79.0715 107.514L78.257 107.911C77.8357 108.128 77.5059 108.422 77.2675 108.793C77.0267 109.16 76.8903 109.565 76.8581 110.01C76.8282 110.447 76.919 110.875 77.1304 111.294C77.2924 111.614 77.4087 111.839 77.4791 111.967C77.5472 112.09 77.6106 112.21 77.6693 112.326C77.8055 112.595 77.9336 112.907 78.0536 113.26C78.1735 113.612 78.1553 114.021 77.999 114.486C77.908 114.733 77.7725 114.955 77.5924 115.153C77.576 115.167 77.5398 115.199 77.4836 115.25C77.4251 115.296 77.3608 115.347 77.2906 115.405C77.2228 115.467 77.0543 115.566 76.7851 115.703L76.2144 114.574C76.5421 114.414 76.7421 114.227 76.8144 114.012C76.8867 113.797 76.8747 113.594 76.7784 113.403L75.9928 111.848C75.5795 111.03 75.4741 110.186 75.6767 109.317C75.7815 108.866 75.9624 108.451 76.2195 108.07C76.5841 107.51 77.0777 107.078 77.7003 106.774L79.6384 105.829L83.0767 112.635Z" fill="#EEEAD9"/>
</svg>
