<svg width="150" height="120" viewBox="0 0 150 120" fill="none" xmlns="http://www.w3.org/2000/svg">
<path d="M31.3311 93.5991C31.7478 94.1911 31.9806 94.8296 32.0297 95.5146C32.0787 96.1996 31.9598 96.8541 31.673 97.478C31.3861 98.102 30.9435 98.6178 30.3453 99.0254C29.7513 99.4301 29.107 99.6548 28.4125 99.6995C27.7137 99.7472 27.0471 99.6279 26.4127 99.3418C25.7783 99.0556 25.2528 98.6165 24.8361 98.0245C24.5244 97.5815 24.3182 97.1076 24.2176 96.6027C24.1127 96.1007 24.1169 95.5276 24.2301 94.8832L25.4897 95.1121C25.3978 95.5969 25.3889 96.0094 25.4628 96.3497C25.5295 96.6887 25.6692 97.0095 25.882 97.3119C26.1638 97.7122 26.5206 98.0111 26.9524 98.2084C27.3812 98.4015 27.8324 98.4816 28.306 98.4488C28.7753 98.4189 29.2123 98.2661 29.6169 97.9904C30.0215 97.7147 30.3227 97.3646 30.5205 96.9399C30.714 96.5181 30.7944 96.0758 30.7616 95.613C30.7258 95.1458 30.567 94.7121 30.2852 94.3117C30.0724 94.0093 29.8186 93.7663 29.5238 93.5828C29.2218 93.3979 28.8225 93.2603 28.326 93.1701L28.5559 91.9359C29.21 92.051 29.7589 92.2473 30.2026 92.5248C30.6432 92.798 31.0194 93.1561 31.3311 93.5991Z" fill="#EEEAD9"/>
<path d="M25.0576 75.7237L25.3215 76.9695L20.0791 78.0447L23.9497 79.8427L21.1331 83.0202L26.3756 81.945L26.6379 83.1831L19.1684 84.7152L18.9287 83.584L21.8757 80.2681L17.8277 78.3869L17.5881 77.2557L25.0576 75.7237Z" fill="#EEEAD9"/>
<path d="M26.5851 63.3435C26.4932 64.0616 26.2338 64.6933 25.8069 65.2387C25.3801 65.7842 24.8495 66.1961 24.2153 66.4744C23.5811 66.7527 22.9047 66.8474 22.1863 66.7585C21.473 66.6702 20.8442 66.4139 20.2999 65.9896C19.7504 65.5647 19.3377 65.036 19.0616 64.4036C18.7855 63.7711 18.6934 63.0958 18.7853 62.3777C18.8772 61.6596 19.1366 61.0279 19.5635 60.4824C19.9904 59.937 20.5235 59.5255 21.1629 59.2477C21.7971 58.9694 22.4708 58.8744 23.1842 58.9627C23.9026 59.0517 24.534 59.3083 25.0783 59.7325C25.6226 60.1568 26.0328 60.6852 26.3089 61.3176C26.5849 61.9501 26.677 62.6254 26.5851 63.3435ZM25.3291 63.1879C25.3912 62.7023 25.3289 62.2459 25.1421 61.8187C24.9559 61.3863 24.679 61.0266 24.3114 60.7397C23.9386 60.4521 23.5093 60.2783 23.0235 60.2181C22.5376 60.1579 22.0804 60.222 21.652 60.4104C21.2184 60.5981 20.857 60.8788 20.5676 61.2523C20.2789 61.6206 20.1035 62.0476 20.0413 62.5332C19.9792 63.0189 20.0412 63.4779 20.2274 63.9103C20.4142 64.3375 20.694 64.6949 21.0668 64.9825C21.4344 65.2694 21.8611 65.4429 22.347 65.5031C22.8328 65.5633 23.2926 65.4995 23.7262 65.3117C24.1546 65.1234 24.5131 64.845 24.8018 64.4767C25.0912 64.1031 25.2669 63.6736 25.3291 63.1879Z" fill="#EEEAD9"/>
<path d="M32.5098 48.2049L31.9401 49.3438L26.2165 46.5721L24.9863 49.0316L23.8472 48.48L26.8773 42.4221L28.0164 42.9737L26.7862 45.4332L32.5098 48.2049Z" fill="#EEEAD9"/>
<path d="M41.7832 42.5033L40.9344 43.4421C37.1056 40.0903 35.1399 38.3626 35.0372 38.2588C34.577 37.766 34.2657 37.2097 34.1031 36.5898C33.9365 35.9664 33.9241 35.3396 34.0658 34.7092C34.211 34.075 34.5124 33.5048 34.97 32.9987C35.4556 32.4618 36.0307 32.0897 36.6954 31.8826C37.3601 31.6754 38.0346 31.6361 38.7189 31.7645C39.4032 31.8929 40.0177 32.1955 40.5624 32.6724C41.1071 33.1492 41.4841 33.7145 41.6933 34.3683C41.9025 35.0221 41.9413 35.6859 41.8095 36.3596C41.6778 37.0332 41.3691 37.6386 40.8836 38.1756C40.4679 38.6353 39.982 38.9747 39.4258 39.1938C38.8731 39.409 38.5185 39.5139 38.362 39.5084L41.7832 42.5033ZM39.9313 37.3419C40.2597 36.9788 40.4682 36.5696 40.5569 36.1143C40.6491 35.6552 40.6247 35.2047 40.4836 34.7628C40.3386 34.3175 40.0819 33.9336 39.7136 33.6111C39.3452 33.2886 38.9298 33.0842 38.4673 32.9977C38.001 32.9078 37.5414 32.9347 37.0887 33.0782C36.6395 33.2178 36.2507 33.4692 35.9223 33.8324C35.5939 34.1955 35.3837 34.6067 35.2915 35.0658C35.2028 35.5211 35.2309 35.9714 35.3759 36.4167C35.517 36.8585 35.7717 37.2407 36.14 37.5632C36.5084 37.8857 36.9258 38.0919 37.3921 38.1817C37.8546 38.2682 38.3104 38.2416 38.7597 38.1019C39.2124 37.9584 39.6029 37.7051 39.9313 37.3419Z" fill="#EEEAD9"/>
<path d="M54.072 28.3203C53.4375 28.6689 52.7726 28.8321 52.0774 28.81C51.3823 28.7879 50.7329 28.6039 50.1295 28.2581C49.526 27.9122 49.0469 27.4267 48.6922 26.8016C48.3349 26.172 48.1649 25.5137 48.1823 24.8268C48.197 24.1353 48.3772 23.4926 48.7228 22.8987C49.0684 22.3047 49.5584 21.8335 50.1929 21.4849C50.7818 21.1613 51.3998 21 52.047 21.001C52.6963 20.9949 53.3082 21.134 53.8828 21.4185C54.4574 21.7029 54.9457 22.115 55.3478 22.6547L55.5667 23.0246L55.8615 23.5757L50.1715 26.7019C50.4816 27.0901 50.9579 27.3543 51.6004 27.4945C52.2428 27.6347 52.8585 27.5431 53.4473 27.2195C54.0225 26.9035 54.4466 26.3794 54.7196 25.647L55.9367 26.0033C55.729 26.5869 55.4735 27.06 55.1703 27.4227C54.8717 27.7828 54.5056 28.082 54.072 28.3203ZM54.0934 23.1032C53.7858 22.7196 53.3108 22.4577 52.6684 22.3174C52.0234 22.1727 51.4064 22.2621 50.8176 22.5856C50.2287 22.9091 49.8277 23.379 49.6146 23.9953C49.3988 24.607 49.3763 25.1423 49.5469 25.6012L54.0934 23.1032Z" fill="#EEEAD9"/>
<path d="M70.1273 23.9911L68.8728 24.2102L67.7437 17.9519L65.0347 18.4251L64.81 17.1795L71.4825 16.0141L71.7072 17.2596L68.9982 17.7328L70.1273 23.9911Z" fill="#EEEAD9"/>
<path d="M83.4236 24.4655L79.6269 24.119L80.3426 16.5277L81.6029 16.6427L81.3646 19.1706L83.901 19.4021C84.2225 19.4314 84.5208 19.5136 84.7958 19.6485C85.1801 19.8457 85.4971 20.1178 85.7469 20.4649C86.1074 20.9685 86.2581 21.534 86.199 22.1614C86.1398 22.7888 85.8857 23.32 85.4367 23.755C85.1774 24.0085 84.8742 24.2005 84.527 24.3309C84.1804 24.4562 83.8126 24.5011 83.4236 24.4655ZM83.5424 23.2055C83.8951 23.2377 84.2077 23.1407 84.4801 22.9145C84.7525 22.6884 84.9054 22.399 84.9386 22.0464C84.9714 21.699 84.875 21.3894 84.6495 21.1178C84.424 20.8462 84.1349 20.6943 83.7822 20.6621L81.2458 20.4306L81.0061 22.974L83.5424 23.2055Z" fill="#EEEAD9"/>
<path d="M105.473 33.1969L98.7233 29.6493L102.361 22.9482L103.482 23.537L100.447 29.1259L102.142 30.0164L105.176 24.4276L106.296 25.0164L103.262 30.6053L104.949 31.4922L107.984 25.9033L109.111 26.4958L105.473 33.1969Z" fill="#EEEAD9"/>
<path d="M113.91 43.257C113.415 42.7285 113.096 42.1286 112.953 41.4573C112.809 40.786 112.837 40.1217 113.034 39.4644C113.232 38.8071 113.6 38.2354 114.136 37.7492C114.669 37.2666 115.276 36.9552 115.958 36.815C116.644 36.6713 117.321 36.6973 117.989 36.8929C118.657 37.0886 119.239 37.4507 119.733 37.9792C120.228 38.5077 120.547 39.1076 120.69 39.7789C120.834 40.4502 120.805 41.1163 120.603 41.7771C120.405 42.4343 120.04 43.0043 119.507 43.487C118.971 43.9731 118.361 44.2863 117.679 44.4265C116.997 44.5666 116.322 44.5389 115.654 44.3433C114.986 44.1476 114.404 43.7855 113.91 43.257ZM114.848 42.4071C115.182 42.7645 115.575 43.0092 116.027 43.1411C116.482 43.2768 116.94 43.2974 117.401 43.203C117.866 43.1051 118.279 42.8918 118.642 42.563C119.005 42.2342 119.253 41.8477 119.386 41.4035C119.524 40.9558 119.542 40.5032 119.442 40.0457C119.346 39.5921 119.13 39.1865 118.796 38.8291C118.461 38.4717 118.066 38.2251 117.611 38.0894C117.159 37.9575 116.701 37.9405 116.236 38.0384C115.776 38.1328 115.364 38.3444 115.001 38.6732C114.638 39.002 114.388 39.3902 114.251 39.8379C114.117 40.2822 114.099 40.7311 114.196 41.1848C114.296 41.6422 114.513 42.0497 114.848 42.4071Z" fill="#EEEAD9"/>
<path d="M118.344 58.2414C118.147 57.7935 118.04 57.3322 118.024 56.8576C118.008 56.383 118.102 55.8532 118.305 55.2682L119.494 55.7373C119.24 56.4796 119.245 57.1487 119.508 57.7443C119.697 58.1732 119.975 58.5189 120.341 58.7815C120.708 59.0441 121.114 59.2046 121.561 59.2629C122.008 59.3211 122.447 59.2582 122.878 59.0741L123.439 58.8348C123.353 58.8089 123.122 58.6331 122.745 58.3071C122.372 57.9791 122.08 57.5745 121.868 57.0932C121.66 56.6215 121.56 56.1374 121.569 55.641C121.582 55.1425 121.695 54.6753 121.907 54.2394C122.27 53.45 122.856 52.8824 123.666 52.5367L127.473 50.9103L127.987 52.0754L124.18 53.7018C123.614 53.9432 123.22 54.3465 122.997 54.9118C122.774 55.4771 122.786 56.0386 123.032 56.5961C123.166 56.9011 123.351 57.159 123.586 57.37C123.827 57.5789 124.093 57.7312 124.386 57.8271C124.933 57.9956 125.46 57.9714 125.968 57.7546L129.775 56.1282L130.286 57.2861L123.356 60.2545C123.05 60.3855 122.729 60.4715 122.394 60.5125C121.549 60.5961 120.748 60.4315 119.991 60.0187C119.233 59.6058 118.685 59.0134 118.344 58.2414Z" fill="#EEEAD9"/>
<path d="M120.764 69.6097L120.624 68.3518C125.683 67.8073 128.286 67.5324 128.432 67.5272C129.108 67.5226 129.732 67.6701 130.305 67.9699C130.884 68.2691 131.362 68.6839 131.741 69.2141C132.12 69.7495 132.347 70.3563 132.422 71.0344C132.502 71.7539 132.399 72.4277 132.113 73.0557C131.826 73.6837 131.407 74.2055 130.856 74.621C130.305 75.0365 129.669 75.283 128.949 75.3605C128.23 75.438 127.555 75.3325 126.926 75.044C126.296 74.7556 125.772 74.3352 125.355 73.783C124.937 73.2308 124.688 72.5949 124.608 71.8754C124.54 71.2594 124.608 70.6732 124.814 70.1168C125.02 69.5655 125.177 69.2343 125.285 69.1231L120.764 69.6097ZM125.867 71.74C125.921 72.2265 126.089 72.6563 126.371 73.0293C126.655 73.4074 127.009 73.694 127.434 73.8893C127.864 74.0839 128.323 74.155 128.81 74.1026C129.296 74.0502 129.726 73.8835 130.098 73.6025C130.476 73.3209 130.761 72.9654 130.954 72.536C131.148 72.1118 131.218 71.6564 131.164 71.1698C131.11 70.6832 130.941 70.2509 130.658 69.8727C130.376 69.4998 130.019 69.216 129.589 69.0214C129.164 68.8262 128.708 68.7547 128.221 68.8071C127.734 68.8595 127.302 69.0265 126.925 69.3081C126.552 69.5891 126.269 69.9418 126.075 70.366C125.882 70.7954 125.812 71.2534 125.867 71.74Z" fill="#EEEAD9"/>
<path d="M121.727 90.8982L122.012 89.665L122.728 89.8251C122.675 89.7546 122.595 89.4752 122.489 88.9871C122.386 88.5052 122.394 88.0106 122.511 87.5031C122.628 86.9956 122.839 86.5438 123.144 86.1477C123.454 85.7579 123.825 85.4459 124.258 85.212C125.024 84.7906 125.836 84.676 126.695 84.868L130.736 85.7711L130.451 87.0043L126.41 86.1012C125.816 85.9682 125.256 86.0647 124.732 86.3905C124.212 86.7225 123.883 87.1854 123.746 87.7791C123.672 88.0988 123.667 88.4125 123.729 88.72C123.797 89.0286 123.922 89.3075 124.105 89.5565C124.428 90.0128 124.863 90.3023 125.412 90.425L129.453 91.3281L129.169 92.5613L121.727 90.8982Z" fill="#EEEAD9"/>
<path d="M114.261 103.674L114.902 102.583L120.43 105.726L120.889 104.945C121.12 104.531 121.233 104.104 121.226 103.663C121.224 103.224 121.113 102.811 120.894 102.423C120.677 102.041 120.365 101.735 119.957 101.503C119.645 101.326 119.424 101.203 119.295 101.136C119.17 101.071 119.051 101.006 118.938 100.941C118.675 100.792 118.396 100.604 118.101 100.376C117.806 100.148 117.595 99.7977 117.468 99.3243C117.408 99.0681 117.397 98.8077 117.438 98.5432C117.444 98.5227 117.456 98.4758 117.475 98.4026C117.499 98.332 117.524 98.2534 117.55 98.1668C117.573 98.0775 117.658 97.9014 117.806 97.6383L118.907 98.264C118.722 98.5783 118.659 98.845 118.718 99.0641C118.776 99.2831 118.898 99.4454 119.084 99.5509L120.598 100.412C121.395 100.865 121.95 101.51 122.262 102.346C122.424 102.78 122.503 103.226 122.499 103.685C122.505 104.354 122.332 104.987 121.982 105.584L120.89 107.443L114.261 103.674Z" fill="#EEEAD9"/>
</svg>
