<svg width="93" height="135" viewBox="0 0 93 135" fill="none" xmlns="http://www.w3.org/2000/svg">
<path d="M28.1824 32.792L27.0834 33.354L23.0447 29.4709L23.9742 34.9441L22.8822 35.5026L16.4351 30.219L17.694 29.5751L22.5494 33.6461L21.3875 27.6863L22.5004 27.1171L26.8201 31.462L26.1939 25.2283L27.4529 24.5844L28.1824 32.792Z" fill="#EEEAD9"/>
<path d="M35.8969 29.5751C35.178 29.661 34.4962 29.5643 33.8515 29.2849C33.2068 29.0055 32.6623 28.5936 32.2181 28.0492C31.7739 27.5047 31.4954 26.8749 31.3826 26.1598C31.2706 25.4498 31.3442 24.7806 31.6033 24.152C31.8617 23.5184 32.258 22.9914 32.7924 22.5711C33.3268 22.1507 33.9534 21.8976 34.6722 21.8117C35.2411 21.7437 35.8057 21.7994 36.3662 21.9788C36.9267 22.1581 37.4272 22.4416 37.8677 22.8293C38.2245 23.1536 38.5111 23.5177 38.7276 23.9216C38.9441 24.3256 39.1066 24.7543 39.215 25.2079L40.1606 28.9475L38.8884 29.0996L38.6486 27.9803C38.5747 28.1464 38.2724 28.4341 37.7415 28.8435C37.2151 29.2472 36.6002 29.491 35.8969 29.5751ZM35.6997 28.3249C36.1858 28.2668 36.6093 28.0956 36.9702 27.8114C37.3362 27.5265 37.6069 27.1718 37.7823 26.7472C37.9569 26.3175 38.0061 25.8608 37.9298 25.3772C37.8535 24.8936 37.6651 24.468 37.3648 24.1002C37.0636 23.7274 36.6926 23.4467 36.2519 23.2583C35.8164 23.0692 35.3555 23.0038 34.8694 23.0619C34.3833 23.12 33.9572 23.2915 33.5912 23.5763C33.2303 23.8606 32.9626 24.2176 32.788 24.6473C32.6126 25.0719 32.563 25.526 32.6393 26.0096C32.7156 26.4932 32.9043 26.9214 33.2055 27.2943C33.5059 27.662 33.8739 27.9404 34.3094 28.1294C34.7501 28.3179 35.2135 28.383 35.6997 28.3249Z" fill="#EEEAD9"/>
<path d="M49.0772 28.7063C48.4836 28.7205 47.9238 28.609 47.3977 28.3717C46.8717 28.1344 46.418 27.8043 46.0366 27.3814C45.4146 26.6987 45.0746 25.8999 45.0167 24.9851L44.8633 22.5602L43.4184 22.5949L43.3385 21.3318L44.7834 21.2971L44.5416 17.4767L45.8147 17.4462L46.0565 21.2666L50.1256 21.1692L50.2055 22.4323L46.1364 22.5297L46.2898 24.9546C46.3194 25.4224 46.4609 25.8459 46.7144 26.225C46.9678 26.6042 47.2944 26.9035 47.6942 27.123C48.094 27.3425 48.5282 27.4466 48.9968 27.4354C49.3613 27.4267 49.6979 27.3483 50.0066 27.2004C50.3153 27.0524 50.63 26.7924 50.9507 26.4203L51.9056 27.2954C51.4825 27.7793 51.0408 28.1335 50.5805 28.3579C50.1198 28.5772 49.6187 28.6933 49.0772 28.7063Z" fill="#EEEAD9"/>
<path d="M58.2025 29.6051C57.5 29.4302 56.8994 29.0982 56.4008 28.6092C55.9021 28.1201 55.5459 27.5432 55.3321 26.8782C55.1183 26.2133 55.0906 25.5276 55.249 24.8212C55.4063 24.1199 55.7217 23.5223 56.1952 23.0285C56.67 22.5296 57.2341 22.1791 57.8878 21.977C58.5414 21.7748 59.2195 21.7612 59.922 21.9361C60.4477 22.067 60.9176 22.2913 61.332 22.6091C61.7474 22.9218 62.1319 23.361 62.4854 23.9265L61.417 24.5861C61.1558 24.1562 60.8834 23.8362 60.5997 23.6261C60.3222 23.4121 60.004 23.2604 59.6451 23.1711C59.1701 23.0528 58.7092 23.0615 58.2626 23.1971C57.821 23.334 57.4395 23.5717 57.1181 23.9102C56.7979 24.2437 56.5843 24.6493 56.4771 25.127C56.37 25.6047 56.3883 26.0707 56.5319 26.525C56.6766 26.9742 56.9174 27.3641 57.2541 27.6948C57.5959 28.0267 58.0044 28.2519 58.4794 28.3701C58.8383 28.4595 59.1866 28.4765 59.5246 28.4211C59.8687 28.3619 60.2513 28.2023 60.6725 27.9422L61.3402 29.0341C60.7878 29.3795 60.2569 29.5934 59.7475 29.6759C59.2431 29.7595 58.7282 29.736 58.2025 29.6051Z" fill="#EEEAD9"/>
<path d="M70.4771 35.0647L69.3558 34.4777L71.2431 30.7834C71.5227 30.2361 71.5671 29.6685 71.3761 29.0807C71.1922 28.4906 70.828 28.053 70.2835 27.768C69.9928 27.6158 69.6897 27.5336 69.3743 27.5213C69.0613 27.5044 68.7592 27.552 68.468 27.6641C67.9438 27.8659 67.5538 28.2172 67.2979 28.7182L65.4106 32.4124L64.2893 31.8255L69.4501 21.7236L70.5713 22.3106L68.5525 26.2623C68.6387 26.231 68.9276 26.2264 69.4192 26.2486C69.9178 26.2686 70.3978 26.3994 70.8593 26.6409C71.3207 26.8825 71.7035 27.2034 72.0078 27.6037C72.3145 27.9994 72.5268 28.4368 72.6446 28.9158C72.8583 29.7684 72.7649 30.5866 72.3644 31.3704L70.4771 35.0647Z" fill="#EEEAD9"/>
<path d="M4.5487 112.276C4.13638 111.878 3.83284 111.426 3.63806 110.92C3.4507 110.414 3.37549 109.824 3.41243 109.15L4.69707 109.141C4.66215 109.665 4.70782 110.099 4.83406 110.446C4.96029 110.792 5.16398 111.1 5.4451 111.372C5.82743 111.74 6.28605 111.969 6.82097 112.059C6.98817 112.09 7.14583 112.097 7.29396 112.081C7.44583 112.068 7.57127 112.012 7.67026 111.912C7.79124 111.79 7.85079 111.645 7.8489 111.476C7.85068 111.304 7.81156 111.122 7.73153 110.929C7.65892 110.736 7.57168 110.561 7.46982 110.405C7.3453 110.213 7.19679 110.029 7.02429 109.856C6.8592 109.682 6.70315 109.488 6.55614 109.274C6.31852 108.914 6.1583 108.514 6.07548 108.072C5.99641 107.634 6.06951 107.209 6.29476 106.797C6.37118 106.668 6.46072 106.551 6.56337 106.448C6.72469 106.285 6.90308 106.157 7.09854 106.063C7.44905 105.909 7.797 105.858 8.14239 105.909C8.49145 105.956 8.81713 106.068 9.11944 106.244C9.42549 106.423 9.69471 106.625 9.92711 106.849C10.2682 107.178 10.5337 107.547 10.7237 107.954C10.9174 108.365 11.038 108.872 11.0856 109.476L9.81207 109.484C9.73338 108.75 9.47476 108.171 9.0362 107.748C8.89752 107.614 8.72738 107.486 8.52579 107.364C8.3242 107.242 8.1306 107.171 7.94499 107.151C7.76679 107.131 7.60987 107.19 7.47422 107.327C7.33123 107.471 7.27759 107.647 7.3133 107.855C7.41078 108.282 7.6414 108.678 8.00515 109.044C8.45544 109.521 8.77081 110.036 8.95125 110.586C9.0585 110.892 9.11209 111.208 9.11204 111.533C9.10271 112.024 8.92573 112.443 8.5811 112.791C8.21814 113.157 7.78086 113.343 7.26925 113.349C6.75764 113.354 6.26534 113.263 5.79234 113.074C5.32309 112.889 4.90854 112.623 4.5487 112.276Z" fill="#EEEAD9"/>
<path d="M16.5366 122.503L15.4535 121.848L17.6564 118.333C17.9828 117.812 18.0735 117.255 17.9287 116.663C17.791 116.068 17.4592 115.612 16.9333 115.294C16.6524 115.124 16.3535 115.023 16.0364 114.989C15.7221 114.952 15.4136 114.978 15.1109 115.069C14.5659 115.232 14.1441 115.552 13.8454 116.029L11.6425 119.544L10.5593 118.89L16.5831 109.277L17.6663 109.932L15.3098 113.692C15.3993 113.667 15.691 113.682 16.185 113.737C16.6861 113.791 17.1596 113.952 17.6053 114.222C18.0511 114.491 18.4111 114.834 18.6855 115.249C18.9627 115.66 19.1412 116.105 19.2212 116.586C19.3675 117.441 19.2069 118.241 18.7395 118.987L16.5366 122.503Z" fill="#EEEAD9"/>
<path d="M25.0436 126.799C24.3511 126.588 23.7745 126.227 23.3139 125.716C22.8532 125.206 22.5435 124.616 22.3846 123.947C22.2257 123.277 22.2559 122.598 22.4752 121.908C22.6929 121.223 23.0611 120.649 23.5797 120.187C24.0999 119.719 24.6977 119.403 25.3729 119.239C26.0481 119.074 26.732 119.098 27.4245 119.309C28.1169 119.52 28.6935 119.881 29.1542 120.392C29.6148 120.902 29.9238 121.495 30.0811 122.169C30.24 122.838 30.2106 123.515 29.9929 124.2C29.7736 124.89 29.4046 125.466 28.886 125.929C28.3673 126.391 27.7704 126.705 27.0952 126.869C26.4199 127.034 25.7361 127.01 25.0436 126.799ZM25.427 125.593C25.8953 125.736 26.3575 125.751 26.8137 125.64C27.2749 125.53 27.6808 125.319 28.0315 125.007C28.3837 124.689 28.634 124.298 28.7823 123.831C28.9306 123.364 28.9509 122.905 28.8432 122.453C28.7371 121.996 28.5261 121.594 28.21 121.247C27.899 120.902 27.5094 120.658 27.0411 120.515C26.5728 120.372 26.108 120.356 25.6469 120.466C25.1907 120.577 24.7865 120.791 24.4342 121.109C24.0836 121.421 23.8341 121.81 23.6858 122.277C23.5375 122.744 23.5164 123.205 23.6225 123.662C23.7301 124.115 23.9395 124.513 24.2505 124.858C24.5665 125.205 24.9587 125.45 25.427 125.593Z" fill="#EEEAD9"/>
<path d="M42.4669 129.709L41.2359 129.618L39.9082 124.208L37.7532 129.36L36.53 129.27L33.9189 121.415L35.3291 121.519L37.2461 127.513L39.4662 121.825L40.7128 121.918L42.0299 127.867L44.8499 122.224L46.2601 122.329L42.4669 129.709Z" fill="#EEEAD9"/>
<path d="M53.696 129.248L52.4473 129.454L51.1503 121.924L52.3991 121.718L52.5237 122.442C52.5739 122.365 52.8023 122.187 53.2088 121.909C53.6197 121.625 54.082 121.44 54.5959 121.356C55.341 121.233 56.124 121.375 56.9448 121.783L56.2044 122.824C55.707 122.605 55.2424 122.532 54.8107 122.603C54.487 122.656 54.1953 122.773 53.9357 122.953C53.6751 123.128 53.462 123.348 53.2962 123.613C52.9978 124.09 52.8964 124.605 52.9918 125.16L53.696 129.248Z" fill="#EEEAD9"/>
<path d="M67.572 124.505C66.8953 124.762 66.2142 124.832 65.5287 124.713C64.8432 124.595 64.2256 124.323 63.6758 123.896C63.1261 123.47 62.7188 122.923 62.4541 122.255C62.1874 121.582 62.1102 120.906 62.2226 120.229C62.333 119.546 62.6005 118.934 63.0251 118.394C63.4497 117.854 64.0003 117.455 64.677 117.198C65.3051 116.959 65.9396 116.885 66.5805 116.976C67.2243 117.06 67.8111 117.283 68.3408 117.644C68.8705 118.006 69.2971 118.481 69.6205 119.072L69.7861 119.468L70.0017 120.055L63.9331 122.361C64.1864 122.789 64.6215 123.116 65.2384 123.344C65.8553 123.572 66.4778 123.567 67.1058 123.328C67.7192 123.095 68.2119 122.635 68.5838 121.948L69.7399 122.469C69.4533 123.018 69.1347 123.451 68.7842 123.768C68.4386 124.084 68.0345 124.329 67.572 124.505ZM68.316 119.342C68.0645 118.919 67.6304 118.594 67.0135 118.366C66.3947 118.133 65.7713 118.136 65.1432 118.375C64.5152 118.613 64.0529 119.023 63.7564 119.604C63.458 120.18 63.3615 120.707 63.4669 121.185L68.316 119.342Z" fill="#EEEAD9"/>
<path d="M79.8335 119.072C79.1788 119.381 78.5052 119.504 77.8126 119.439C77.12 119.374 76.4831 119.151 75.9018 118.769C75.3206 118.387 74.872 117.873 74.5562 117.227C74.238 116.577 74.1086 115.909 74.1679 115.225C74.2249 114.536 74.4441 113.905 74.8254 113.334C75.2066 112.762 75.7246 112.322 76.3793 112.013C76.9869 111.726 77.6137 111.603 78.2597 111.644C78.9082 111.677 79.5105 111.854 80.0667 112.173C80.6229 112.492 81.0851 112.933 81.4535 113.496L81.6494 113.879L81.9099 114.447L76.0389 117.218C76.3248 117.625 76.784 117.918 77.4168 118.097C78.0495 118.276 78.6697 118.222 79.2772 117.936C79.8707 117.655 80.3261 117.158 80.6434 116.444L81.8366 116.874C81.5936 117.444 81.3096 117.901 80.9848 118.244C80.6647 118.585 80.2809 118.861 79.8335 119.072ZM80.1739 113.867C79.8903 113.465 79.4322 113.175 78.7995 112.995C78.1644 112.811 77.5431 112.863 76.9356 113.15C76.328 113.436 75.8989 113.881 75.6485 114.483C75.3957 115.08 75.3405 115.613 75.4827 116.081L80.1739 113.867Z" fill="#EEEAD9"/>
<path d="M90.0085 112.257L88.9423 112.939L82.7011 103.476L83.7673 102.794L90.0085 112.257Z" fill="#EEEAD9"/>
</svg>
