<svg width="52" height="15" viewBox="0 0 52 15" fill="none" xmlns="http://www.w3.org/2000/svg">
<path d="M0.4 14L3.8 -9.53674e-07H6.4L9.8 14H8L7.1 10.4H3.1L2.2 14H0.4ZM3.4 9H6.8L5.14 2H5.06L3.4 9ZM14.5953 14.2C14.062 14.2 13.582 14.1133 13.1553 13.94C12.742 13.7533 12.4086 13.42 12.1553 12.94C11.9153 12.4467 11.7953 11.7333 11.7953 10.8V5.5H10.5953V4.2H11.7953V1.8H13.5953V4.2H16.3953V5.1C16.102 5.19333 15.7286 5.28667 15.2753 5.38C14.822 5.46 14.3953 5.5 13.9953 5.5H13.5953V10.8C13.5953 11.4 13.6686 11.86 13.8153 12.18C13.962 12.4867 14.142 12.7 14.3553 12.82C14.582 12.94 14.7953 13 14.9953 13H16.7953V13.8C16.6353 13.8667 16.4153 13.9333 16.1353 14C15.8686 14.0533 15.5953 14.1 15.3153 14.14C15.0353 14.18 14.7953 14.2 14.5953 14.2ZM21.4945 14.2C20.6945 14.2 20.0212 14.04 19.4745 13.72C18.9279 13.3867 18.5079 12.84 18.2145 12.08C17.9345 11.32 17.7945 10.2933 17.7945 9C17.7945 7.69333 17.9345 6.66667 18.2145 5.92C18.5079 5.16 18.9279 4.62 19.4745 4.3C20.0212 3.96667 20.6945 3.8 21.4945 3.8C22.2945 3.8 22.9679 3.96667 23.5145 4.3C24.0745 4.62 24.4945 5.16 24.7745 5.92C25.0545 6.66667 25.1945 7.69333 25.1945 9C25.1945 10.2933 25.0545 11.32 24.7745 12.08C24.4945 12.84 24.0745 13.3867 23.5145 13.72C22.9679 14.04 22.2945 14.2 21.4945 14.2ZM21.4945 13.1C21.8279 13.1 22.1345 12.98 22.4145 12.74C22.7079 12.5 22.9412 12.0867 23.1145 11.5C23.3012 10.9 23.3945 10.0667 23.3945 9C23.3945 7.93333 23.3012 7.10667 23.1145 6.52C22.9412 5.92 22.7079 5.5 22.4145 5.26C22.1345 5.02 21.8279 4.9 21.4945 4.9C21.1612 4.9 20.8479 5.02 20.5545 5.26C20.2745 5.5 20.0412 5.92 19.8545 6.52C19.6812 7.10667 19.5945 7.93333 19.5945 9C19.5945 10.0667 19.6812 10.9 19.8545 11.5C20.0412 12.0867 20.2745 12.5 20.5545 12.74C20.8479 12.98 21.1612 13.1 21.4945 13.1ZM27.3938 14V4H28.8938L28.9938 4.6H29.0938C29.3471 4.34667 29.6271 4.15333 29.9338 4.02C30.2538 3.87333 30.6404 3.8 31.0938 3.8C31.5471 3.8 31.9671 3.86667 32.3538 4C32.7538 4.12 33.0804 4.34667 33.3338 4.68C33.6671 4.38667 34.0738 4.16667 34.5538 4.02C35.0338 3.87333 35.4471 3.8 35.7938 3.8C36.3271 3.8 36.8004 3.88667 37.2138 4.06C37.6404 4.22 37.9738 4.52 38.2138 4.96C38.4671 5.38667 38.5938 6 38.5938 6.8V14H36.7938V6.8C36.7938 6.33333 36.7138 5.97333 36.5538 5.72C36.4071 5.45333 36.2071 5.26667 35.9538 5.16C35.7138 5.05333 35.4604 5 35.1938 5C34.9004 5 34.6138 5.04 34.3338 5.12C34.0538 5.2 33.8404 5.29333 33.6938 5.4C33.7471 5.54667 33.7938 5.74 33.8338 5.98C33.8738 6.22 33.8938 6.49333 33.8938 6.8V14H32.0938V6.8C32.0938 6.33333 32.0138 5.97333 31.8538 5.72C31.7071 5.45333 31.5071 5.26667 31.2538 5.16C31.0138 5.05333 30.7604 5 30.4938 5C30.2404 5 29.9938 5.04 29.7538 5.12C29.5271 5.2 29.3404 5.29333 29.1938 5.4V14H27.3938ZM41.3023 14V4H43.1023V14H41.3023ZM41.3023 2.6V0.4H43.1023V2.6H41.3023ZM49.3117 14.2C48.4184 14.2 47.6784 14.0467 47.0917 13.74C46.5184 13.42 46.0917 12.8867 45.8117 12.14C45.5451 11.38 45.4117 10.3333 45.4117 9C45.4117 7.66667 45.5451 6.62667 45.8117 5.88C46.0784 5.12 46.4851 4.58667 47.0317 4.28C47.5917 3.96 48.2851 3.8 49.1117 3.8C49.5117 3.8 49.9384 3.84 50.3917 3.92C50.8451 4 51.2184 4.09333 51.5117 4.2V5H49.5117C49.0184 5 48.5984 5.11333 48.2517 5.34C47.9051 5.55333 47.6451 5.95333 47.4717 6.54C47.2984 7.11333 47.2117 7.93333 47.2117 9C47.2117 10.0667 47.2984 10.8933 47.4717 11.48C47.6584 12.0533 47.9384 12.4533 48.3117 12.68C48.6851 12.8933 49.1517 13 49.7117 13H51.7117V13.8C51.4184 13.8933 51.0451 13.98 50.5917 14.06C50.1384 14.1533 49.7117 14.2 49.3117 14.2Z" fill="#958266"/>
</svg>
