<svg width="67" height="18" viewBox="0 0 67 18" fill="none" xmlns="http://www.w3.org/2000/svg">
<path d="M0.36 17L4.68 0.199999H8.28L12.6 17H9.6L8.544 12.8H4.416L3.36 17H0.36ZM4.8 10.88H8.136L6.528 4.04H6.432L4.8 10.88ZM18.4809 17.24C17.8089 17.24 17.1849 17.136 16.6089 16.928C16.0489 16.704 15.6009 16.304 15.2649 15.728C14.9289 15.136 14.7609 14.28 14.7609 13.16V7.04H13.4409V5.24H14.7609V2.36H17.6409V5.24H20.8809V6.56C20.5289 6.672 20.0729 6.784 19.5129 6.896C18.9529 6.992 18.3689 7.04 17.7609 7.04H17.6409V13.16C17.6409 13.8 17.7209 14.296 17.8809 14.648C18.0409 14.984 18.2409 15.224 18.4809 15.368C18.7209 15.496 18.9609 15.56 19.2009 15.56H21.3609V16.76C21.1689 16.84 20.9049 16.92 20.5689 17C20.2329 17.064 19.8809 17.12 19.5129 17.168C19.1449 17.216 18.8009 17.24 18.4809 17.24ZM27.2522 17.24C26.2122 17.24 25.3322 17.04 24.6122 16.64C23.9082 16.224 23.3722 15.56 23.0042 14.648C22.6362 13.736 22.4522 12.52 22.4522 11C22.4522 9.48 22.6362 8.264 23.0042 7.352C23.3722 6.44 23.9082 5.784 24.6122 5.384C25.3322 4.968 26.2122 4.76 27.2522 4.76C28.2922 4.76 29.1642 4.968 29.8682 5.384C30.5882 5.784 31.1322 6.44 31.5002 7.352C31.8682 8.264 32.0522 9.48 32.0522 11C32.0522 12.52 31.8682 13.736 31.5002 14.648C31.1322 15.56 30.5882 16.224 29.8682 16.64C29.1642 17.04 28.2922 17.24 27.2522 17.24ZM27.2522 15.68C27.6202 15.68 27.9482 15.552 28.2362 15.296C28.5242 15.024 28.7482 14.552 28.9082 13.88C29.0842 13.192 29.1722 12.232 29.1722 11C29.1722 9.752 29.0842 8.792 28.9082 8.12C28.7482 7.448 28.5242 6.984 28.2362 6.728C27.9482 6.456 27.6202 6.32 27.2522 6.32C26.9002 6.32 26.5722 6.456 26.2682 6.728C25.9802 6.984 25.7482 7.448 25.5722 8.12C25.4122 8.792 25.3322 9.752 25.3322 11C25.3322 12.232 25.4122 13.192 25.5722 13.88C25.7482 14.552 25.9802 15.024 26.2682 15.296C26.5722 15.552 26.9002 15.68 27.2522 15.68ZM34.5834 17V5H36.6234L36.9834 5.72H37.1034C37.3594 5.48 37.7034 5.264 38.1354 5.072C38.5674 4.864 39.1434 4.76 39.8634 4.76C40.4714 4.76 40.9834 4.848 41.3994 5.024C41.8314 5.184 42.1994 5.416 42.5034 5.72C42.8714 5.416 43.3034 5.184 43.7994 5.024C44.2954 4.848 44.9034 4.76 45.6234 4.76C46.2634 4.76 46.8554 4.864 47.3994 5.072C47.9434 5.28 48.3834 5.664 48.7194 6.224C49.0554 6.768 49.2234 7.56 49.2234 8.6V17H46.3434V8.6C46.3434 8.04 46.2474 7.608 46.0554 7.304C45.8794 6.984 45.6554 6.76 45.3834 6.632C45.1114 6.504 44.8314 6.44 44.5434 6.44C44.2394 6.44 43.9674 6.48 43.7274 6.56C43.4874 6.624 43.2794 6.704 43.1034 6.8C43.1674 6.976 43.2234 7.232 43.2714 7.568C43.3194 7.888 43.3434 8.232 43.3434 8.6V17H40.4634V8.6C40.4634 8.04 40.3754 7.608 40.1994 7.304C40.0234 6.984 39.7994 6.76 39.5274 6.632C39.2714 6.504 39.0234 6.44 38.7834 6.44C38.4794 6.44 38.2154 6.488 37.9914 6.584C37.7674 6.68 37.5914 6.792 37.4634 6.92V17H34.5834ZM52.4691 17V5H55.3491V17H52.4691ZM52.4691 3.56V0.68H55.3491V3.56H52.4691ZM63.0234 17.24C61.9034 17.24 60.9674 17.04 60.2154 16.64C59.4794 16.224 58.9194 15.56 58.5354 14.648C58.1674 13.736 57.9834 12.52 57.9834 11C57.9834 9.48 58.1674 8.264 58.5354 7.352C58.9034 6.44 59.4394 5.784 60.1434 5.384C60.8634 4.968 61.7434 4.76 62.7834 4.76C63.3914 4.76 63.9754 4.808 64.5354 4.904C65.0954 5 65.5514 5.112 65.9034 5.24V6.44H63.2634C62.7834 6.44 62.3594 6.568 61.9914 6.824C61.6394 7.08 61.3594 7.544 61.1514 8.216C60.9594 8.872 60.8634 9.8 60.8634 11C60.8634 12.2 60.9674 13.128 61.1754 13.784C61.3834 14.44 61.6794 14.904 62.0634 15.176C62.4634 15.432 62.9434 15.56 63.5034 15.56H66.1434V16.76C65.7914 16.872 65.3354 16.976 64.7754 17.072C64.2154 17.184 63.6314 17.24 63.0234 17.24Z" fill="#958266"/>
</svg>
