<svg width="28" height="19" viewBox="0 0 28 19" fill="none" xmlns="http://www.w3.org/2000/svg">
<path d="M7.928 13.128V14.184C7.928 14.712 7.824 15.216 7.616 15.696C7.424 16.16 7.152 16.576 6.8 16.944C6.448 17.312 6.032 17.608 5.552 17.832C5.088 18.04 4.584 18.144 4.04 18.144C3.576 18.144 3.104 18.08 2.624 17.952C2.144 17.824 1.712 17.6 1.328 17.28C0.944 16.96 0.624 16.552 0.368 16.056C0.128 15.544 0.00800008 14.896 0.00800008 14.112V4.704C0.00800008 4.144 0.104 3.624 0.296 3.144C0.488 2.664 0.76 2.248 1.112 1.896C1.464 1.544 1.88 1.272 2.36 1.08C2.856 0.871999 3.4 0.767999 3.992 0.767999C5.144 0.767999 6.08 1.144 6.8 1.896C7.152 2.264 7.424 2.704 7.616 3.216C7.824 3.712 7.928 4.256 7.928 4.848V5.808H5.48V4.992C5.48 4.512 5.344 4.096 5.072 3.744C4.8 3.392 4.432 3.216 3.968 3.216C3.36 3.216 2.952 3.408 2.744 3.792C2.552 4.16 2.456 4.632 2.456 5.208V13.944C2.456 14.44 2.56 14.856 2.768 15.192C2.992 15.528 3.384 15.696 3.944 15.696C4.104 15.696 4.272 15.672 4.448 15.624C4.64 15.56 4.816 15.464 4.976 15.336C5.12 15.208 5.24 15.032 5.336 14.808C5.432 14.584 5.48 14.304 5.48 13.968V13.128H7.928ZM9.78144 4.944C9.78144 4.256 9.90144 3.648 10.1414 3.12C10.3814 2.592 10.7014 2.152 11.1014 1.8C11.4854 1.464 11.9174 1.208 12.3974 1.032C12.8934 0.855999 13.3894 0.767999 13.8854 0.767999C14.3814 0.767999 14.8694 0.855999 15.3494 1.032C15.8454 1.208 16.2934 1.464 16.6934 1.8C17.0774 2.152 17.3894 2.592 17.6294 3.12C17.8694 3.648 17.9894 4.256 17.9894 4.944V5.808H15.5414V4.944C15.5414 4.352 15.3734 3.92 15.0374 3.648C14.7174 3.36 14.3334 3.216 13.8854 3.216C13.4374 3.216 13.0454 3.36 12.7094 3.648C12.3894 3.92 12.2294 4.352 12.2294 4.944V13.968C12.2294 14.56 12.3894 15 12.7094 15.288C13.0454 15.56 13.4374 15.696 13.8854 15.696C14.3334 15.696 14.7174 15.56 15.0374 15.288C15.3734 15 15.5414 14.56 15.5414 13.968V10.752H13.5974V8.592H17.9894V13.968C17.9894 14.688 17.8694 15.304 17.6294 15.816C17.3894 16.328 17.0774 16.752 16.6934 17.088C16.2934 17.44 15.8454 17.704 15.3494 17.88C14.8694 18.056 14.3814 18.144 13.8854 18.144C13.3894 18.144 12.8934 18.056 12.3974 17.88C11.9174 17.704 11.4854 17.44 11.1014 17.088C10.7014 16.752 10.3814 16.328 10.1414 15.816C9.90144 15.304 9.78144 14.688 9.78144 13.968V4.944ZM20.1442 18V0.912H27.4402V3.216H22.5922V8.4H26.8162V10.704H22.5922V18H20.1442Z" fill="#958266"/>
</svg>
