<svg width="24" height="16" viewBox="0 0 24 16" fill="none" xmlns="http://www.w3.org/2000/svg">
<path d="M7.44 10.94V11.82C7.44 12.26 7.35333 12.68 7.18 13.08C7.02 13.4667 6.79333 13.8133 6.5 14.12C6.20667 14.4267 5.86 14.6733 5.46 14.86C5.07333 15.0333 4.65333 15.12 4.2 15.12C3.81333 15.12 3.42 15.0667 3.02 14.96C2.62 14.8533 2.26 14.6667 1.94 14.4C1.62 14.1333 1.35333 13.7933 1.14 13.38C0.94 12.9533 0.84 12.4133 0.84 11.76V3.92C0.84 3.45333 0.92 3.02 1.08 2.62C1.24 2.22 1.46667 1.87333 1.76 1.58C2.05333 1.28667 2.4 1.06 2.8 0.899999C3.21333 0.726666 3.66667 0.639999 4.16 0.639999C5.12 0.639999 5.9 0.953333 6.5 1.58C6.79333 1.88667 7.02 2.25333 7.18 2.68C7.35333 3.09333 7.44 3.54667 7.44 4.04V4.84H5.4V4.16C5.4 3.76 5.28667 3.41333 5.06 3.12C4.83333 2.82667 4.52667 2.68 4.14 2.68C3.63333 2.68 3.29333 2.84 3.12 3.16C2.96 3.46667 2.88 3.86 2.88 4.34V11.62C2.88 12.0333 2.96667 12.38 3.14 12.66C3.32667 12.94 3.65333 13.08 4.12 13.08C4.25333 13.08 4.39333 13.06 4.54 13.02C4.7 12.9667 4.84667 12.8867 4.98 12.78C5.1 12.6733 5.2 12.5267 5.28 12.34C5.36 12.1533 5.4 11.92 5.4 11.64V10.94H7.44ZM8.98453 4.12C8.98453 3.54667 9.08453 3.04 9.28453 2.6C9.48453 2.16 9.7512 1.79333 10.0845 1.5C10.4045 1.22 10.7645 1.00667 11.1645 0.86C11.5779 0.713332 11.9912 0.639999 12.4045 0.639999C12.8179 0.639999 13.2245 0.713332 13.6245 0.86C14.0379 1.00667 14.4112 1.22 14.7445 1.5C15.0645 1.79333 15.3245 2.16 15.5245 2.6C15.7245 3.04 15.8245 3.54667 15.8245 4.12V4.84H13.7845V4.12C13.7845 3.62667 13.6445 3.26667 13.3645 3.04C13.0979 2.8 12.7779 2.68 12.4045 2.68C12.0312 2.68 11.7045 2.8 11.4245 3.04C11.1579 3.26667 11.0245 3.62667 11.0245 4.12V11.64C11.0245 12.1333 11.1579 12.5 11.4245 12.74C11.7045 12.9667 12.0312 13.08 12.4045 13.08C12.7779 13.08 13.0979 12.9667 13.3645 12.74C13.6445 12.5 13.7845 12.1333 13.7845 11.64V8.96H12.1645V7.16H15.8245V11.64C15.8245 12.24 15.7245 12.7533 15.5245 13.18C15.3245 13.6067 15.0645 13.96 14.7445 14.24C14.4112 14.5333 14.0379 14.7533 13.6245 14.9C13.2245 15.0467 12.8179 15.12 12.4045 15.12C11.9912 15.12 11.5779 15.0467 11.1645 14.9C10.7645 14.7533 10.4045 14.5333 10.0845 14.24C9.7512 13.96 9.48453 13.6067 9.28453 13.18C9.08453 12.7533 8.98453 12.24 8.98453 11.64V4.12ZM17.6202 15V0.76H23.7002V2.68H19.6602V7H23.1802V8.92H19.6602V15H17.6202Z" fill="#958266"/>
</svg>
