<svg width="54" height="15" viewBox="0 0 54 15" fill="none" xmlns="http://www.w3.org/2000/svg">
<path d="M0.46 15V13.96L1.7 13.82V1.6L0.46 1.44V0.4H5.94C7.92667 0.4 9.44667 1.02667 10.5 2.28C11.5533 3.52 12.08 5.32667 12.08 7.7C12.08 10.0733 11.5533 11.8867 10.5 13.14C9.44667 14.38 7.92667 15 5.94 15H0.46ZM3.3 13.9H6.02C7.47333 13.9 8.58 13.3667 9.34 12.3C10.1133 11.2333 10.5 9.7 10.5 7.7C10.5 5.7 10.1133 4.16667 9.34 3.1C8.58 2.03333 7.47333 1.5 6.02 1.5H3.3V13.9ZM13.1987 15V13.96L14.1588 13.82L18.5788 0.4H20.6988L25.1388 13.82L26.0988 13.96V15H24.5388C24.1788 15 23.9388 14.8267 23.8188 14.48L22.5188 10.52H16.7788L15.4788 14.48C15.3588 14.8267 15.1188 15 14.7588 15H13.1987ZM17.1788 9.28H22.1188L19.6988 1.9H19.5988L17.1788 9.28ZM27.5303 15V13.96L28.7703 13.82V1.6L27.5303 1.44V0.4H33.0103C34.997 0.4 36.517 1.02667 37.5703 2.28C38.6236 3.52 39.1503 5.32667 39.1503 7.7C39.1503 10.0733 38.6236 11.8867 37.5703 13.14C36.517 14.38 34.997 15 33.0103 15H27.5303ZM30.3703 13.9H33.0903C34.5436 13.9 35.6503 13.3667 36.4103 12.3C37.1836 11.2333 37.5703 9.7 37.5703 7.7C37.5703 5.7 37.1836 4.16667 36.4103 3.1C35.6503 2.03333 34.5436 1.5 33.0903 1.5H30.3703V13.9ZM40.2691 15V13.96L41.2291 13.82L45.6491 0.4H47.7691L52.2091 13.82L53.1691 13.96V15H51.6091C51.2491 15 51.0091 14.8267 50.8891 14.48L49.5891 10.52H43.8491L42.5491 14.48C42.4291 14.8267 42.1891 15 41.8291 15H40.2691ZM44.2491 9.28H49.1891L46.7691 1.9H46.6691L44.2491 9.28Z" fill="#958266"/>
</svg>
