<svg width="64" height="18" viewBox="0 0 64 18" fill="none" xmlns="http://www.w3.org/2000/svg">
<path d="M0.752 18V16.752L2.24 16.584V1.92L0.752 1.728V0.48H7.328C9.712 0.48 11.536 1.232 12.8 2.736C14.064 4.224 14.696 6.392 14.696 9.24C14.696 12.088 14.064 14.264 12.8 15.768C11.536 17.256 9.712 18 7.328 18H0.752ZM4.16 16.68H7.424C9.168 16.68 10.496 16.04 11.408 14.76C12.336 13.48 12.8 11.64 12.8 9.24C12.8 6.84 12.336 5 11.408 3.72C10.496 2.44 9.168 1.8 7.424 1.8H4.16V16.68ZM16.0385 18V16.752L17.1905 16.584L22.4945 0.48H25.0385L30.3665 16.584L31.5185 16.752V18H29.6465C29.2145 18 28.9265 17.792 28.7825 17.376L27.2225 12.624H20.3345L18.7745 17.376C18.6305 17.792 18.3425 18 17.9105 18H16.0385ZM20.8145 11.136H26.7425L23.8385 2.28H23.7185L20.8145 11.136ZM33.2364 18V16.752L34.7244 16.584V1.92L33.2364 1.728V0.48H39.8124C42.1964 0.48 44.0204 1.232 45.2844 2.736C46.5484 4.224 47.1804 6.392 47.1804 9.24C47.1804 12.088 46.5484 14.264 45.2844 15.768C44.0204 17.256 42.1964 18 39.8124 18H33.2364ZM36.6444 16.68H39.9084C41.6524 16.68 42.9804 16.04 43.8924 14.76C44.8204 13.48 45.2844 11.64 45.2844 9.24C45.2844 6.84 44.8204 5 43.8924 3.72C42.9804 2.44 41.6524 1.8 39.9084 1.8H36.6444V16.68ZM48.5229 18V16.752L49.6749 16.584L54.9789 0.48H57.5229L62.8509 16.584L64.0029 16.752V18H62.1309C61.6989 18 61.4109 17.792 61.2669 17.376L59.7069 12.624H52.8189L51.2589 17.376C51.1149 17.792 50.8269 18 50.3949 18H48.5229ZM53.2989 11.136H59.2269L56.3229 2.28H56.2029L53.2989 11.136Z" fill="#958266"/>
</svg>
