<svg xmlns="http://www.w3.org/2000/svg" width="342" height="61" fill="none"><path fill="#958266" d="M.16.137C.07.23 0 10.438 0 22.823v22.502h7.989000000000001l.069-10.919c.069-10.21.091-11.01.503-11.812a5.965 5.965 0 0 1 9.82-1.305c1.695 1.854 1.65 1.396 1.718 13.346l.069 10.69h8.012l-.07-11.4-.068-11.377-.64-1.785c-1.832-5.174-5.998-8.7-11.286-9.546-1.877-.298-4.579.023-6.639.801l-1.465.55-.046-6.227L7.898.114l-3.8-.068C2.014.023.252.069.16.137M71.65 5.723v5.723h-2.975v8.012h2.976v25.866999999999997h8.012V19.458h8.24v-8.012h-8.24V0H71.65zM178.669 10.622c-6.593 1.305-11.721 6.157-13.323 12.613-.595 2.45-.55 7.005.137 9.363.847 3.044 2.152 5.242 4.372 7.462 3.411 3.411 6.57 4.785 11.355 4.99 3.777.138 5.997-.389 8.882-2.128l1.35-.801-.114 2.105c-.138 2.725-.733 4.167-2.289 5.563-1.488 1.35-2.931 1.809-5.678 1.809-1.785.023-2.38-.07-3.296-.504-1.648-.755-2.587-1.534-3.479-2.93l-.802-1.236h-4.67c-2.724 0-4.692.091-4.692.206 0 .572 1.373 4.029 2.083 5.196 1.076 1.831 3.891 4.624 5.814 5.769.893.503 2.427 1.213 3.434 1.556 1.602.55 2.266.641 5.288.733 2.976.069 3.731.023 5.357-.39 5.883-1.487 10.232-5.768 12.041-11.811.389-1.26.412-2.862.48-19.298l.092-17.901h-9.637v2.793l-.779-.573c-1.053-.824-3.228-1.877-4.715-2.312-1.763-.526-5.243-.664-7.211-.274m8.309 9.27a9.13 9.13 0 0 1 4.235 4.327c.641 1.35.733 1.763.71 3.48 0 1.488-.115 2.266-.527 3.273-.732 1.855-2.632 3.846-4.555 4.785-1.419.71-1.671.755-3.937.755-2.129 0-2.541-.069-3.732-.618-2.655-1.236-4.647-3.8-5.219-6.661-.733-3.572 1.282-7.509 4.716-9.249 1.739-.893 2.106-.984 4.578-.915 2.06.068 2.426.137 3.731.824M286.786 10.645c-7.875 1.488-13.644 7.622-14.651 15.589-.458 3.548.343 7.37 2.243 10.827 1.03 1.832 4.441 5.288 6.318 6.41 1.832 1.053 4.716 2.015 7.12 2.312 4.464.595 9.362-.824 12.979-3.754.824-.641 1.969-1.786 2.564-2.541 1.236-1.51 2.907-4.578 2.633-4.83-.092-.092-2.015-.71-4.281-1.35l-4.098-1.214-.686 1.19c-1.672 2.976-5.06 4.602-8.356 4.006-2.861-.503-5.494-2.54-6.73-5.196-.549-1.168-.618-1.557-.618-3.937 0-2.45.046-2.724.664-4.006.87-1.763 2.609-3.503 4.372-4.373 1.236-.595 1.602-.663 3.663-.663s2.403.068 3.502.64c1.465.779 3.045 2.29 3.686 3.549l.48.938 1.534-.458c.87-.229 2.724-.778 4.166-1.167 1.42-.412 2.633-.847 2.702-1.007.137-.367-.916-2.427-2.106-4.098-3.686-5.196-10.805-8.058-17.1-6.867M46.012 10.782c-1.992.297-4.967 1.35-6.547 2.29-4.166 2.494-7.28 7.073-8.24 12.04-1.512 7.943 3.112 16.23 10.758 19.298 4.647 1.877 9.89 1.67 14.307-.55l1.626-.824v2.2889999999999997h8.012v-33.88h-8.012v1.8090000000000002l-1.557-.778c-3.067-1.534-7.05-2.198-10.347-1.694m5.06 8.355c4.99 1.488 7.897 6.8 6.409 11.72-.824 2.77-2.633 4.762-5.403 6.044-.984.458-1.51.527-3.662.527-2.404 0-2.587-.046-4.052-.779-1.877-.938-3.64-2.724-4.487-4.532-.55-1.19-.618-1.58-.618-3.846 0-2.472.023-2.587.87-4.28 2.014-4.121 6.593-6.136 10.942-4.854M103.813 10.782c-3.639.55-6.73 2.083-9.408 4.624-3.777 3.571-5.586 7.692-5.586 12.75 0 4.968 1.877 9.272 5.563 12.728 2.037 1.923 3.64 2.908 6.272 3.823 1.717.595 2.427.71 4.899.801 2.404.092 3.205.023 4.807-.389 3.754-.938 6.982-2.953 9.271-5.723.687-.824 1.236-1.602 1.236-1.717-.022-.206-5.677-3.891-6.409-4.212-.092-.045-.778.55-1.511 1.282-.755.756-1.946 1.626-2.724 2.015-1.259.618-1.58.664-3.915.664-2.449 0-2.563-.023-4.257-.87-1.763-.847-3.251-2.244-3.984-3.663l-.343-.618h12.842c7.051 0 12.82-.069 12.82-.183 0-.092.114-1.007.228-2.06.413-3.25-.457-7.554-2.151-10.576-2.175-3.892-6.41-7.12-10.782-8.241-2.083-.527-5.059-.733-6.868-.435m6.41 8.79c1.442.687 3.571 2.633 4.304 3.96l.412.733h-8.585c-4.738 0-8.607-.091-8.607-.183 0-.435 1.488-2.404 2.381-3.113 2.083-1.694 3.708-2.22 6.547-2.13 1.808.07 2.403.207 3.548.733M142.66 10.782c-2.06.252-5.082 1.259-6.844 2.29-1.694 1.006-4.991 4.303-5.998 5.974-1.9 3.273-2.632 6.203-2.472 9.912.137 2.907.641 4.807 2.06 7.554 1.259 2.45 4.578 5.815 6.913 7.028 5.494 2.815 11.194 2.907 16.414.297l1.556-.778v2.266h8.012v-33.88h-8.012v.94c0 .503-.069.892-.16.846-4.418-2.22-7.623-2.907-11.469-2.45m5.952 8.836c2.953 1.396 4.922 3.937 5.471 7.096.687 3.938-1.534 8.15-5.265 9.981-1.419.687-1.648.733-4.029.733-2.289 0-2.632-.069-3.823-.641-6.73-3.297-7.485-12.27-1.35-16.46 2.518-1.762 6.157-2.037 8.996-.709M218.958 10.782c-6.616 1.007-11.95 5.471-14.147 11.812-.572 1.671-.71 2.472-.801 4.761-.206 5.54 1.51 9.752 5.494 13.506 2.06 1.946 3.662 2.93 6.295 3.846 1.717.595 2.426.71 4.899.801 2.38.092 3.204.023 4.807-.389 3.777-.938 7.394-3.227 9.569-6.066.869-1.122.961-1.35.686-1.625-.32-.298-6.089-4.006-6.249-4.006-.069 0-.71.595-1.442 1.327-.756.756-1.923 1.626-2.702 2.015-1.259.618-1.579.664-3.891.664-2.335 0-2.633-.046-4.006-.71-1.809-.847-3.045-1.9-3.937-3.296l-.664-1.03 12.773-.115 12.751-.114.183-.802c.114-.434.206-1.877.206-3.204.046-9.386-7.096-16.917-16.551-17.49-1.053-.068-2.518-.022-3.273.115m5.173 8.355c2.198.641 4.35 2.335 5.54 4.418l.412.71h-8.584c-4.739 0-8.607-.091-8.607-.183 0-.114.32-.687.709-1.282 1.122-1.671 2.976-3.022 5.128-3.708 1.282-.412 3.937-.39 5.402.045M241.506 28.157v17.168h8.012V34.498c0-10.37.023-10.851.481-11.835 2.083-4.625 8.63-4.693 10.85-.138l.596 1.236.045 10.714.046 10.736 4.075.069 4.075.045-.092-11.377c-.069-9.775-.137-11.583-.458-12.659a14.38 14.38 0 0 0-9.202-9.523c-3.068-1.053-6.433-.893-10.073.504-.251.114-.343-.023-.343-.572v-.71h-8.012zM304.778 11.377c.092.229 3.251 7.966 7.051 17.192l6.89 16.78-2.586 6.546c-1.42 3.594-2.633 6.73-2.702 6.982-.091.412.092.412 4.785.366l4.898-.068 9.432-23.9C337.742 22.114 342 11.286 342 11.172c0-.091-2.243-.183-4.99-.183h-4.968l-2.838 7.714c-5.998 16.414-5.563 15.292-5.861 14.697-.16-.298-2.151-5.471-4.463-11.492l-4.19-10.92h-5.013c-4.693 0-5.036.024-4.899.39"/></svg>