<svg width="108" height="19" viewBox="0 0 108 19" fill="none" xmlns="http://www.w3.org/2000/svg">
<path d="M14.528 1.2V18H11.216L3.872 6.336V18H0.632V1.2H3.92L11.288 12.864V1.2H14.528ZM23.0923 18.168C21.8923 18.168 20.8363 17.904 19.9243 17.376C19.0123 16.848 18.3003 16.112 17.7883 15.168C17.2923 14.224 17.0443 13.136 17.0443 11.904C17.0443 10.72 17.2923 9.672 17.7883 8.76C18.2843 7.848 18.9723 7.136 19.8523 6.624C20.7483 6.096 21.7643 5.832 22.9003 5.832C24.0523 5.832 25.0683 6.08 25.9483 6.576C26.8283 7.072 27.5083 7.768 27.9883 8.664C28.4843 9.544 28.7323 10.576 28.7323 11.76C28.7323 11.936 28.7163 12.136 28.6843 12.36C28.6683 12.568 28.6443 12.792 28.6123 13.032H20.3563C20.4203 13.544 20.5803 13.984 20.8363 14.352C21.1083 14.704 21.4363 14.984 21.8203 15.192C22.2203 15.384 22.6683 15.48 23.1643 15.48C23.7563 15.48 24.2843 15.36 24.7483 15.12C25.2283 14.864 25.5723 14.536 25.7803 14.136L28.5163 14.952C28.0363 15.976 27.3163 16.768 26.3563 17.328C25.4123 17.888 24.3243 18.168 23.0923 18.168ZM25.3723 10.8C25.3563 10.352 25.2363 9.952 25.0123 9.6C24.7883 9.232 24.4923 8.952 24.1243 8.76C23.7563 8.552 23.3483 8.448 22.9003 8.448C22.5003 8.448 22.1243 8.552 21.7723 8.76C21.4203 8.968 21.1163 9.248 20.8603 9.6C20.6203 9.936 20.4603 10.336 20.3803 10.8H25.3723ZM31.0739 6H33.8579L34.0739 7.224C34.4579 6.792 34.9219 6.456 35.4659 6.216C36.0259 5.96 36.6259 5.832 37.2659 5.832C38.2099 5.832 39.0099 6.032 39.6659 6.432C40.3379 6.832 40.8499 7.416 41.2019 8.184C41.5699 8.936 41.7539 9.872 41.7539 10.992V18H38.6579V11.4C38.6579 10.472 38.4739 9.776 38.1059 9.312C37.7379 8.848 37.1859 8.616 36.4499 8.616C35.6979 8.616 35.1219 8.856 34.7219 9.336C34.3379 9.8 34.1459 10.496 34.1459 11.424V18H31.0739V6ZM51.5831 18L51.3431 16.536C50.9431 17.032 50.4871 17.424 49.9751 17.712C49.4791 18 48.8071 18.144 47.9591 18.144C47.1591 18.144 46.4551 18.008 45.8471 17.736C45.2551 17.448 44.7911 17.056 44.4551 16.56C44.1191 16.048 43.9511 15.448 43.9511 14.76C43.9511 13.752 44.3111 12.92 45.0311 12.264C45.7671 11.592 46.8711 11.168 48.3431 10.992L51.3431 10.656V9.816C51.3431 9.48 51.1911 9.168 50.8871 8.88C50.5831 8.592 50.1031 8.448 49.4471 8.448C48.8711 8.448 48.3671 8.592 47.9351 8.88C47.5191 9.152 47.2391 9.568 47.0951 10.128L44.4551 9.168C44.7751 8.096 45.3831 7.272 46.2791 6.696C47.1751 6.12 48.2791 5.832 49.5911 5.832C51.1911 5.832 52.3911 6.232 53.1911 7.032C54.0071 7.816 54.4151 8.856 54.4151 10.152V18H51.5831ZM51.3431 12.792L48.7511 13.128C48.2231 13.192 47.8231 13.352 47.5511 13.608C47.2791 13.848 47.1431 14.144 47.1431 14.496C47.1431 14.832 47.2791 15.12 47.5511 15.36C47.8231 15.584 48.2071 15.696 48.7031 15.696C49.2631 15.696 49.7351 15.592 50.1191 15.384C50.5191 15.176 50.8231 14.872 51.0311 14.472C51.2391 14.072 51.3431 13.576 51.3431 12.984V12.792ZM59.3902 14.088C59.4862 14.488 59.6462 14.792 59.8702 15C60.1102 15.208 60.3742 15.36 60.6622 15.456C60.9662 15.536 61.2702 15.576 61.5742 15.576C62.1342 15.576 62.5742 15.472 62.8942 15.264C63.2142 15.04 63.3742 14.76 63.3742 14.424C63.3742 14.136 63.2622 13.912 63.0382 13.752C62.8142 13.576 62.5262 13.448 62.1742 13.368C61.8222 13.272 61.4622 13.176 61.0942 13.08C60.6622 12.968 60.1982 12.848 59.7022 12.72C59.2222 12.576 58.7662 12.376 58.3342 12.12C57.9022 11.864 57.5422 11.536 57.2542 11.136C56.9662 10.72 56.8222 10.2 56.8222 9.576C56.8222 8.84 57.0222 8.192 57.4222 7.632C57.8382 7.072 58.4062 6.632 59.1262 6.312C59.8622 5.992 60.7102 5.832 61.6702 5.832C62.8062 5.832 63.7662 6.072 64.5502 6.552C65.3342 7.032 65.9022 7.72 66.2542 8.616L63.5422 9.384C63.4622 9.16 63.3262 8.976 63.1342 8.832C62.9422 8.688 62.7102 8.584 62.4382 8.52C62.1822 8.456 61.9182 8.424 61.6462 8.424C61.1822 8.424 60.7982 8.52 60.4942 8.712C60.1902 8.888 60.0382 9.136 60.0382 9.456C60.0382 9.648 60.0942 9.808 60.2062 9.936C60.3182 10.048 60.4702 10.144 60.6622 10.224C60.8702 10.304 61.1022 10.376 61.3582 10.44C61.6302 10.504 61.9262 10.576 62.2462 10.656C62.7422 10.784 63.2382 10.936 63.7342 11.112C64.2462 11.272 64.7102 11.48 65.1262 11.736C65.5582 11.992 65.9022 12.336 66.1582 12.768C66.4142 13.2 66.5582 13.744 66.5902 14.4C66.5902 15.104 66.3902 15.744 65.9902 16.32C65.5902 16.88 65.0142 17.328 64.2622 17.664C63.5102 18 62.5982 18.168 61.5262 18.168C60.2782 18.168 59.2142 17.904 58.3342 17.376C57.4702 16.848 56.9022 16.024 56.6302 14.904L59.3902 14.088ZM68.9489 0.719999H72.0209V7.176C72.3889 6.776 72.8449 6.456 73.3889 6.216C73.9489 5.96 74.5729 5.832 75.2609 5.832C76.1729 5.832 76.9649 6.032 77.6369 6.432C78.3249 6.832 78.8529 7.416 79.2209 8.184C79.5889 8.936 79.7729 9.872 79.7729 10.992V18H76.5329V11.4C76.5329 10.472 76.3489 9.776 75.9809 9.312C75.6129 8.848 75.0609 8.616 74.3249 8.616C73.5729 8.616 72.9969 8.872 72.5969 9.384C72.2129 9.88 72.0209 10.592 72.0209 11.52V18H68.9489V0.719999ZM88.0141 18.168C86.8141 18.168 85.7581 17.904 84.8461 17.376C83.9341 16.848 83.2221 16.112 82.7101 15.168C82.2141 14.224 81.9661 13.136 81.9661 11.904C81.9661 10.72 82.2141 9.672 82.7101 8.76C83.2061 7.848 83.8941 7.136 84.7741 6.624C85.6701 6.096 86.6861 5.832 87.8221 5.832C88.9741 5.832 89.9901 6.08 90.8701 6.576C91.7501 7.072 92.4301 7.768 92.9101 8.664C93.4061 9.544 93.6541 10.576 93.6541 11.76C93.6541 11.936 93.6381 12.136 93.6061 12.36C93.5901 12.568 93.5661 12.792 93.5341 13.032H85.2781C85.3421 13.544 85.5021 13.984 85.7581 14.352C86.0301 14.704 86.3581 14.984 86.7421 15.192C87.1421 15.384 87.5901 15.48 88.0861 15.48C88.6781 15.48 89.2061 15.36 89.6701 15.12C90.1501 14.864 90.4941 14.536 90.7021 14.136L93.4381 14.952C92.9581 15.976 92.2381 16.768 91.2781 17.328C90.3341 17.888 89.2461 18.168 88.0141 18.168ZM90.2941 10.8C90.2781 10.352 90.1581 9.952 89.9341 9.6C89.7101 9.232 89.4141 8.952 89.0461 8.76C88.6781 8.552 88.2701 8.448 87.8221 8.448C87.4221 8.448 87.0461 8.552 86.6941 8.76C86.3421 8.968 86.0381 9.248 85.7821 9.6C85.5421 9.936 85.3821 10.336 85.3021 10.8H90.2941ZM98.3238 6L101.18 14.544L104.06 6H107.348L102.884 18H99.4518L95.0118 6H98.3238Z" fill="#958266"/>
</svg>
