<svg width="86" height="16" viewBox="0 0 86 16" fill="none" xmlns="http://www.w3.org/2000/svg">
<path d="M11.4 0.999999V15H9.78L2.3 3.56V15H0.7V0.999999H2.32L9.8 12.42V0.999999H11.4ZM18.4416 15.14C17.5082 15.14 16.6749 14.9133 15.9416 14.46C15.2216 14.0067 14.6549 13.3867 14.2416 12.6C13.8282 11.8133 13.6216 10.9133 13.6216 9.9C13.6216 8.92667 13.8282 8.06 14.2416 7.3C14.6549 6.54 15.2216 5.94667 15.9416 5.52C16.6616 5.08 17.4816 4.86 18.4016 4.86C19.3082 4.86 20.1149 5.06 20.8216 5.46C21.5416 5.86 22.1016 6.41333 22.5016 7.12C22.9016 7.82667 23.0882 8.63333 23.0616 9.54C23.0616 9.68667 23.0549 9.84 23.0416 10C23.0282 10.16 23.0149 10.3333 23.0016 10.52H15.2616C15.2882 11.1467 15.4416 11.7 15.7216 12.18C16.0016 12.66 16.3682 13.04 16.8216 13.32C17.2882 13.5867 17.8149 13.72 18.4016 13.72C19.1749 13.72 19.8282 13.5733 20.3616 13.28C20.9082 12.9867 21.3016 12.5667 21.5416 12.02L22.8416 12.54C22.4416 13.38 21.8616 14.0267 21.1016 14.48C20.3416 14.92 19.4549 15.14 18.4416 15.14ZM21.4216 9.22C21.4349 8.64667 21.3082 8.14 21.0416 7.7C20.7882 7.26 20.4282 6.91333 19.9616 6.66C19.4949 6.40667 18.9549 6.28 18.3416 6.28C17.8082 6.28 17.3216 6.40667 16.8816 6.66C16.4416 6.91333 16.0749 7.26667 15.7816 7.72C15.5016 8.16 15.3349 8.66 15.2816 9.22H21.4216ZM25.1306 5H26.5106L26.5906 6.42C26.9106 5.92667 27.3306 5.54667 27.8506 5.28C28.3706 5 28.9773 4.86 29.6706 4.86C30.4306 4.86 31.0973 5.02667 31.6706 5.36C32.244 5.68 32.6906 6.16667 33.0106 6.82C33.3306 7.46 33.4906 8.26667 33.4906 9.24V15H31.9906V9.42C31.9906 8.38 31.764 7.59333 31.3106 7.06C30.8706 6.51333 30.2306 6.24 29.3906 6.24C28.524 6.24 27.844 6.52667 27.3506 7.1C26.8706 7.67333 26.6306 8.52 26.6306 9.64V15H25.1306V5ZM42.2602 15L42.1402 13.2C41.8602 13.8133 41.4468 14.2933 40.9002 14.64C40.3535 14.9733 39.6602 15.14 38.8202 15.14C38.1002 15.14 37.4868 15.0267 36.9802 14.8C36.4735 14.5733 36.0802 14.2533 35.8002 13.84C35.5335 13.4133 35.4002 12.9133 35.4002 12.34C35.4002 11.5 35.7135 10.8133 36.3402 10.28C36.9668 9.73333 37.8735 9.4 39.0602 9.28L42.1402 8.94V8.14C42.1402 7.58 41.9335 7.13333 41.5202 6.8C41.1068 6.45333 40.5468 6.28 39.8402 6.28C39.1468 6.28 38.5668 6.44 38.1002 6.76C37.6468 7.08 37.3335 7.54 37.1602 8.14L35.8002 7.66C36.0668 6.78 36.5535 6.09333 37.2602 5.6C37.9802 5.10667 38.8535 4.86 39.8802 4.86C41.0668 4.86 41.9868 5.16667 42.6402 5.78C43.3068 6.38 43.6402 7.2 43.6402 8.24V15H42.2602ZM42.1402 10.22L39.0402 10.58C38.3735 10.66 37.8668 10.8467 37.5202 11.14C37.1735 11.42 37.0002 11.7933 37.0002 12.26C37.0002 12.7267 37.1668 13.1 37.5002 13.38C37.8468 13.66 38.3402 13.8 38.9802 13.8C39.7135 13.8 40.3135 13.6533 40.7802 13.36C41.2468 13.0667 41.5868 12.6733 41.8002 12.18C42.0268 11.6733 42.1402 11.1267 42.1402 10.54V10.22ZM46.9866 11.94C47.0666 12.34 47.2132 12.6733 47.4266 12.94C47.6399 13.1933 47.9132 13.3867 48.2466 13.52C48.5932 13.6533 48.9932 13.72 49.4466 13.72C50.1532 13.72 50.6866 13.5867 51.0466 13.32C51.4199 13.04 51.6066 12.6933 51.6066 12.28C51.6066 11.9333 51.4932 11.6533 51.2666 11.44C51.0532 11.2267 50.7666 11.0533 50.4066 10.92C50.0466 10.7733 49.6466 10.6467 49.2066 10.54C48.8599 10.46 48.4866 10.3667 48.0866 10.26C47.6866 10.14 47.3066 9.98 46.9466 9.78C46.5866 9.58 46.2932 9.32 46.0666 9C45.8399 8.68 45.7266 8.26 45.7266 7.74C45.7266 7.16667 45.8799 6.66667 46.1866 6.24C46.5066 5.8 46.9399 5.46 47.4866 5.22C48.0466 4.98 48.6866 4.86 49.4066 4.86C50.2332 4.86 50.9666 5.04 51.6066 5.4C52.2599 5.76 52.7132 6.32 52.9666 7.08L51.5666 7.56C51.4732 7.21333 51.2999 6.94667 51.0466 6.76C50.8066 6.57333 50.5332 6.44667 50.2266 6.38C49.9332 6.31333 49.6399 6.28 49.3466 6.28C48.7466 6.28 48.2599 6.4 47.8866 6.64C47.5266 6.86667 47.3466 7.21333 47.3466 7.68C47.3466 7.93333 47.4066 8.14667 47.5266 8.32C47.6466 8.48 47.8132 8.61333 48.0266 8.72C48.2399 8.82667 48.4932 8.92 48.7866 9C49.0799 9.06667 49.3999 9.14667 49.7466 9.24C50.1332 9.33333 50.5266 9.45333 50.9266 9.6C51.3266 9.73333 51.6999 9.91333 52.0466 10.14C52.3932 10.3533 52.6732 10.6333 52.8866 10.98C53.1132 11.3133 53.2266 11.7333 53.2266 12.24C53.2266 12.8267 53.0666 13.34 52.7466 13.78C52.4266 14.2067 51.9799 14.54 51.4066 14.78C50.8466 15.02 50.1932 15.14 49.4466 15.14C48.4199 15.14 47.5666 14.9133 46.8866 14.46C46.2199 13.9933 45.7732 13.3133 45.5466 12.42L46.9866 11.94ZM55.2588 0.599999H56.7588V6.36C57.0788 5.88 57.5121 5.51333 58.0588 5.26C58.6054 4.99333 59.2188 4.86 59.8988 4.86C60.6321 4.86 61.2854 5.02667 61.8588 5.36C62.4321 5.69333 62.8788 6.18667 63.1988 6.84C63.5321 7.49333 63.6988 8.30667 63.6988 9.28V15H62.0988V9.46C62.0988 8.42 61.8788 7.62667 61.4388 7.08C60.9988 6.52 60.3588 6.24 59.5188 6.24C58.6521 6.24 57.9721 6.53333 57.4788 7.12C56.9988 7.70667 56.7588 8.56 56.7588 9.68V15H55.2588V0.599999ZM70.4064 15.14C69.4731 15.14 68.6397 14.9133 67.9064 14.46C67.1864 14.0067 66.6197 13.3867 66.2064 12.6C65.7931 11.8133 65.5864 10.9133 65.5864 9.9C65.5864 8.92667 65.7931 8.06 66.2064 7.3C66.6197 6.54 67.1864 5.94667 67.9064 5.52C68.6264 5.08 69.4464 4.86 70.3664 4.86C71.2731 4.86 72.0797 5.06 72.7864 5.46C73.5064 5.86 74.0664 6.41333 74.4664 7.12C74.8664 7.82667 75.0531 8.63333 75.0264 9.54C75.0264 9.68667 75.0197 9.84 75.0064 10C74.9931 10.16 74.9797 10.3333 74.9664 10.52H67.2264C67.2531 11.1467 67.4064 11.7 67.6864 12.18C67.9664 12.66 68.3331 13.04 68.7864 13.32C69.2531 13.5867 69.7797 13.72 70.3664 13.72C71.1397 13.72 71.7931 13.5733 72.3264 13.28C72.8731 12.9867 73.2664 12.5667 73.5064 12.02L74.8064 12.54C74.4064 13.38 73.8264 14.0267 73.0664 14.48C72.3064 14.92 71.4197 15.14 70.4064 15.14ZM73.3864 9.22C73.3997 8.64667 73.2731 8.14 73.0064 7.7C72.7531 7.26 72.3931 6.91333 71.9264 6.66C71.4597 6.40667 70.9197 6.28 70.3064 6.28C69.7731 6.28 69.2864 6.40667 68.8464 6.66C68.4064 6.91333 68.0397 7.26667 67.7464 7.72C67.4664 8.16 67.2997 8.66 67.2464 9.22H73.3864ZM77.6755 5L80.8355 13.32L84.0155 5H85.5955L81.5955 15H80.0355L76.0755 5H77.6755Z" fill="#958266"/>
</svg>
