<svg width="98" height="17" viewBox="0 0 98 17" fill="none" xmlns="http://www.w3.org/2000/svg">
<path d="M4.96 1.98C5.77333 1.98 6.48 2.11333 7.08 2.38C7.69333 2.64667 8.26667 3.04667 8.8 3.58L7.86 4.64C7.40667 4.24 6.95333 3.94667 6.5 3.76C6.06 3.56 5.58 3.46 5.06 3.46C4.39333 3.46 3.85333 3.64667 3.44 4.02C3.04 4.38 2.84 4.86 2.84 5.46C2.84 5.86 2.92 6.20667 3.08 6.5C3.24 6.78 3.51333 7.04 3.9 7.28C4.28667 7.50667 4.83333 7.74 5.54 7.98C6.35333 8.27333 7.02 8.58667 7.54 8.92C8.06 9.25333 8.46 9.68 8.74 10.2C9.02 10.72 9.16 11.3733 9.16 12.16C9.16 12.9467 8.98 13.6533 8.62 14.28C8.26 14.8933 7.74 15.38 7.06 15.74C6.39333 16.0867 5.60667 16.26 4.7 16.26C3.03333 16.26 1.61333 15.66 0.44 14.46L1.42 13.4C1.91333 13.84 2.41333 14.18 2.92 14.42C3.44 14.6467 4.01333 14.76 4.64 14.76C5.42667 14.76 6.05333 14.54 6.52 14.1C7 13.6467 7.24 13.0267 7.24 12.24C7.24 11.56 7.04667 11.02 6.66 10.62C6.28667 10.22 5.59333 9.84667 4.58 9.5C3.28667 9.04667 2.35333 8.52 1.78 7.92C1.22 7.32 0.94 6.54 0.94 5.58C0.94 4.9 1.10667 4.28667 1.44 3.74C1.78667 3.18 2.26667 2.74667 2.88 2.44C3.49333 2.13333 4.18667 1.98 4.96 1.98ZM16.5219 15.54C15.8552 16.02 15.1152 16.26 14.3019 16.26C13.4485 16.26 12.7885 16.0133 12.3219 15.52C11.8685 15.0267 11.6419 14.3333 11.6419 13.44V6.84H10.1419V5.48H11.6419V3.06L13.4419 2.84V5.48H15.7619L15.5619 6.84H13.4419V13.42C13.4419 14.3267 13.8219 14.78 14.5819 14.78C14.8085 14.78 15.0152 14.7467 15.2019 14.68C15.4019 14.6133 15.6219 14.5133 15.8619 14.38L16.5219 15.54ZM25.1719 10.42C25.1719 10.7 25.1585 11.0133 25.1319 11.36H19.0119C19.0652 12.5867 19.3119 13.4733 19.7519 14.02C20.1919 14.5533 20.7919 14.82 21.5519 14.82C22.0319 14.82 22.4585 14.7467 22.8319 14.6C23.2185 14.4533 23.6185 14.2133 24.0319 13.88L24.8319 14.94C23.8452 15.82 22.7252 16.26 21.4719 16.26C20.0985 16.26 19.0319 15.7867 18.2719 14.84C17.5252 13.88 17.1519 12.54 17.1519 10.82C17.1519 9.1 17.5119 7.74 18.2319 6.74C18.9519 5.72667 19.9519 5.22 21.2319 5.22C22.4985 5.22 23.4719 5.67333 24.1519 6.58C24.8319 7.47333 25.1719 8.75333 25.1719 10.42ZM23.4319 9.88C23.4319 7.68 22.7052 6.58 21.2519 6.58C20.5852 6.58 20.0585 6.86 19.6719 7.42C19.2852 7.96667 19.0652 8.86 19.0119 10.1H23.4319V9.88ZM31.9947 5.24C32.3414 5.24 32.6414 5.28 32.8947 5.36L32.5947 7.1C32.3414 7.02 32.068 6.98 31.7747 6.98C31.188 6.98 30.708 7.21333 30.3347 7.68C29.9747 8.14667 29.688 8.86 29.4747 9.82V16H27.6747V5.48H29.2347L29.3747 7.56C29.8947 6.01333 30.768 5.24 31.9947 5.24ZM41.4609 10.42C41.4609 10.7 41.4476 11.0133 41.4209 11.36H35.3009C35.3543 12.5867 35.6009 13.4733 36.0409 14.02C36.4809 14.5533 37.0809 14.82 37.8409 14.82C38.3209 14.82 38.7476 14.7467 39.1209 14.6C39.5076 14.4533 39.9076 14.2133 40.3209 13.88L41.1209 14.94C40.1343 15.82 39.0143 16.26 37.7609 16.26C36.3876 16.26 35.3209 15.7867 34.5609 14.84C33.8143 13.88 33.4409 12.54 33.4409 10.82C33.4409 9.1 33.8009 7.74 34.5209 6.74C35.2409 5.72667 36.2409 5.22 37.5209 5.22C38.7876 5.22 39.7609 5.67333 40.4409 6.58C41.1209 7.47333 41.4609 8.75333 41.4609 10.42ZM39.7209 9.88C39.7209 7.68 38.9943 6.58 37.5409 6.58C36.8743 6.58 36.3476 6.86 35.9609 7.42C35.5743 7.96667 35.3543 8.86 35.3009 10.1H39.7209V9.88ZM47.6237 5.22C48.9704 5.22 50.0171 5.69333 50.7638 6.64C51.5104 7.58667 51.8838 8.94667 51.8838 10.72C51.8838 12.4267 51.5038 13.78 50.7438 14.78C49.9838 15.7667 48.9371 16.26 47.6038 16.26C46.2571 16.26 45.2038 15.7733 44.4438 14.8C43.6971 13.8267 43.3238 12.4733 43.3238 10.74C43.3238 8.99333 43.7038 7.64 44.4638 6.68C45.2238 5.70667 46.2771 5.22 47.6237 5.22ZM47.6237 6.66C46.8371 6.66 46.2371 6.99333 45.8238 7.66C45.4104 8.31333 45.2038 9.34 45.2038 10.74C45.2038 13.4733 46.0038 14.84 47.6038 14.84C49.2038 14.84 50.0038 13.4667 50.0038 10.72C50.0038 9.32 49.8038 8.29333 49.4038 7.64C49.0038 6.98667 48.4104 6.66 47.6237 6.66ZM59.4711 15.54C58.8044 16.02 58.0644 16.26 57.2511 16.26C56.3978 16.26 55.7378 16.0133 55.2711 15.52C54.8178 15.0267 54.5911 14.3333 54.5911 13.44V6.84H53.0911V5.48H54.5911V3.06L56.3911 2.84V5.48H58.7111L58.5111 6.84H56.3911V13.42C56.3911 14.3267 56.7711 14.78 57.5311 14.78C57.7578 14.78 57.9644 14.7467 58.1511 14.68C58.3511 14.6133 58.5711 14.5133 58.8111 14.38L59.4711 15.54ZM67.4573 13.6C67.4573 14.0267 67.5173 14.3467 67.6373 14.56C67.7573 14.76 67.944 14.9133 68.1973 15.02L67.8173 16.24C67.2973 16.16 66.8907 16 66.5973 15.76C66.304 15.52 66.0973 15.1533 65.9773 14.66C65.2973 15.7267 64.344 16.26 63.1173 16.26C62.184 16.26 61.444 15.9733 60.8973 15.4C60.3507 14.8133 60.0773 14.0333 60.0773 13.06C60.0773 11.94 60.444 11.0867 61.1773 10.5C61.9107 9.91333 62.9573 9.62 64.3173 9.62H65.6773V8.72C65.6773 7.98667 65.524 7.46 65.2173 7.14C64.924 6.80667 64.4373 6.64 63.7573 6.64C63.024 6.64 62.1707 6.82667 61.1973 7.2L60.7573 5.94C61.9307 5.46 63.024 5.22 64.0373 5.22C66.3173 5.22 67.4573 6.36 67.4573 8.64V13.6ZM63.5373 14.9C64.4707 14.9 65.184 14.3533 65.6773 13.26V10.78H64.5173C62.784 10.78 61.9173 11.5067 61.9173 12.96C61.9173 13.5867 62.0573 14.0667 62.3373 14.4C62.6173 14.7333 63.0173 14.9 63.5373 14.9ZM74.362 5.22C74.922 5.22 75.4354 5.31333 75.902 5.5C76.3687 5.68667 76.8154 5.97333 77.242 6.36L76.442 7.44C76.122 7.18667 75.802 7 75.482 6.88C75.162 6.74667 74.8154 6.68 74.442 6.68C73.6554 6.68 73.042 7.01333 72.602 7.68C72.1754 8.34667 71.962 9.38667 71.962 10.8C71.962 13.44 72.7887 14.76 74.442 14.76C74.8154 14.76 75.1554 14.7 75.462 14.58C75.7687 14.4467 76.0954 14.2533 76.442 14L77.282 15.1C76.4287 15.8733 75.462 16.26 74.382 16.26C73.0354 16.26 71.9754 15.7933 71.202 14.86C70.442 13.9267 70.062 12.58 70.062 10.82C70.062 9.67333 70.2354 8.68 70.582 7.84C70.942 7 71.442 6.35333 72.082 5.9C72.7354 5.44667 73.4954 5.22 74.362 5.22ZM84.2367 15.54C83.5701 16.02 82.8301 16.26 82.0167 16.26C81.1634 16.26 80.5034 16.0133 80.0367 15.52C79.5834 15.0267 79.3567 14.3333 79.3567 13.44V6.84H77.8567V5.48H79.3567V3.06L81.1567 2.84V5.48H83.4767L83.2767 6.84H81.1567V13.42C81.1567 14.3267 81.5367 14.78 82.2967 14.78C82.5234 14.78 82.7301 14.7467 82.9167 14.68C83.1167 14.6133 83.3367 14.5133 83.5767 14.38L84.2367 15.54ZM87.5997 5.48V16H85.7997V5.48H87.5997ZM86.6997 0.519999C87.0464 0.519999 87.3264 0.633332 87.5397 0.859999C87.7664 1.08667 87.8797 1.36667 87.8797 1.7C87.8797 2.03333 87.773 2.31333 87.5597 2.54C87.3464 2.75333 87.0597 2.86 86.6997 2.86C86.353 2.86 86.0664 2.75333 85.8397 2.54C85.6264 2.31333 85.5197 2.03333 85.5197 1.7C85.5197 1.36667 85.6264 1.08667 85.8397 0.859999C86.0664 0.633332 86.353 0.519999 86.6997 0.519999ZM94.4987 5.22C95.0588 5.22 95.5721 5.31333 96.0388 5.5C96.5054 5.68667 96.9521 5.97333 97.3788 6.36L96.5788 7.44C96.2588 7.18667 95.9388 7 95.6188 6.88C95.2988 6.74667 94.9521 6.68 94.5788 6.68C93.7921 6.68 93.1788 7.01333 92.7388 7.68C92.3121 8.34667 92.0988 9.38667 92.0988 10.8C92.0988 13.44 92.9254 14.76 94.5788 14.76C94.9521 14.76 95.2921 14.7 95.5988 14.58C95.9054 14.4467 96.2321 14.2533 96.5788 14L97.4188 15.1C96.5654 15.8733 95.5988 16.26 94.5188 16.26C93.1721 16.26 92.1121 15.7933 91.3388 14.86C90.5788 13.9267 90.1988 12.58 90.1988 10.82C90.1988 9.67333 90.3721 8.68 90.7188 7.84C91.0788 7 91.5788 6.35333 92.2188 5.9C92.8721 5.44667 93.6321 5.22 94.4987 5.22Z" fill="#958266"/>
</svg>
