<svg width="120" height="21" viewBox="0 0 120 21" fill="none" xmlns="http://www.w3.org/2000/svg">
<path d="M6.12 3.056C7.176 3.056 8.096 3.224 8.88 3.56C9.68 3.896 10.416 4.408 11.088 5.096L9.6 6.8C9.072 6.336 8.544 5.992 8.016 5.768C7.488 5.544 6.92 5.432 6.312 5.432C5.64 5.432 5.096 5.608 4.68 5.96C4.28 6.312 4.08 6.8 4.08 7.424C4.08 7.84 4.16 8.192 4.32 8.48C4.496 8.768 4.8 9.04 5.232 9.296C5.664 9.536 6.288 9.8 7.104 10.088C8.592 10.632 9.696 11.28 10.416 12.032C11.152 12.784 11.52 13.864 11.52 15.272C11.52 16.248 11.288 17.12 10.824 17.888C10.36 18.656 9.688 19.264 8.808 19.712C7.944 20.144 6.928 20.36 5.76 20.36C3.568 20.36 1.736 19.608 0.264 18.104L1.848 16.352C2.456 16.88 3.056 17.28 3.648 17.552C4.256 17.824 4.92 17.96 5.64 17.96C6.456 17.96 7.096 17.736 7.56 17.288C8.04 16.84 8.28 16.224 8.28 15.44C8.28 14.736 8.08 14.184 7.68 13.784C7.28 13.368 6.52 12.968 5.4 12.584C3.8 12.024 2.648 11.36 1.944 10.592C1.24 9.824 0.888 8.84 0.888 7.64C0.888 6.76 1.112 5.976 1.56 5.288C2.008 4.584 2.632 4.04 3.432 3.656C4.232 3.256 5.128 3.056 6.12 3.056ZM20.5161 19.4C20.1001 19.72 19.6361 19.96 19.1241 20.12C18.6281 20.28 18.1161 20.36 17.5881 20.36C16.4201 20.36 15.5241 20.024 14.9001 19.352C14.2921 18.68 13.9881 17.744 13.9881 16.544V9.464H12.2841V7.304H13.9881V4.496L16.9881 4.136V7.304H19.6521L19.3401 9.464H16.9881V16.52C16.9881 17 17.0761 17.36 17.2521 17.6C17.4441 17.824 17.7401 17.936 18.1401 17.936C18.5721 17.936 19.0121 17.8 19.4601 17.528L20.5161 19.4ZM31.2008 13.352C31.2008 13.496 31.1768 13.904 31.1288 14.576H23.9528C24.0488 15.856 24.3208 16.76 24.7688 17.288C25.2168 17.816 25.8408 18.08 26.6408 18.08C27.1528 18.08 27.6328 17.992 28.0808 17.816C28.5288 17.64 29.0088 17.368 29.5208 17L30.7688 18.704C29.5048 19.808 28.0568 20.36 26.4248 20.36C24.6488 20.36 23.2808 19.776 22.3208 18.608C21.3608 17.44 20.8808 15.816 20.8808 13.736C20.8808 11.688 21.3368 10.048 22.2488 8.816C23.1768 7.568 24.4648 6.944 26.1128 6.944C27.7128 6.944 28.9608 7.496 29.8568 8.6C30.7528 9.704 31.2008 11.288 31.2008 13.352ZM28.2488 12.488C28.2488 11.336 28.0808 10.48 27.7448 9.92C27.4088 9.344 26.8728 9.056 26.1367 9.056C25.4648 9.056 24.9448 9.336 24.5768 9.896C24.2248 10.44 24.0168 11.352 23.9528 12.632H28.2488V12.488ZM39.4562 6.968C39.7922 6.968 40.1682 7.024 40.5842 7.136L40.0802 10.04C39.7442 9.944 39.4082 9.896 39.0722 9.896C38.4002 9.896 37.8642 10.16 37.4642 10.688C37.0802 11.216 36.7842 12.016 36.5762 13.088V20H33.5762V7.304H36.1922L36.4322 9.656C36.7362 8.776 37.1442 8.112 37.6562 7.664C38.1682 7.2 38.7682 6.968 39.4562 6.968ZM51.1695 13.352C51.1695 13.496 51.1455 13.904 51.0975 14.576H43.9215C44.0175 15.856 44.2895 16.76 44.7375 17.288C45.1855 17.816 45.8095 18.08 46.6095 18.08C47.1215 18.08 47.6015 17.992 48.0495 17.816C48.4975 17.64 48.9775 17.368 49.4895 17L50.7375 18.704C49.4735 19.808 48.0255 20.36 46.3935 20.36C44.6175 20.36 43.2495 19.776 42.2895 18.608C41.3295 17.44 40.8495 15.816 40.8495 13.736C40.8495 11.688 41.3055 10.048 42.2175 8.816C43.1455 7.568 44.4335 6.944 46.0815 6.944C47.6815 6.944 48.9295 7.496 49.8255 8.6C50.7215 9.704 51.1695 11.288 51.1695 13.352ZM48.2175 12.488C48.2175 11.336 48.0495 10.48 47.7135 9.92C47.3775 9.344 46.8415 9.056 46.1055 9.056C45.4335 9.056 44.9135 9.336 44.5455 9.896C44.1935 10.44 43.9855 11.352 43.9215 12.632H48.2175V12.488ZM58.3449 6.944C60.0569 6.944 61.3929 7.52 62.3529 8.672C63.3129 9.824 63.7929 11.48 63.7929 13.64C63.7929 15.72 63.3049 17.36 62.3289 18.56C61.3689 19.76 60.0409 20.36 58.3449 20.36C56.6329 20.36 55.2889 19.776 54.3129 18.608C53.3529 17.424 52.8729 15.768 52.8729 13.64C52.8729 11.544 53.3529 9.904 54.3129 8.72C55.2889 7.536 56.6329 6.944 58.3449 6.944ZM58.3449 9.224C57.5609 9.224 56.9769 9.576 56.5929 10.28C56.2089 10.968 56.0169 12.088 56.0169 13.64C56.0169 15.208 56.2089 16.344 56.5929 17.048C56.9769 17.736 57.5609 18.08 58.3449 18.08C59.1289 18.08 59.7129 17.728 60.0969 17.024C60.4809 16.32 60.6729 15.192 60.6729 13.64C60.6729 12.072 60.4809 10.944 60.0969 10.256C59.7129 9.568 59.1289 9.224 58.3449 9.224ZM73.0864 19.4C72.6704 19.72 72.2064 19.96 71.6944 20.12C71.1984 20.28 70.6864 20.36 70.1584 20.36C68.9904 20.36 68.0944 20.024 67.4704 19.352C66.8624 18.68 66.5584 17.744 66.5584 16.544V9.464H64.8544V7.304H66.5584V4.496L69.5584 4.136V7.304H72.2224L71.9104 9.464H69.5584V16.52C69.5584 17 69.6464 17.36 69.8224 17.6C70.0144 17.824 70.3104 17.936 70.7104 17.936C71.1424 17.936 71.5824 17.8 72.0304 17.528L73.0864 19.4ZM82.9986 16.808C82.9986 17.256 83.0626 17.592 83.1906 17.816C83.3186 18.024 83.5266 18.192 83.8146 18.32L83.1906 20.312C82.5026 20.232 81.9426 20.056 81.5106 19.784C81.0946 19.512 80.7826 19.088 80.5746 18.512C79.7906 19.744 78.6546 20.36 77.1666 20.36C76.0306 20.36 75.1266 20 74.4546 19.28C73.7826 18.56 73.4466 17.616 73.4466 16.448C73.4466 15.072 73.9026 14.024 74.8146 13.304C75.7266 12.568 77.0466 12.2 78.7746 12.2H80.0466V11.408C80.0466 10.608 79.8866 10.04 79.5666 9.704C79.2466 9.368 78.7266 9.2 78.0066 9.2C77.1746 9.2 76.1506 9.416 74.9346 9.848L74.2386 7.856C75.6946 7.248 77.1106 6.944 78.4866 6.944C81.4946 6.944 82.9986 8.376 82.9986 11.24V16.808ZM77.9826 18.176C78.8626 18.176 79.5506 17.656 80.0466 16.616V13.976H79.0866C77.3266 13.976 76.4466 14.728 76.4466 16.232C76.4466 16.872 76.5826 17.36 76.8546 17.696C77.1266 18.016 77.5026 18.176 77.9826 18.176ZM90.9934 6.944C91.7454 6.944 92.4254 7.064 93.0334 7.304C93.6414 7.544 94.2174 7.912 94.7614 8.408L93.4414 10.16C92.7214 9.584 91.9694 9.296 91.1854 9.296C90.3694 9.296 89.7454 9.648 89.3134 10.352C88.8974 11.04 88.6894 12.16 88.6894 13.712C88.6894 15.248 88.8974 16.336 89.3134 16.976C89.7454 17.616 90.3694 17.936 91.1854 17.936C91.5854 17.936 91.9534 17.872 92.2894 17.744C92.6254 17.6 93.0014 17.384 93.4174 17.096L94.7614 18.896C93.6574 19.872 92.4174 20.36 91.0414 20.36C89.3134 20.36 87.9614 19.792 86.9854 18.656C86.0094 17.504 85.5214 15.872 85.5214 13.76C85.5214 12.384 85.7454 11.184 86.1934 10.16C86.6414 9.12 87.2734 8.328 88.0894 7.784C88.9214 7.224 89.8894 6.944 90.9934 6.944ZM103.344 19.4C102.928 19.72 102.464 19.96 101.952 20.12C101.456 20.28 100.944 20.36 100.416 20.36C99.2482 20.36 98.3522 20.024 97.7282 19.352C97.1202 18.68 96.8162 17.744 96.8162 16.544V9.464H95.1122V7.304H96.8162V4.496L99.8162 4.136V7.304H102.48L102.168 9.464H99.8162V16.52C99.8162 17 99.9042 17.36 100.08 17.6C100.272 17.824 100.568 17.936 100.968 17.936C101.4 17.936 101.84 17.8 102.288 17.528L103.344 19.4ZM107.779 7.304V20H104.779V7.304H107.779ZM106.291 0.92C106.835 0.92 107.275 1.096 107.611 1.448C107.963 1.784 108.139 2.216 108.139 2.744C108.139 3.272 107.963 3.712 107.611 4.064C107.275 4.4 106.835 4.568 106.291 4.568C105.747 4.568 105.299 4.4 104.947 4.064C104.611 3.712 104.443 3.272 104.443 2.744C104.443 2.216 104.611 1.784 104.947 1.448C105.299 1.096 105.747 0.92 106.291 0.92ZM115.743 6.944C116.495 6.944 117.175 7.064 117.783 7.304C118.391 7.544 118.967 7.912 119.511 8.408L118.191 10.16C117.471 9.584 116.719 9.296 115.935 9.296C115.119 9.296 114.495 9.648 114.063 10.352C113.647 11.04 113.439 12.16 113.439 13.712C113.439 15.248 113.647 16.336 114.063 16.976C114.495 17.616 115.119 17.936 115.935 17.936C116.335 17.936 116.703 17.872 117.039 17.744C117.375 17.6 117.751 17.384 118.167 17.096L119.511 18.896C118.407 19.872 117.167 20.36 115.791 20.36C114.063 20.36 112.711 19.792 111.735 18.656C110.759 17.504 110.271 15.872 110.271 13.76C110.271 12.384 110.495 11.184 110.943 10.16C111.391 9.12 112.023 8.328 112.839 7.784C113.671 7.224 114.639 6.944 115.743 6.944Z" fill="#958266"/>
</svg>
