<svg width="94" height="15" viewBox="0 0 94 15" fill="none" xmlns="http://www.w3.org/2000/svg">
<path d="M0.390625 14V13.2188L7.63672 2.33984H0.390625V0.777344H10.1953V1.46094L2.87109 12.4375H10.1953V14H0.390625ZM13.125 7.94531H18.6328C18.6068 7.20312 18.3789 6.59766 17.9492 6.12891C17.5326 5.64714 16.875 5.40625 15.9766 5.40625C15.1172 5.40625 14.4336 5.65365 13.9258 6.14844C13.418 6.64323 13.151 7.24219 13.125 7.94531ZM12.6367 12.7695C11.7904 11.819 11.3672 10.582 11.3672 9.05859C11.3672 7.53516 11.7773 6.31771 12.5977 5.40625C13.418 4.49479 14.5443 4.03906 15.9766 4.03906C17.3698 4.03906 18.444 4.46224 19.1992 5.30859C19.9544 6.15495 20.332 7.25521 20.332 8.60938V9.21484H13.0469C13.0729 10.3607 13.3464 11.2526 13.8672 11.8906C14.401 12.5156 15.1302 12.8281 16.0547 12.8281C17.0182 12.8281 17.7083 12.5547 18.125 12.0078C18.3724 11.6693 18.4961 11.3242 18.4961 10.9727H20.1562C20.1562 11.5456 19.9544 12.1185 19.5508 12.6914C18.8477 13.694 17.6823 14.1953 16.0547 14.1953C14.6224 14.1953 13.4831 13.7201 12.6367 12.7695ZM24.043 9.11719C24.043 10.1979 24.2708 11.0898 24.7266 11.793C25.1953 12.4831 25.8854 12.8281 26.7969 12.8281C27.6172 12.8281 28.2943 12.4831 28.8281 11.793C29.362 11.1029 29.6289 10.2109 29.6289 9.11719C29.6289 8.01042 29.3685 7.11849 28.8477 6.44141C28.3398 5.7513 27.6562 5.40625 26.7969 5.40625C25.9245 5.40625 25.2539 5.76432 24.7852 6.48047C24.3164 7.18359 24.069 8.01693 24.043 8.98047V9.11719ZM22.4805 14V0.777344H24.043V5.71875C24.7461 4.59896 25.7357 4.03906 27.0117 4.03906C28.2617 4.03906 29.2904 4.51432 30.0977 5.46484C30.9049 6.40234 31.3086 7.61979 31.3086 9.11719C31.3086 10.6016 30.8984 11.819 30.0781 12.7695C29.2578 13.7201 28.2357 14.1953 27.0117 14.1953C25.7096 14.1953 24.7005 13.6224 23.9844 12.4766L23.8477 14H22.4805ZM33.457 14V4.23438H34.8242L34.9609 5.71875C35.5859 4.72917 36.5169 4.23438 37.7539 4.23438H38.1445V5.60156H37.7539C35.9831 5.60156 35.0716 6.69531 35.0195 8.88281V14H33.457ZM41.3672 6.40234C40.8594 7.06641 40.6055 7.95182 40.6055 9.05859C40.6055 10.1654 40.8594 11.0703 41.3672 11.7734C41.888 12.4766 42.5781 12.8281 43.4375 12.8281C44.2708 12.8281 44.9284 12.4961 45.4102 11.832C45.9049 11.168 46.1654 10.3021 46.1914 9.23438V9.05859C46.1914 7.95182 45.944 7.06641 45.4492 6.40234C44.9674 5.73828 44.2969 5.40625 43.4375 5.40625C42.5781 5.40625 41.888 5.73828 41.3672 6.40234ZM40.1367 12.75C39.3294 11.7865 38.9258 10.556 38.9258 9.05859C38.9258 7.5612 39.3229 6.35026 40.1172 5.42578C40.9245 4.5013 41.9596 4.03906 43.2227 4.03906C44.4857 4.03906 45.4883 4.63802 46.2305 5.83594L46.3867 4.23438H47.7539V14H46.3867L46.2109 12.3398C45.4557 13.5768 44.4596 14.1953 43.2227 14.1953C41.9727 14.1953 40.944 13.7135 40.1367 12.75ZM55.5664 14V0.777344H57.2266V6.22656H64.1602V0.777344H65.8203V14H64.1602V7.78906H57.2266V14H55.5664ZM69.7266 7.94531H75.2344C75.2083 7.20312 74.9805 6.59766 74.5508 6.12891C74.1341 5.64714 73.4766 5.40625 72.5781 5.40625C71.7188 5.40625 71.0352 5.65365 70.5273 6.14844C70.0195 6.64323 69.7526 7.24219 69.7266 7.94531ZM69.2383 12.7695C68.3919 11.819 67.9688 10.582 67.9688 9.05859C67.9688 7.53516 68.3789 6.31771 69.1992 5.40625C70.0195 4.49479 71.1458 4.03906 72.5781 4.03906C73.9714 4.03906 75.0456 4.46224 75.8008 5.30859C76.556 6.15495 76.9336 7.25521 76.9336 8.60938V9.21484H69.6484C69.6745 10.3607 69.9479 11.2526 70.4688 11.8906C71.0026 12.5156 71.7318 12.8281 72.6562 12.8281C73.6198 12.8281 74.3099 12.5547 74.7266 12.0078C74.974 11.6693 75.0977 11.3242 75.0977 10.9727H76.7578C76.7578 11.5456 76.556 12.1185 76.1523 12.6914C75.4492 13.694 74.2839 14.1953 72.6562 14.1953C71.224 14.1953 70.0846 13.7201 69.2383 12.7695ZM79.082 14V4.23438H80.4492L80.5859 5.71875C81.2109 4.72917 82.1419 4.23438 83.3789 4.23438H83.7695V5.60156H83.3789C81.6081 5.60156 80.6966 6.69531 80.6445 8.88281V14H79.082ZM86.2109 9.05859C86.2109 10.1654 86.4844 11.0703 87.0312 11.7734C87.5911 12.4766 88.3268 12.8281 89.2383 12.8281C90.1497 12.8281 90.8789 12.4766 91.4258 11.7734C91.9857 11.0703 92.2656 10.1654 92.2656 9.05859C92.2656 7.96484 91.9922 7.08594 91.4453 6.42188C90.8984 5.74479 90.1628 5.40625 89.2383 5.40625C88.3138 5.40625 87.5781 5.74479 87.0312 6.42188C86.4844 7.08594 86.2109 7.96484 86.2109 9.05859ZM85.8398 12.7695C84.9805 11.806 84.5508 10.569 84.5508 9.05859C84.5508 7.54818 84.974 6.33724 85.8203 5.42578C86.6797 4.5013 87.819 4.03906 89.2383 4.03906C90.6576 4.03906 91.7904 4.5013 92.6367 5.42578C93.4961 6.33724 93.9258 7.54818 93.9258 9.05859C93.9258 10.569 93.4961 11.806 92.6367 12.7695C91.7773 13.7201 90.6445 14.1953 89.2383 14.1953C87.832 14.1953 86.6992 13.7201 85.8398 12.7695Z" fill="#958266"/>
</svg>
