<svg width="125" height="17" viewBox="0 0 125 17" fill="none" xmlns="http://www.w3.org/2000/svg">
<path d="M0.46875 16V14.5938L8.36719 2.94531H0.46875V0.132812H13.1719V1.42188L5.17969 13.1875H13.1719V16H0.46875ZM18.0469 8.73438H23.0859C23.0703 8.0625 22.8438 7.50781 22.4062 7.07031C21.9844 6.61719 21.3828 6.39062 20.6016 6.39062C19.8203 6.39062 19.2031 6.61719 18.75 7.07031C18.2969 7.50781 18.0625 8.0625 18.0469 8.73438ZM16.3359 14.6406C15.1641 13.4844 14.5781 11.9609 14.5781 10.0703C14.5781 8.17969 15.1406 6.6875 16.2656 5.59375C17.3906 4.48438 18.8359 3.92969 20.6016 3.92969C22.3203 3.92969 23.7188 4.48438 24.7969 5.59375C25.875 6.70312 26.4141 8.09375 26.4141 9.76562V10.7266H18.0469C18.0625 11.5703 18.3125 12.2734 18.7969 12.8359C19.2969 13.3828 19.9453 13.6562 20.7422 13.6562C21.6016 13.6562 22.2188 13.4141 22.5938 12.9297C22.8125 12.6484 22.9219 12.3828 22.9219 12.1328H26.3203C26.3203 12.8828 26.0391 13.6094 25.4766 14.3125C24.3984 15.6719 22.8203 16.3516 20.7422 16.3516C18.9766 16.3516 17.5078 15.7812 16.3359 14.6406ZM32.2734 10.1406C32.2734 11.2031 32.5 12.0547 32.9531 12.6953C33.4062 13.3359 34.0469 13.6562 34.875 13.6562C35.7188 13.6562 36.375 13.3359 36.8438 12.6953C37.3281 12.0547 37.5703 11.2031 37.5703 10.1406C37.5703 9.0625 37.3359 8.21094 36.8672 7.58594C36.3984 6.94531 35.7344 6.625 34.875 6.625C34.0625 6.625 33.4219 6.96875 32.9531 7.65625C32.5 8.34375 32.2734 9.17188 32.2734 10.1406ZM28.9922 16V0.132812H32.2734V5.64062C33.1016 4.5 34.2109 3.92969 35.6016 3.92969C37.2734 3.92969 38.5859 4.50781 39.5391 5.66406C40.5078 6.80469 40.9922 8.29688 40.9922 10.1406C40.9922 11.9688 40.5 13.4609 39.5156 14.6172C38.5312 15.7734 37.2266 16.3516 35.6016 16.3516C34.0547 16.3516 32.8516 15.6562 31.9922 14.2656L31.3359 16H28.9922ZM43.5703 16V4.28125H45.9141L46.7344 6.4375C47.2969 5 48.3516 4.28125 49.8984 4.28125H50.3672V7.21094H49.8984C48.9297 7.21094 48.1875 7.46875 47.6719 7.98438C47.1562 8.5 46.8828 9.1875 46.8516 10.0469V16H43.5703ZM55.4766 7.51562C54.9766 8.09375 54.7266 8.94531 54.7266 10.0703C54.7266 11.1953 54.9766 12.0781 55.4766 12.7188C55.9922 13.3438 56.6406 13.6562 57.4219 13.6562C58.1562 13.6562 58.7656 13.3594 59.25 12.7656C59.7344 12.1719 59.9922 11.3359 60.0234 10.2578V9.90625C59.9922 8.82812 59.7344 8.01562 59.25 7.46875C58.7812 6.90625 58.1719 6.625 57.4219 6.625C56.6406 6.625 55.9922 6.92188 55.4766 7.51562ZM52.8047 14.5703C51.8047 13.3828 51.3047 11.8828 51.3047 10.0703C51.3047 8.25781 51.8047 6.78125 52.8047 5.64062C53.8047 4.5 55.1016 3.92969 56.6953 3.92969C58.2422 3.92969 59.4453 4.625 60.3047 6.01562L60.9609 4.28125H63.4219V16H60.9609L60.2344 14.2891C59.3906 15.6641 58.2109 16.3516 56.6953 16.3516C55.1172 16.3516 53.8203 15.7578 52.8047 14.5703ZM73.5 16V0.132812H76.8984V6.20312H83.8125V0.132812H87.2109V16H83.8125V9.01562H76.8984V16H73.5ZM93.2578 8.73438H98.2969C98.2812 8.0625 98.0547 7.50781 97.6172 7.07031C97.1953 6.61719 96.5938 6.39062 95.8125 6.39062C95.0312 6.39062 94.4141 6.61719 93.9609 7.07031C93.5078 7.50781 93.2734 8.0625 93.2578 8.73438ZM91.5469 14.6406C90.375 13.4844 89.7891 11.9609 89.7891 10.0703C89.7891 8.17969 90.3516 6.6875 91.4766 5.59375C92.6016 4.48438 94.0469 3.92969 95.8125 3.92969C97.5312 3.92969 98.9297 4.48438 100.008 5.59375C101.086 6.70312 101.625 8.09375 101.625 9.76562V10.7266H93.2578C93.2734 11.5703 93.5234 12.2734 94.0078 12.8359C94.5078 13.3828 95.1562 13.6562 95.9531 13.6562C96.8125 13.6562 97.4297 13.4141 97.8047 12.9297C98.0234 12.6484 98.1328 12.3828 98.1328 12.1328H101.531C101.531 12.8828 101.25 13.6094 100.688 14.3125C99.6094 15.6719 98.0312 16.3516 95.9531 16.3516C94.1875 16.3516 92.7188 15.7812 91.5469 14.6406ZM104.203 16V4.28125H106.547L107.367 6.4375C107.93 5 108.984 4.28125 110.531 4.28125H111V7.21094H110.531C109.562 7.21094 108.82 7.46875 108.305 7.98438C107.789 8.5 107.516 9.1875 107.484 10.0469V16H104.203ZM115.336 10.0703C115.336 11.1484 115.57 12.0156 116.039 12.6719C116.523 13.3281 117.188 13.6562 118.031 13.6562C118.875 13.6562 119.531 13.3281 120 12.6719C120.484 12.0156 120.727 11.1484 120.727 10.0703C120.727 9.00781 120.484 8.17188 120 7.5625C119.531 6.9375 118.875 6.625 118.031 6.625C117.188 6.625 116.523 6.9375 116.039 7.5625C115.57 8.17188 115.336 9.00781 115.336 10.0703ZM111.938 10.0703C111.938 8.27344 112.508 6.80469 113.648 5.66406C114.789 4.50781 116.25 3.92969 118.031 3.92969C119.812 3.92969 121.273 4.50781 122.414 5.66406C123.555 6.80469 124.125 8.27344 124.125 10.0703C124.125 11.8828 123.555 13.3828 122.414 14.5703C121.273 15.7578 119.812 16.3516 118.031 16.3516C116.25 16.3516 114.789 15.7578 113.648 14.5703C112.508 13.3828 111.938 11.8828 111.938 10.0703Z" fill="#958266"/>
</svg>
