<svg width="121" height="19" viewBox="0 0 121 19" fill="none" xmlns="http://www.w3.org/2000/svg">
<path d="M14.424 18H0.984V16.128L10.44 3.624H1.464V1.2H14.04V3.048L4.608 15.576H14.424V18ZM19.8384 10.248V18H17.2464V1.2H19.8384V7.776C20.9904 6.528 22.4304 5.904 24.1584 5.904C26.9424 5.904 28.5264 7.752 28.5264 10.8V18H25.9344V11.376C25.9344 10.248 25.6704 9.456 25.1184 9C24.5664 8.544 23.9184 8.328 23.1744 8.328C21.8544 8.328 20.5104 9.168 19.8384 10.248ZM31.1486 12.096C31.1486 10.344 31.7006 8.856 32.8286 7.68C33.9566 6.504 35.3966 5.904 37.1966 5.904C38.3966 5.904 39.4286 6.216 40.2926 6.864C42.0446 8.112 42.7886 10.056 42.7886 12.192V12.864H33.7646C34.0766 14.856 35.8046 16.032 38.2046 16.032C39.5726 16.032 40.8206 15.672 41.9966 14.976V17.16C40.9166 17.928 39.4766 18.312 37.6526 18.312C35.8286 18.312 34.2926 17.736 33.0206 16.584C31.7726 15.432 31.1486 13.944 31.1486 12.096ZM33.7886 10.896H40.1726C40.1486 10.176 39.8846 9.528 39.3326 8.952C38.7806 8.376 38.0366 8.088 37.0766 8.088C35.1806 8.088 33.9566 9.36 33.7886 10.896ZM44.883 12.096C44.883 10.344 45.435 8.856 46.563 7.68C47.691 6.504 49.131 5.904 50.931 5.904C52.131 5.904 53.163 6.216 54.027 6.864C55.779 8.112 56.523 10.056 56.523 12.192V12.864H47.499C47.811 14.856 49.539 16.032 51.939 16.032C53.307 16.032 54.555 15.672 55.731 14.976V17.16C54.651 17.928 53.211 18.312 51.387 18.312C49.563 18.312 48.027 17.736 46.755 16.584C45.507 15.432 44.883 13.944 44.883 12.096ZM47.523 10.896H53.907C53.883 10.176 53.619 9.528 53.067 8.952C52.515 8.376 51.771 8.088 50.811 8.088C48.915 8.088 47.691 9.36 47.523 10.896ZM71.2358 18.312C68.6678 18.312 66.5798 17.712 64.9238 16.512V13.656C65.5958 14.256 66.5078 14.76 67.6358 15.192C68.7878 15.624 69.9398 15.84 71.0918 15.84C73.2998 15.84 74.9798 14.904 74.9798 13.344C74.9798 12.672 74.6438 12.144 74.2358 11.784C74.0438 11.616 73.7558 11.448 73.3718 11.28C72.6038 10.92 72.1478 10.8 71.0678 10.488L70.7318 10.392C69.7958 10.128 69.0518 9.888 68.5478 9.696C68.0438 9.504 67.4918 9.216 66.8678 8.856C65.6438 8.088 65.1398 7.008 65.1398 5.472C65.1398 2.688 67.4678 0.887999 71.2358 0.887999C73.2518 0.887999 75.0518 1.344 76.6118 2.28V4.92C74.9078 3.888 73.1318 3.36 71.2838 3.36C68.9798 3.36 67.8518 4.248 67.8518 5.496C67.8518 6.216 68.2598 6.6 68.8358 7.008C69.1478 7.2 69.9158 7.44 70.3238 7.608L72.2438 8.16C73.5158 8.544 74.2598 8.832 75.3158 9.408C76.8038 10.2 77.5958 11.4 77.6918 13.296C77.6918 14.856 77.0677 16.08 75.8438 16.968C74.6198 17.856 73.0838 18.312 71.2358 18.312ZM83.4009 10.248V18H80.8089V1.2H83.4009V7.776C84.5529 6.528 85.9929 5.904 87.7209 5.904C90.5049 5.904 92.0889 7.752 92.0889 10.8V18H89.4969V11.376C89.4969 10.248 89.2329 9.456 88.6809 9C88.1289 8.544 87.4809 8.328 86.7369 8.328C85.4169 8.328 84.0729 9.168 83.4009 10.248ZM94.7111 12.096C94.7111 10.344 95.2631 8.856 96.3911 7.68C97.5191 6.504 98.9591 5.904 100.759 5.904C101.959 5.904 102.991 6.216 103.855 6.864C105.607 8.112 106.351 10.056 106.351 12.192V12.864H97.3271C97.6391 14.856 99.3671 16.032 101.767 16.032C103.135 16.032 104.383 15.672 105.559 14.976V17.16C104.479 17.928 103.039 18.312 101.215 18.312C99.3911 18.312 97.8551 17.736 96.5831 16.584C95.3351 15.432 94.7111 13.944 94.7111 12.096ZM97.3511 10.896H103.735C103.711 10.176 103.447 9.528 102.895 8.952C102.343 8.376 101.599 8.088 100.639 8.088C98.7431 8.088 97.5191 9.36 97.3511 10.896ZM108.446 12.096C108.446 10.344 108.998 8.856 110.126 7.68C111.254 6.504 112.694 5.904 114.493 5.904C115.694 5.904 116.726 6.216 117.59 6.864C119.342 8.112 120.086 10.056 120.086 12.192V12.864H111.062C111.374 14.856 113.102 16.032 115.502 16.032C116.87 16.032 118.118 15.672 119.294 14.976V17.16C118.214 17.928 116.774 18.312 114.95 18.312C113.126 18.312 111.59 17.736 110.318 16.584C109.07 15.432 108.446 13.944 108.446 12.096ZM111.086 10.896H117.47C117.446 10.176 117.182 9.528 116.63 8.952C116.078 8.376 115.334 8.088 114.374 8.088C112.478 8.088 111.254 9.36 111.086 10.896Z" fill="#958266"/>
</svg>
