<svg width="101" height="16" viewBox="0 0 101 16" fill="none" xmlns="http://www.w3.org/2000/svg">
<path d="M12.02 15H0.82V13.44L8.7 3.02H1.22V0.999999H11.7V2.54L3.84 12.98H12.02V15ZM16.532 8.54V15H14.372V0.999999H16.532V6.48C17.492 5.44 18.692 4.92 20.132 4.92C22.452 4.92 23.772 6.46 23.772 9V15H21.612V9.48C21.612 8.54 21.392 7.88 20.932 7.5C20.472 7.12 19.932 6.94 19.312 6.94C18.212 6.94 17.092 7.64 16.532 8.54ZM25.9572 10.08C25.9572 8.62 26.4172 7.38 27.3572 6.4C28.2972 5.42 29.4972 4.92 30.9972 4.92C31.9972 4.92 32.8572 5.18 33.5772 5.72C35.0372 6.76 35.6572 8.38 35.6572 10.16V10.72H28.1372C28.3972 12.38 29.8372 13.36 31.8372 13.36C32.9772 13.36 34.0172 13.06 34.9972 12.48V14.3C34.0972 14.94 32.8972 15.26 31.3772 15.26C29.8572 15.26 28.5772 14.78 27.5172 13.82C26.4772 12.86 25.9572 11.62 25.9572 10.08ZM28.1572 9.08H33.4772C33.4572 8.48 33.2372 7.94 32.7772 7.46C32.3172 6.98 31.6972 6.74 30.8972 6.74C29.3172 6.74 28.2972 7.8 28.1572 9.08ZM37.4025 10.08C37.4025 8.62 37.8625 7.38 38.8025 6.4C39.7425 5.42 40.9425 4.92 42.4425 4.92C43.4425 4.92 44.3025 5.18 45.0225 5.72C46.4825 6.76 47.1025 8.38 47.1025 10.16V10.72H39.5825C39.8425 12.38 41.2825 13.36 43.2825 13.36C44.4225 13.36 45.4625 13.06 46.4425 12.48V14.3C45.5425 14.94 44.3425 15.26 42.8225 15.26C41.3025 15.26 40.0225 14.78 38.9625 13.82C37.9225 12.86 37.4025 11.62 37.4025 10.08ZM39.6025 9.08H44.9225C44.9025 8.48 44.6825 7.94 44.2225 7.46C43.7625 6.98 43.1425 6.74 42.3425 6.74C40.7625 6.74 39.7425 7.8 39.6025 9.08ZM59.3631 15.26C57.2231 15.26 55.4831 14.76 54.1031 13.76V11.38C54.6631 11.88 55.4231 12.3 56.3631 12.66C57.3231 13.02 58.2831 13.2 59.2431 13.2C61.0831 13.2 62.4831 12.42 62.4831 11.12C62.4831 10.56 62.2031 10.12 61.8631 9.82C61.7031 9.68 61.4631 9.54 61.1431 9.4C60.5031 9.1 60.1231 9 59.2231 8.74L58.9431 8.66C58.1631 8.44 57.5431 8.24 57.1231 8.08C56.7031 7.92 56.2431 7.68 55.7231 7.38C54.7031 6.74 54.2831 5.84 54.2831 4.56C54.2831 2.24 56.2231 0.739999 59.3631 0.739999C61.0431 0.739999 62.5431 1.12 63.8431 1.9V4.1C62.4231 3.24 60.9431 2.8 59.4031 2.8C57.4831 2.8 56.5431 3.54 56.5431 4.58C56.5431 5.18 56.8831 5.5 57.3631 5.84C57.6231 6 58.2631 6.2 58.6031 6.34L60.2031 6.8C61.2631 7.12 61.8831 7.36 62.7631 7.84C64.0031 8.5 64.6631 9.5 64.7431 11.08C64.7431 12.38 64.2231 13.4 63.2031 14.14C62.1831 14.88 60.9031 15.26 59.3631 15.26ZM69.5008 8.54V15H67.3408V0.999999H69.5008V6.48C70.4608 5.44 71.6608 4.92 73.1008 4.92C75.4208 4.92 76.7408 6.46 76.7408 9V15H74.5808V9.48C74.5808 8.54 74.3608 7.88 73.9008 7.5C73.4408 7.12 72.9008 6.94 72.2808 6.94C71.1808 6.94 70.0608 7.64 69.5008 8.54ZM78.9259 10.08C78.9259 8.62 79.3859 7.38 80.3259 6.4C81.2659 5.42 82.4659 4.92 83.9659 4.92C84.9659 4.92 85.8259 5.18 86.5459 5.72C88.0059 6.76 88.6259 8.38 88.6259 10.16V10.72H81.1059C81.3659 12.38 82.8059 13.36 84.8059 13.36C85.9459 13.36 86.9859 13.06 87.9659 12.48V14.3C87.0659 14.94 85.8659 15.26 84.3459 15.26C82.8259 15.26 81.5459 14.78 80.4859 13.82C79.4459 12.86 78.9259 11.62 78.9259 10.08ZM81.1259 9.08H86.4459C86.4259 8.48 86.2059 7.94 85.7459 7.46C85.2859 6.98 84.6659 6.74 83.8659 6.74C82.2859 6.74 81.2659 7.8 81.1259 9.08ZM90.3713 10.08C90.3713 8.62 90.8313 7.38 91.7713 6.4C92.7113 5.42 93.9113 4.92 95.4112 4.92C96.4113 4.92 97.2713 5.18 97.9913 5.72C99.4513 6.76 100.071 8.38 100.071 10.16V10.72H92.5513C92.8113 12.38 94.2513 13.36 96.2513 13.36C97.3913 13.36 98.4313 13.06 99.4113 12.48V14.3C98.5113 14.94 97.3113 15.26 95.7913 15.26C94.2713 15.26 92.9913 14.78 91.9313 13.82C90.8913 12.86 90.3713 11.62 90.3713 10.08ZM92.5713 9.08H97.8913C97.8713 8.48 97.6513 7.94 97.1913 7.46C96.7313 6.98 96.1113 6.74 95.3113 6.74C93.7313 6.74 92.7113 7.8 92.5713 9.08Z" fill="#958266"/>
</svg>
