<svg width="86" height="20" viewBox="0 0 86 20" fill="none" xmlns="http://www.w3.org/2000/svg">
<path d="M12.5 15H9.48V8.84H3.82V15H0.8V0.719999H3.82V6.32H9.48V0.719999H12.5V15ZM19.933 3.86C21.3996 3.86 22.5196 4.18 23.293 4.82C24.0796 5.44667 24.473 6.41333 24.473 7.72V15H22.393L21.813 13.52H21.733C21.4263 13.9067 21.1063 14.2267 20.773 14.48C20.453 14.7333 20.0796 14.9133 19.653 15.02C19.2396 15.14 18.7263 15.2 18.113 15.2C17.473 15.2 16.893 15.08 16.373 14.84C15.8663 14.5867 15.4663 14.2067 15.173 13.7C14.8796 13.18 14.733 12.5267 14.733 11.74C14.733 10.58 15.1396 9.72667 15.953 9.18C16.7663 8.62 17.9863 8.31333 19.613 8.26L21.513 8.2V7.72C21.513 7.14667 21.3596 6.72667 21.053 6.46C20.7596 6.19333 20.3463 6.06 19.813 6.06C19.2796 6.06 18.7596 6.14 18.253 6.3C17.7463 6.44667 17.2396 6.63333 16.733 6.86L15.753 4.84C16.3396 4.53333 16.9863 4.29333 17.693 4.12C18.413 3.94667 19.1596 3.86 19.933 3.86ZM20.353 9.98C19.393 10.0067 18.7263 10.18 18.353 10.5C17.9796 10.82 17.793 11.24 17.793 11.76C17.793 12.2133 17.9263 12.54 18.193 12.74C18.4596 12.9267 18.8063 13.02 19.233 13.02C19.873 13.02 20.413 12.8333 20.853 12.46C21.293 12.0733 21.513 11.5333 21.513 10.84V9.94L20.353 9.98ZM45.3233 15H27.3633V0.719999H30.3833V12.48H34.8233V0.719999H37.8633V12.48H42.3033V0.719999H45.3233V15ZM46.7258 4.08H49.9858L52.0458 10.22C52.1124 10.42 52.1658 10.62 52.2058 10.82C52.2591 11.02 52.2991 11.2267 52.3258 11.44C52.3658 11.6533 52.3924 11.88 52.4058 12.12H52.4658C52.5058 11.7733 52.5591 11.4467 52.6258 11.14C52.7058 10.82 52.7924 10.5133 52.8858 10.22L54.9058 4.08H58.1058L53.4858 16.4C53.2058 17.1467 52.8391 17.7733 52.3858 18.28C51.9458 18.7867 51.4324 19.1667 50.8458 19.42C50.2591 19.6733 49.6191 19.8 48.9258 19.8C48.5924 19.8 48.2991 19.78 48.0458 19.74C47.8058 19.7133 47.5924 19.68 47.4058 19.64V17.28C47.5524 17.3067 47.7258 17.3333 47.9258 17.36C48.1391 17.3867 48.3591 17.4 48.5858 17.4C48.9991 17.4 49.3524 17.3133 49.6458 17.14C49.9524 16.9667 50.2058 16.7267 50.4058 16.42C50.6058 16.1267 50.7658 15.8067 50.8858 15.46L51.0658 14.92L46.7258 4.08ZM73.0325 4.08V15H70.2525V9.64C70.2525 9.10667 70.2592 8.58667 70.2725 8.08C70.2992 7.57333 70.3325 7.10667 70.3725 6.68H70.3125L67.2925 15H65.0525L61.9925 6.66H61.9125C61.9658 7.1 61.9992 7.57333 62.0125 8.08C62.0392 8.57333 62.0525 9.12 62.0525 9.72V15H59.2725V4.08H63.4925L66.2125 11.48L68.9725 4.08H73.0325ZM80.2475 3.88C81.2608 3.88 82.1275 4.07333 82.8475 4.46C83.5808 4.84667 84.1475 5.40667 84.5475 6.14C84.9475 6.87333 85.1475 7.77333 85.1475 8.84V10.28H78.1075C78.1342 11.12 78.3808 11.78 78.8475 12.26C79.3275 12.74 79.9875 12.98 80.8275 12.98C81.5342 12.98 82.1742 12.9133 82.7475 12.78C83.3208 12.6333 83.9142 12.4133 84.5275 12.12V14.42C83.9942 14.6867 83.4275 14.88 82.8275 15C82.2408 15.1333 81.5275 15.2 80.6875 15.2C79.5942 15.2 78.6275 15 77.7875 14.6C76.9475 14.1867 76.2875 13.5667 75.8075 12.74C75.3275 11.9133 75.0875 10.8733 75.0875 9.62C75.0875 8.34 75.3008 7.28 75.7275 6.44C76.1675 5.58667 76.7742 4.94667 77.5475 4.52C78.3208 4.09333 79.2208 3.88 80.2475 3.88ZM80.2675 6C79.6942 6 79.2142 6.18667 78.8275 6.56C78.4542 6.93333 78.2342 7.51333 78.1675 8.3H82.3475C82.3475 7.86 82.2675 7.46667 82.1075 7.12C81.9608 6.77333 81.7342 6.5 81.4275 6.3C81.1208 6.1 80.7342 6 80.2675 6Z" fill="#958266"/>
</svg>
