<svg width="104" height="24" viewBox="0 0 104 24" fill="none" xmlns="http://www.w3.org/2000/svg">
<path d="M14.2 18H10.576V10.608H3.784V18H0.16V0.863999H3.784V7.584H10.576V0.863999H14.2V18ZM23.5996 4.632C25.3596 4.632 26.7036 5.016 27.6316 5.784C28.5756 6.536 29.0476 7.696 29.0476 9.264V18H26.5516L25.8556 16.224H25.7596C25.3916 16.688 25.0076 17.072 24.6076 17.376C24.2236 17.68 23.7756 17.896 23.2636 18.024C22.7676 18.168 22.1516 18.24 21.4156 18.24C20.6476 18.24 19.9516 18.096 19.3276 17.808C18.7196 17.504 18.2396 17.048 17.8876 16.44C17.5356 15.816 17.3596 15.032 17.3596 14.088C17.3596 12.696 17.8476 11.672 18.8236 11.016C19.7996 10.344 21.2636 9.976 23.2156 9.912L25.4956 9.84V9.264C25.4956 8.576 25.3116 8.072 24.9436 7.752C24.5916 7.432 24.0956 7.272 23.4556 7.272C22.8156 7.272 22.1916 7.368 21.5836 7.56C20.9756 7.736 20.3676 7.96 19.7596 8.232L18.5836 5.808C19.2876 5.44 20.0636 5.152 20.9116 4.944C21.7756 4.736 22.6716 4.632 23.5996 4.632ZM24.1036 11.976C22.9516 12.008 22.1516 12.216 21.7036 12.6C21.2556 12.984 21.0316 13.488 21.0316 14.112C21.0316 14.656 21.1916 15.048 21.5116 15.288C21.8316 15.512 22.2476 15.624 22.7596 15.624C23.5276 15.624 24.1756 15.4 24.7036 14.952C25.2316 14.488 25.4956 13.84 25.4956 13.008V11.928L24.1036 11.976ZM54.5479 18H32.9959V0.863999H36.6199V14.976H41.9479V0.863999H45.5959V14.976H50.9239V0.863999H54.5479V18ZM56.7109 4.896H60.6229L63.0949 12.264C63.1749 12.504 63.2389 12.744 63.2869 12.984C63.3509 13.224 63.3989 13.472 63.4309 13.728C63.4789 13.984 63.5109 14.256 63.5269 14.544H63.5989C63.6469 14.128 63.7109 13.736 63.7909 13.368C63.8869 12.984 63.9909 12.616 64.1029 12.264L66.5269 4.896H70.3669L64.8229 19.68C64.4869 20.576 64.0469 21.328 63.5029 21.936C62.9749 22.544 62.3589 23 61.6549 23.304C60.9509 23.608 60.1829 23.76 59.3509 23.76C58.9509 23.76 58.5989 23.736 58.2949 23.688C58.0069 23.656 57.7509 23.616 57.5269 23.568V20.736C57.7029 20.768 57.9109 20.8 58.1509 20.832C58.4069 20.864 58.6709 20.88 58.9429 20.88C59.4389 20.88 59.8629 20.776 60.2149 20.568C60.5829 20.36 60.8869 20.072 61.1269 19.704C61.3669 19.352 61.5589 18.968 61.7029 18.552L61.9189 17.904L56.7109 4.896ZM88.759 4.896V18H85.423V11.568C85.423 10.928 85.431 10.304 85.447 9.696C85.479 9.088 85.519 8.528 85.567 8.016H85.495L81.871 18H79.183L75.511 7.992H75.415C75.479 8.52 75.519 9.088 75.535 9.696C75.567 10.288 75.583 10.944 75.583 11.664V18H72.247V4.896H77.311L80.575 13.776L83.887 4.896H88.759ZM97.897 4.656C99.113 4.656 100.153 4.888 101.017 5.352C101.897 5.816 102.577 6.488 103.057 7.368C103.537 8.248 103.777 9.328 103.777 10.608V12.336H95.329C95.361 13.344 95.657 14.136 96.217 14.712C96.793 15.288 97.585 15.576 98.593 15.576C99.441 15.576 100.209 15.496 100.897 15.336C101.585 15.16 102.297 14.896 103.033 14.544V17.304C102.393 17.624 101.713 17.856 100.993 18C100.289 18.16 99.433 18.24 98.425 18.24C97.113 18.24 95.953 18 94.945 17.52C93.937 17.024 93.145 16.28 92.569 15.288C91.993 14.296 91.705 13.048 91.705 11.544C91.705 10.008 91.961 8.736 92.473 7.728C93.001 6.704 93.729 5.936 94.657 5.424C95.585 4.912 96.665 4.656 97.897 4.656ZM97.921 7.2C97.233 7.2 96.657 7.424 96.193 7.872C95.745 8.32 95.481 9.016 95.401 9.96H100.417C100.417 9.432 100.321 8.96 100.129 8.544C99.953 8.128 99.681 7.8 99.313 7.56C98.945 7.32 98.481 7.2 97.921 7.2Z" fill="#958266"/>
</svg>
