<svg width="93" height="16" viewBox="0 0 93 16" fill="none" xmlns="http://www.w3.org/2000/svg">
<path d="M0.8 15V0.719999H12.1V15H9.08V3.24H3.82V15H0.8ZM17.9423 8.4C17.9423 8.62667 17.929 8.90667 17.9023 9.24C17.889 9.57333 17.869 9.91333 17.8423 10.26C17.829 10.6067 17.809 10.9133 17.7823 11.18C17.7557 11.4467 17.7357 11.6333 17.7223 11.74L22.7623 4.08H26.3423V15H23.4623V10.64C23.4623 10.28 23.4757 9.88667 23.5023 9.46C23.529 9.02 23.5557 8.61333 23.5823 8.24C23.6223 7.85333 23.649 7.56 23.6623 7.36L18.6423 15H15.0623V4.08H17.9423V8.4ZM32.0369 4.08V8.28H36.1969V4.08H39.1769V15H36.1969V10.5H32.0369V15H29.0569V4.08H32.0369ZM49.0591 4.08H52.3391L48.0191 9.32L52.7191 15H49.3391L44.8791 9.46V15H41.8991V4.08H44.8791V9.38L49.0591 4.08ZM67.6419 4.08V15H64.8619V9.64C64.8619 9.10667 64.8685 8.58667 64.8819 8.08C64.9085 7.57333 64.9419 7.10667 64.9819 6.68H64.9219L61.9019 15H59.6619L56.6019 6.66H56.5219C56.5752 7.1 56.6085 7.57333 56.6219 8.08C56.6485 8.57333 56.6619 9.12 56.6619 9.72V15H53.8819V4.08H58.1019L60.8219 11.48L63.5819 4.08H67.6419ZM74.8369 3.86C76.3035 3.86 77.4235 4.18 78.1969 4.82C78.9835 5.44667 79.3769 6.41333 79.3769 7.72V15H77.2969L76.7169 13.52H76.6369C76.3302 13.9067 76.0102 14.2267 75.6769 14.48C75.3569 14.7333 74.9835 14.9133 74.5569 15.02C74.1435 15.14 73.6302 15.2 73.0169 15.2C72.3769 15.2 71.7969 15.08 71.2769 14.84C70.7702 14.5867 70.3702 14.2067 70.0769 13.7C69.7835 13.18 69.6369 12.5267 69.6369 11.74C69.6369 10.58 70.0435 9.72667 70.8569 9.18C71.6702 8.62 72.8902 8.31333 74.5169 8.26L76.4169 8.2V7.72C76.4169 7.14667 76.2635 6.72667 75.9569 6.46C75.6635 6.19333 75.2502 6.06 74.7169 6.06C74.1835 6.06 73.6635 6.14 73.1569 6.3C72.6502 6.44667 72.1435 6.63333 71.6369 6.86L70.6569 4.84C71.2435 4.53333 71.8902 4.29333 72.5969 4.12C73.3169 3.94667 74.0635 3.86 74.8369 3.86ZM75.2569 9.98C74.2969 10.0067 73.6302 10.18 73.2569 10.5C72.8835 10.82 72.6969 11.24 72.6969 11.76C72.6969 12.2133 72.8302 12.54 73.0969 12.74C73.3635 12.9267 73.7102 13.02 74.1369 13.02C74.7769 13.02 75.3169 12.8333 75.7569 12.46C76.1969 12.0733 76.4169 11.5333 76.4169 10.84V9.94L75.2569 9.98ZM85.0072 4.08V8.28H89.1672V4.08H92.1472V15H89.1672V10.5H85.0072V15H82.0272V4.08H85.0072Z" fill="#958266"/>
</svg>
