<svg width="113" height="19" viewBox="0 0 113 19" fill="none" xmlns="http://www.w3.org/2000/svg">
<path d="M0.16 18V0.863999H13.72V18H10.096V3.888H3.784V18H0.16ZM21.2108 10.08C21.2108 10.352 21.1948 10.688 21.1628 11.088C21.1468 11.488 21.1228 11.896 21.0908 12.312C21.0748 12.728 21.0508 13.096 21.0188 13.416C20.9868 13.736 20.9628 13.96 20.9468 14.088L26.9948 4.896H31.2908V18H27.8348V12.768C27.8348 12.336 27.8508 11.864 27.8828 11.352C27.9148 10.824 27.9468 10.336 27.9788 9.888C28.0268 9.424 28.0588 9.072 28.0748 8.832L22.0508 18H17.7548V4.896H21.2108V10.08ZM38.6043 4.896V9.936H43.5963V4.896H47.1723V18H43.5963V12.6H38.6043V18H35.0283V4.896H38.6043ZM59.5109 4.896H63.4469L58.2629 11.184L63.9029 18H59.8469L54.4949 11.352V18H50.9189V4.896H54.4949V11.256L59.5109 4.896ZM82.2903 4.896V18H78.9543V11.568C78.9543 10.928 78.9623 10.304 78.9783 9.696C79.0103 9.088 79.0503 8.528 79.0983 8.016H79.0263L75.4023 18H72.7143L69.0423 7.992H68.9463C69.0103 8.52 69.0503 9.088 69.0663 9.696C69.0983 10.288 69.1143 10.944 69.1143 11.664V18H65.7783V4.896H70.8423L74.1063 13.776L77.4183 4.896H82.2903ZM91.4043 4.632C93.1643 4.632 94.5083 5.016 95.4363 5.784C96.3803 6.536 96.8523 7.696 96.8523 9.264V18H94.3563L93.6603 16.224H93.5643C93.1963 16.688 92.8123 17.072 92.4123 17.376C92.0283 17.68 91.5803 17.896 91.0683 18.024C90.5723 18.168 89.9563 18.24 89.2203 18.24C88.4523 18.24 87.7563 18.096 87.1323 17.808C86.5243 17.504 86.0443 17.048 85.6923 16.44C85.3403 15.816 85.1643 15.032 85.1643 14.088C85.1643 12.696 85.6523 11.672 86.6283 11.016C87.6043 10.344 89.0683 9.976 91.0203 9.912L93.3003 9.84V9.264C93.3003 8.576 93.1163 8.072 92.7483 7.752C92.3963 7.432 91.9003 7.272 91.2603 7.272C90.6203 7.272 89.9963 7.368 89.3883 7.56C88.7803 7.736 88.1723 7.96 87.5643 8.232L86.3883 5.808C87.0923 5.44 87.8683 5.152 88.7163 4.944C89.5803 4.736 90.4763 4.632 91.4043 4.632ZM91.9083 11.976C90.7563 12.008 89.9563 12.216 89.5083 12.6C89.0603 12.984 88.8363 13.488 88.8363 14.112C88.8363 14.656 88.9963 15.048 89.3163 15.288C89.6363 15.512 90.0523 15.624 90.5643 15.624C91.3323 15.624 91.9803 15.4 92.5083 14.952C93.0363 14.488 93.3003 13.84 93.3003 13.008V11.928L91.9083 11.976ZM104.089 4.896V9.936H109.081V4.896H112.657V18H109.081V12.6H104.089V18H100.513V4.896H104.089Z" fill="#958266"/>
</svg>
