<svg width="320" height="320" viewBox="0 0 320 320" fill="none" xmlns="http://www.w3.org/2000/svg">
<path d="M160 0C248.366 0 320 71.6344 320 160C320 248.366 248.366 320 160 320C71.6344 320 0 248.366 0 160C0 71.6344 71.6344 0 160 0ZM59.5 230H87.5V163.517C92.2194 134.258 126 137.17 126 159V229.5H153.5V160.5C153.5 107.659 101.312 116.276 87.5 136.248V78.5H59.5V230ZM167 78.5V230H195V163.517C199.719 134.258 233.5 137.17 233.5 159V229.5H261V160.5C261 107.659 208.812 116.276 195 136.248V78.5H167Z" fill="#BDAB90"/>
</svg>
