<svg width="56" height="56" viewBox="0 0 56 56" fill="none" xmlns="http://www.w3.org/2000/svg">
<g id="lego">
<path id="Vector" d="M27.9999 55C13.0883 55 1 42.9116 1 28C1 13.0884 13.0883 1 27.9999 1C42.9115 1 54.9998 13.0883 54.9998 27.9998C54.9999 42.9116 42.9116 55 27.9999 55Z" stroke="#BDAB90" stroke-width="2"/>
<path id="Vector_2" fill-rule="evenodd" clip-rule="evenodd" d="M47.8505 19.057C47.8502 18.9182 47.8778 18.7807 47.9317 18.6524C47.9856 18.5241 48.0646 18.4075 48.1644 18.3094C48.2642 18.2112 48.3827 18.1333 48.5131 18.0802C48.6435 18.0271 48.7833 17.9999 48.9245 18C49.0658 17.9997 49.2057 18.0269 49.3363 18.0799C49.4668 18.1329 49.5855 18.2108 49.6854 18.309C49.7853 18.4072 49.8645 18.5238 49.9185 18.6521C49.9725 18.7805 50.0002 18.9181 50 19.057C50.0003 19.1959 49.9726 19.3335 49.9186 19.4618C49.8647 19.5902 49.7855 19.7068 49.6855 19.805C49.5856 19.9032 49.4669 19.981 49.3363 20.034C49.2057 20.087 49.0658 20.1141 48.9245 20.1137C48.7833 20.1139 48.6435 20.0867 48.513 20.0337C48.3826 19.9807 48.2641 19.9028 48.1643 19.8047C48.0645 19.7065 47.9854 19.5899 47.9316 19.4616C47.8777 19.3333 47.8502 19.1958 47.8505 19.057ZM48.925 18.2098C49.403 18.21 49.7916 18.5884 49.7904 19.0584C49.7916 19.5285 49.4016 19.9081 48.925 19.9081C48.8117 19.9079 48.6996 19.8858 48.595 19.843C48.4905 19.8002 48.3955 19.7376 48.3156 19.6587C48.2356 19.5798 48.1723 19.4861 48.1292 19.3831C48.0861 19.2802 48.064 19.1698 48.0643 19.0584C48.0639 18.9471 48.0858 18.8367 48.1288 18.7337C48.1718 18.6306 48.2352 18.537 48.3152 18.4581C48.3952 18.3793 48.4902 18.3167 48.5949 18.2741C48.6995 18.2315 48.8117 18.2096 48.925 18.2098ZM49.3435 19.3886L49.369 19.4323C49.4148 19.511 49.3584 19.6098 49.2673 19.6104C49.2221 19.6106 49.1807 19.5852 49.1605 19.5447L49.1045 19.4319C49.0648 19.3536 49.0137 19.2814 48.9527 19.2177C48.9088 19.1729 48.8687 19.1616 48.7697 19.1616C48.7471 19.1618 48.7288 19.1801 48.7288 19.2027L48.7285 19.4956C48.7284 19.559 48.677 19.6103 48.6136 19.6103C48.5502 19.6103 48.4988 19.5589 48.4988 19.4955V19.063C48.4988 18.7607 48.7438 18.5156 49.0461 18.5156H49.0534C49.2924 18.5156 49.4045 18.6467 49.4045 18.8202C49.405 18.9846 49.2929 19.103 49.1071 19.1261C49.1051 19.1264 49.1036 19.1282 49.1037 19.1302C49.1039 19.1317 49.1049 19.133 49.1063 19.1335C49.1999 19.1658 49.232 19.1975 49.3435 19.3886ZM48.8782 18.6852C48.7952 18.6855 48.7281 18.7528 48.7281 18.8358C48.7281 18.919 48.7955 18.9864 48.8787 18.9864H48.9606C49.1162 18.9864 49.1675 18.9119 49.1653 18.8345C49.1653 18.7379 49.0872 18.685 48.9357 18.685L48.8782 18.6852ZM37.5496 20.5391C37.842 20.8629 38.3886 20.93 38.718 20.644C39.764 19.7357 41.1806 19.1329 43.0742 19.1329C47.0883 19.1329 48.1384 21.7135 48.0068 24.1519C47.9288 25.6174 47.4504 27.3633 47.093 28.4075C45.5053 33.0469 43.5986 35.9806 39.2592 35.9801C36.7871 35.9807 32.4291 35.6728 29.973 35.9532C29.7136 35.9828 29.4497 35.9986 29.1819 35.9999C26.8444 36.0111 23.5652 35.8451 21.231 35.969C21.0796 35.977 20.9278 35.981 20.776 35.981C18.5572 35.9796 15.6113 35.8437 13.3942 35.931C13.2022 35.9386 13.0055 35.9401 12.8041 35.9355C10.3926 35.8786 9.04546 34.456 9.0011 32.4812C8.9348 29.4243 11.8959 23.1133 13.1164 21.1971C13.9589 19.8378 15.1291 19.1704 16.6831 19.1697C17.5363 19.1704 18.4124 19.3163 18.954 19.8804C19.3344 20.276 20.2683 20.5481 20.7088 20.2207C22.0281 19.2402 23.7088 19.0767 25.2839 19.0771C27.3873 19.0771 30.3582 19.3426 32.4512 19.1338C32.7321 19.1058 33.0216 19.0913 33.3189 19.0913C35.2344 19.0915 36.6613 19.551 37.5496 20.5391ZM16.9377 31.9508C16.9377 31.9508 16.9376 31.9508 16.9376 31.9507C16.9907 31.3997 16.6912 30.8159 15.6044 30.7134C15.0067 30.6569 14.5437 30.0632 14.8079 29.5241C14.9104 29.3149 15.0186 29.0953 15.1308 28.8675C16.3377 26.4173 18.0054 23.0315 18.0368 21.7069C18.0537 21.0538 17.7861 20.5092 16.7088 20.5097C15.5708 20.5092 14.8569 20.9773 14.2722 21.9218C13.004 23.913 10.3109 29.9196 10.3675 32.5158C10.3994 33.9999 11.5696 34.5856 12.8699 34.6155C14.6619 34.6565 16.7261 34.1617 16.9379 31.9509C16.9379 31.9508 16.9378 31.9508 16.9377 31.9508ZM21.5113 28.7577C21.5113 28.7577 21.5113 28.7577 21.5113 28.7578C21.4571 28.901 21.3858 29.1009 21.3059 29.3393C21.0785 30.0185 21.6974 30.631 22.4122 30.5855C22.6176 30.5725 22.8397 30.568 23.0893 30.5736C24.1683 30.5996 24.8587 31.0388 24.8582 31.9166C24.8582 34.0423 22.4672 34.6668 20.8104 34.6672C18.9894 34.6672 17.3898 33.649 17.3898 31.6912C17.3898 29.3959 18.6549 25.9154 19.8423 23.5983C21.2999 20.7516 22.7902 20.3735 25.3557 20.3735C26.4838 20.3735 27.7824 20.8469 27.7824 21.8939C27.7824 23.3452 26.5341 23.8985 25.2941 23.9686C24.9159 23.9899 24.393 24.0106 23.9475 24.0083C23.6475 24.0067 23.5453 23.8525 23.3897 24.1091C23.0574 24.6572 23.4031 25.5951 24.0433 25.6267C25.2976 25.6884 25.7867 26.2222 25.493 27.2118C24.9686 28.976 23.414 29.0925 21.5113 28.7575C21.5113 28.7575 21.5112 28.7576 21.5113 28.7577ZM31.4722 24.0735C31.775 23.6561 32.1801 23.2697 32.8014 23.2697C33.5629 23.2697 33.4891 23.6657 33.3084 24.1718C32.7952 25.6128 34.345 25.6507 34.7234 25.6213C36.0763 25.5177 36.8218 24.6582 37.0052 23.1942C37.2565 21.2008 35.5484 20.4355 33.3832 20.4355C29.7741 20.4355 28.3574 22.6058 27.006 25.7083C26.3711 27.1657 25.5715 29.6564 25.5718 31.2424C25.5715 33.4701 26.9501 34.678 29.1719 34.678C32.4164 34.678 34.7089 32.1342 35.364 28.9648C35.5656 27.9894 35.8141 26.159 33.2942 26.261C32.0151 26.3129 31.2434 26.5903 30.8366 27.8755C30.5084 28.9131 31.7595 30.3401 30.9221 31.0352C30.6097 31.2945 30.2663 31.4343 29.9393 31.4346C29.4418 31.4346 28.9892 31.2223 29.1408 30.1872C29.3658 28.6736 30.8075 24.9922 31.4722 24.0735ZM46.4313 25.8887C46.0484 27.7561 45.191 29.9666 44.2593 31.6137C42.7389 34.3006 40.8948 34.677 39.2824 34.6569C37.671 34.6381 35.8542 34.0538 35.8405 31.6086C35.8308 29.8539 36.6002 27.3758 37.254 25.7532C38.3943 22.8099 39.5573 20.4095 43.2384 20.4524C47.53 20.5016 46.7645 24.2548 46.4313 25.8887ZM41.048 30.6766C41.6447 29.6828 43.3244 25.1753 43.3703 24.0483C43.3837 23.7199 43.3286 23.3376 42.7903 23.3314C42.4211 23.3263 42.1001 23.3966 41.8115 23.835C41.1629 24.6639 39.2644 29.762 39.2966 30.779C39.3083 31.1447 39.5159 31.464 39.9725 31.464C40.4984 31.4645 40.7898 31.1086 41.048 30.6766Z" fill="#BDAB90"/>
</g>
</svg>
