<svg width="46" height="56" viewBox="0 0 46 56" fill="none" xmlns="http://www.w3.org/2000/svg">
<path d="M22.9714 12C10.3113 12 0 21.8023 0 34.0275C0 46.1977 10.3113 56 22.9714 56C35.6887 56 46 46.1977 46 34.0275C46 21.8023 35.6887 12 22.9714 12ZM22.9714 46.8035C15.9253 46.8035 10.1395 40.801 10.1395 34.0275C10.1395 27.199 15.9253 21.1965 22.9714 21.1965C30.0747 21.1965 35.8605 27.199 35.8605 34.0275C35.8605 40.801 30.0747 46.8035 22.9714 46.8035Z" fill="#BDAB90"/>
<path d="M11.5254 9C13.9661 9 16 6.9661 16 4.47458C16 2.0339 13.9661 0 11.5254 0C9.0339 0 7 2.0339 7 4.47458C7 6.9661 9.0339 9 11.5254 9Z" fill="#BDAB90"/>
<path d="M22.5254 9C24.9661 9 27 6.9661 27 4.47458C27 2.0339 24.9661 0 22.5254 0C20.0339 0 18 2.0339 18 4.47458C18 6.9661 20.0339 9 22.5254 9Z" fill="#BDAB90"/>
<path d="M33.5254 9C35.9661 9 38 6.9661 38 4.47458C38 2.0339 35.9661 0 33.5254 0C31.0339 0 29 2.0339 29 4.47458C29 6.9661 31.0339 9 33.5254 9Z" fill="#BDAB90"/>
</svg>
