<svg width="46" height="56" viewBox="0 0 46 56" fill="none" xmlns="http://www.w3.org/2000/svg">
<g id="okko">
<path id="Vector" d="M22.9714 12C10.3113 12 0 21.8023 0 34.0275C0 46.1977 10.3113 56 22.9714 56C35.6887 56 46 46.1977 46 34.0275C46 21.8023 35.6887 12 22.9714 12ZM22.9714 46.8035C15.9253 46.8035 10.1395 40.801 10.1395 34.0275C10.1395 27.199 15.9253 21.1965 22.9714 21.1965C30.0747 21.1965 35.8605 27.199 35.8605 34.0275C35.8605 40.801 30.0747 46.8035 22.9714 46.8035Z" fill="#BDAB90"/>
<g id="Group 2085662997">
<path id="Vector_2" d="M13.6813 9.56757C15.7436 9.56757 17.4622 7.40541 17.4622 4.75676C17.4622 2.16216 15.7436 0 13.6813 0C11.5761 0 9.85754 2.16216 9.85754 4.75676C9.85754 7.40541 11.5761 9.56757 13.6813 9.56757Z" fill="#BDAB90"/>
<path id="Vector_3" d="M33.445 9.56757C35.5073 9.56757 37.2258 7.40541 37.2258 4.75676C37.2258 2.16216 35.5073 0 33.445 0C31.3398 0 29.6212 2.16216 29.6212 4.75676C29.6212 7.40541 31.3398 9.56757 33.445 9.56757Z" fill="#BDAB90"/>
<path id="Vector_4" d="M23.5641 9.56757C25.6264 9.56757 27.345 7.40541 27.345 4.75676C27.345 2.16216 25.6264 0 23.5641 0C21.4589 0 19.7404 2.16216 19.7404 4.75676C19.7404 7.40541 21.4589 9.56757 23.5641 9.56757Z" fill="#BDAB90"/>
</g>
</g>
</svg>
