<svg width="55" height="56" viewBox="0 0 55 56" fill="none" xmlns="http://www.w3.org/2000/svg">
<g id="sber">
<path id="Vector" d="M49.257 10.9241C50.5575 12.6345 51.6414 14.5104 52.5626 16.4966L27.5275 35.3103L17.0149 28.5794V20.5242L27.4733 27.2L49.257 10.9241Z" fill="#BDAB90"/>
<path id="Vector_2" d="M6.34007 28.0277C6.34007 27.6414 6.34007 27.3104 6.39426 26.9242L0.0541886 26.5931C0.0541886 27.0345 0 27.5311 0 27.9725C0 35.6967 3.08875 42.7035 8.07409 47.7794L12.5717 43.2001C8.72436 39.3379 6.34007 33.9863 6.34007 28.0277Z" fill="#BDAB90"/>
<path id="Vector_3" d="M27.4737 6.51037C27.8531 6.51037 28.1782 6.51037 28.5575 6.56555L28.8826 0.110348C28.4491 0.110348 27.9614 0.0551758 27.5279 0.0551758C19.9415 0.0551758 13.0596 3.20001 8.07422 8.27589L12.5719 12.8552C16.3651 8.93796 21.6756 6.51037 27.4737 6.51037Z" fill="#BDAB90"/>
<path id="Vector_4" d="M27.4725 49.545C27.0932 49.545 26.768 49.545 26.3887 49.4897L26.0636 55.9451C26.4971 55.9451 26.9848 56 27.4183 56C35.0046 56 41.8866 52.8553 46.8719 47.7794L42.3742 43.2001C38.5811 47.1724 33.3249 49.545 27.4725 49.545Z" fill="#BDAB90"/>
<path id="Vector_5" d="M39.3961 10.2621L44.7607 6.2345C40.0463 2.37242 34.0314 0 27.4746 0V6.45519C31.9181 6.51036 36.0366 7.88966 39.3961 10.2621Z" fill="#BDAB90"/>
<path id="Vector_6" d="M55.0001 28.0277C55.0001 26.3173 54.8375 24.6622 54.5665 23.007L48.66 27.4759C48.66 27.6415 48.66 27.8621 48.66 28.0277C48.66 34.3725 45.9504 40.0554 41.6697 43.9725L45.9504 48.7725C51.4776 43.6966 55.0001 36.2485 55.0001 28.0277Z" fill="#BDAB90"/>
<path id="Vector_7" d="M27.4736 49.545C21.2419 49.545 15.6604 46.7864 11.8131 42.4277L7.09863 46.7864C12.1382 52.469 19.3994 56 27.4736 56V49.545Z" fill="#BDAB90"/>
<path id="Vector_8" d="M13.3304 12.0828L9.04952 7.28278C3.46808 12.4138 0 19.807 0 28.0277H6.34007C6.34007 21.738 9.04952 16.0001 13.3304 12.0828Z" fill="#BDAB90"/>
</g>
</svg>
