<svg width="56" height="56" viewBox="0 0 56 56" fill="none" xmlns="http://www.w3.org/2000/svg">
<g id="stars cofee">
<path id="Vector" d="M27.8643 44.1754C36.8482 44.1754 44.131 36.8926 44.131 27.9088C44.131 18.925 36.8482 11.6422 27.8643 11.6422C18.8805 11.6422 11.5977 18.925 11.5977 27.9088C11.5977 36.8926 18.8805 44.1754 27.8643 44.1754Z" fill="#EEEAD9"/>
<path id="Vector_2" d="M28.0004 1.71112C13.4811 1.71112 1.71191 13.4803 1.71191 27.9997C1.71191 42.519 13.4811 54.2882 28.0004 54.2882C42.5238 54.2882 54.293 42.519 54.293 27.9997C54.289 13.4803 42.5199 1.71112 28.0004 1.71112ZM19.0532 41.5161C19.0572 41.5161 19.0572 41.5161 19.0572 41.5201L19.0532 41.5161ZM27.9408 11.6972C36.8801 11.6972 44.1318 18.945 44.1318 27.8882C44.1318 36.8275 36.884 44.0793 27.9408 44.0793C19.0014 44.0793 11.7497 36.8315 11.7497 27.8882C11.7497 18.945 18.9975 11.6972 27.9408 11.6972Z" fill="#BDAB90"/>
<path id="Vector_3" d="M28 0C12.5373 0 0 12.5373 0 28C0 43.4667 12.5373 56 28 56C43.4627 56 56 43.4627 56 28C56 12.5373 43.4627 0 28 0ZM28 55.1761C12.991 55.1761 0.823882 43.009 0.823882 28C0.823882 12.991 12.991 0.823882 28 0.823882C43.009 0.823882 55.1761 12.991 55.1761 28C55.1761 43.009 43.009 55.1761 28 55.1761Z" fill="#BDAB90"/>
<path id="Vector_4" d="M28.0003 0.823853C12.9914 0.823853 0.824219 12.991 0.824219 28C0.824219 43.0089 12.9914 55.1761 28.0003 55.1761C43.0093 55.1761 55.1764 43.0089 55.1764 28C55.1764 12.991 43.0093 0.823853 28.0003 0.823853ZM28.0005 54.2882C13.4811 54.2882 1.71193 42.519 1.71193 27.9996C1.71193 13.4803 13.4811 1.7111 28.0005 1.7111C42.5238 1.7111 54.293 13.4803 54.293 27.9996C54.2891 42.519 42.5199 54.2882 28.0005 54.2882Z" fill="#EEEAD9"/>
<path id="Vector_5" d="M18.6507 44.8916C18.1611 44.6607 17.6039 44.8479 17.2179 45.1623C16.581 45.7871 16.1671 46.6429 16.4179 47.5503C16.5253 47.9205 16.8875 48.207 17.2457 48.3543C17.7671 48.5493 18.2805 48.3782 18.6865 48.028C19.3114 47.3911 19.7571 46.5035 19.3711 45.6041C19.2795 45.3095 18.9492 44.9792 18.6507 44.8916Z" fill="#BDAB90"/>
<path id="Vector_6" d="M27.9321 5.19342L27.2833 7.24317L28.5769 7.22727L27.9321 5.19342Z" fill="#BDAB90"/>
<path id="Vector_7" d="M37.5962 7.78929C37.7236 7.43109 37.6121 7.05299 37.3853 6.93758C36.9952 6.78232 36.5694 6.61516 36.239 6.47986C36.0759 6.92161 35.9445 7.27982 35.7375 7.84104L36.8878 8.29477C37.1863 8.35045 37.4768 8.07586 37.5962 7.78929Z" fill="#BDAB90"/>
<path id="Vector_8" d="M28.2343 37.1304C28.1348 37.1344 28.0353 37.1384 27.9358 37.1384V37.1344C27.7766 37.1424 27.6174 37.1424 27.4622 37.1304C26.702 37.0867 26.0015 36.82 25.3328 36.3345L24.9746 35.9046C24.9746 35.9046 25.0264 37.5603 25.3647 38.2608C26.0931 38.7822 26.9766 39.0926 27.9358 39.1086V39.1006C28.7916 39.0568 29.5796 38.7742 30.2483 38.3165C30.6025 37.3533 30.69 36.3742 30.71 35.9205L30.3637 36.3305C29.695 36.82 28.9945 37.0827 28.2343 37.1304Z" fill="#F8F5F3"/>
<path id="Vector_9" d="M17.739 39.4197H17.7444L17.739 39.4148V39.4197Z" fill="#F8F5F3"/>
<path id="Vector_10" d="M24.3263 33.775L24.3223 33.7791C24.3223 33.7791 24.3223 33.7791 24.3223 33.7832C24.3304 33.7914 24.3386 33.8037 24.3427 33.8118C24.3591 33.8241 24.3591 33.8241 24.3263 33.775Z" fill="#1D5960"/>
<path id="Vector_11" d="M19.0529 41.5161L19.0581 41.5214C19.0581 41.5214 19.0582 41.5161 19.0529 41.5161Z" fill="#F8F5F3"/>
<path id="Vector_12" d="M32.7881 42.4594C32.8079 42.4515 32.8277 42.4475 32.8514 42.4395L32.7881 42.4594Z" fill="#1D5960"/>
<path id="Vector_13" d="M33.05 42.2403C33.054 42.2403 33.054 42.2403 33.058 42.2363C33.05 42.2205 33.0421 42.2006 33.0342 42.1808C33.0421 42.2046 33.0461 42.2204 33.05 42.2403Z" fill="#BDAB90"/>
<path id="Vector_14" d="M22.9251 42.0948C22.9292 42.0785 22.9333 42.0582 22.9414 42.0378C22.9333 42.0541 22.9251 42.0745 22.917 42.0948C22.921 42.0908 22.921 42.0908 22.9251 42.0948Z" fill="#BDAB90"/>
<path id="Vector_15" d="M36.9475 40.8414C36.9599 40.829 36.9765 40.8207 36.993 40.8084C36.993 40.8084 36.993 40.8042 36.9888 40.8042L36.9475 40.8414Z" fill="#1D5960"/>
<path id="Vector_16" d="M19.9561 41.0661L19.9649 41.0702C19.9605 41.0702 19.9561 41.0702 19.9561 41.0661Z" fill="#1D5960"/>
<path id="Vector_17" d="M19.5706 40.7455C19.5788 40.7455 19.5871 40.7372 19.5954 40.7248C19.5954 40.7248 19.5912 40.7165 19.5912 40.7123C19.583 40.7206 19.5788 40.7331 19.5706 40.7455Z" fill="#BDAB90"/>
<path id="Vector_18" d="M27.937 12.5579C27.9329 12.562 27.9288 12.562 27.9247 12.5661C27.9329 12.5661 27.9452 12.5661 27.9534 12.5661C27.9493 12.562 27.9452 12.5579 27.937 12.5579Z" fill="#F8F5F3"/>
<path id="Vector_19" d="M25.0908 17.2657L26.6789 18.5394L26.1097 20.4816L27.8769 19.3911L29.648 20.4816L29.0749 18.5354L30.651 17.2657H28.6331L27.8769 15.3871L27.1207 17.2657H25.0908Z" fill="#F8F5F3"/>
<path id="Vector_20" d="M24.3507 33.8125C24.3424 33.8043 24.3342 33.792 24.3301 33.7838C24.3301 33.7879 24.3424 33.8043 24.3507 33.8125Z" fill="#BDAB90"/>
<path id="Vector_21" d="M26.8459 8.80431L29.0389 8.7924L29.5762 10.1656L31.6061 10.4322L29.5603 3.74166L26.3603 3.69788L24.1514 10.5038L26.3762 10.2172L26.8459 8.80431ZM27.9325 5.19439L28.5772 7.2282L27.2837 7.24416L27.9325 5.19439Z" fill="#EEEAD9"/>
<path id="Vector_22" d="M35.1875 9.34506C35.4542 9.45249 35.6691 9.53611 35.9318 9.63955C36.0193 10.4873 36.087 11.0007 36.1984 11.948L38.101 13.146C38.0532 12.1231 38.0015 10.9172 37.9576 10.0097C38.4352 9.94607 38.8014 9.7948 39.1159 9.54402C39.4701 9.25746 39.8601 8.62067 39.888 7.99579C39.8959 6.79378 39.0203 5.91419 38.0691 5.54006C37.0343 5.13409 35.8044 4.64852 34.877 4.28235C34.1049 6.10922 33.2014 8.44552 32.3975 10.4117L34.5228 11.164L35.1875 9.34506ZM36.2382 6.48334C36.5726 6.61471 36.9945 6.78586 37.3845 6.94105C37.6114 7.05647 37.7228 7.43456 37.5955 7.79277C37.4761 8.07933 37.1855 8.35399 36.887 8.30224L35.7367 7.84851C35.9437 7.28336 36.0751 6.92516 36.2382 6.48334Z" fill="#EEEAD9"/>
<path id="Vector_23" d="M18.8458 7.07765L20.7363 11.6866L22.6746 10.8707L20.8995 6.22593L22.7741 5.4498L22.1014 3.92145L16.4775 6.25777L17.0587 7.82193L18.8458 7.07765Z" fill="#EEEAD9"/>
<path id="Vector_24" d="M11.9562 12.951C12.4935 13.353 13.1104 13.3251 13.6875 13.15C14.4358 12.9391 15.2279 11.9759 15.793 12.3181C16.1114 12.537 15.9682 12.9391 15.8169 13.2097C15.3114 13.9301 14.3005 14.2604 13.4647 14.344L14.193 15.6296C15.0368 15.55 15.8289 15.1361 16.4617 14.6465C17.2378 13.9421 18.0179 12.8037 17.8109 11.7132C17.6756 10.9968 17.2378 10.543 16.593 10.2365C15.8289 9.90619 14.9333 10.3122 14.3164 10.7341C13.9263 10.9968 13.3931 11.4306 12.9115 11.1202C12.7283 10.9888 12.7483 10.742 12.7881 10.6027C13.1104 9.71514 13.9542 9.24951 14.8577 9.11414C14.6547 8.69228 14.4557 8.25844 14.2726 7.86444C13.7353 7.96788 13.2498 8.21866 12.804 8.48932C12.0438 8.98682 11.001 10.1729 11.0926 11.4226C11.1642 12.0276 11.4348 12.6206 11.9562 12.951Z" fill="#EEEAD9"/>
<path id="Vector_25" d="M39.8884 15.0406C40.5928 15.8168 41.7311 16.5969 42.8217 16.3899C43.5381 16.2546 43.9918 15.8168 44.2983 15.172C44.6286 14.4078 44.2226 13.5123 43.8008 12.8954C43.5381 12.5053 43.1042 11.972 43.4147 11.4904C43.5461 11.3073 43.7928 11.3273 43.9321 11.367C44.8197 11.6894 45.2853 12.5332 45.4206 13.4367C45.8426 13.2337 46.2764 13.0347 46.6704 12.8516C46.567 12.3143 46.3162 11.8288 46.0455 11.3829C45.548 10.6228 44.366 9.58 43.1122 9.67153C42.5112 9.75109 41.9182 10.0218 41.5839 10.5431C41.1819 11.0805 41.2097 11.6974 41.3848 12.2745C41.5958 13.0228 42.559 13.8148 42.2167 14.376C41.9978 14.6944 41.5958 14.5511 41.3251 14.3999C40.6048 13.8944 40.2744 12.8835 40.1908 12.0477L38.9053 12.776C38.9848 13.6158 39.3988 14.4078 39.8884 15.0406Z" fill="#EEEAD9"/>
<path id="Vector_26" d="M51.4225 32.4031H49.4046L48.6484 30.5245L47.8921 32.4031H45.8623L47.4504 33.6728L46.8812 35.615L48.6484 34.5285L50.4195 35.615L49.8504 33.6728L51.4225 32.4031Z" fill="#EEEAD9"/>
<path id="Vector_27" d="M8.0229 32.4031L7.26664 30.5245L6.51444 32.4031H4.48059L6.07263 33.6727L5.50348 35.615L7.26664 34.5285L9.04178 35.615L8.46865 33.6727L10.0448 32.4031H8.0229Z" fill="#EEEAD9"/>
<path id="Vector_28" d="M11.5503 43.6625C11.4349 43.1052 11.5503 42.4645 11.9244 42.0267C12.3781 41.4774 13.0508 41.1869 13.6637 41.3421C14.404 41.5371 15.0647 42.2694 15.1642 43.0217C15.5822 42.8187 16.0598 42.5799 16.4419 42.3888C16.3264 41.9152 16.1553 41.6286 15.9841 41.3063C15.4588 40.4983 14.6946 39.8217 13.7672 39.5988C12.4697 39.3241 11.1284 39.6227 10.2846 40.6893C9.58811 41.5889 9.39706 42.9898 9.83882 44.0724C10.3523 45.4057 11.7413 46.2098 13.1185 46.2575C13.3334 45.8356 13.4846 45.5291 13.7354 45.0276L13.4966 45.0197C12.6528 44.9958 11.7175 44.3072 11.5503 43.6625Z" fill="#EEEAD9"/>
<path id="Vector_29" d="M20.8037 44.7848C20.0992 43.7301 18.8455 43.1012 17.4923 43.1808C16.1828 43.34 14.9092 44.2953 14.559 45.6047C14.161 46.8107 14.5908 48.0485 15.3749 48.9161C16.2624 49.7679 17.4246 50.1659 18.6505 49.9749C19.6654 49.748 20.5888 49.0913 21.0744 48.0604C21.5082 47.0495 21.4963 45.6764 20.8037 44.7848ZM18.6863 48.0326C18.2803 48.3828 17.7669 48.554 17.2455 48.359C16.8873 48.2157 16.5211 47.9291 16.4176 47.5549C16.1669 46.6435 16.5848 45.7918 17.2177 45.1669C17.6037 44.8485 18.161 44.6654 18.6505 44.8962C18.949 44.9838 19.2794 45.3182 19.3669 45.6127C19.757 46.5082 19.3112 47.3918 18.6863 48.0326Z" fill="#EEEAD9"/>
<path id="Vector_30" d="M32.7002 45.457C31.2275 45.6958 29.6116 45.9068 28.0713 46.054L28.4892 52.4739C29.1858 52.4301 29.8743 52.3903 30.5549 52.3346C30.4952 51.6063 30.4355 50.7665 30.3917 50.1097C31.2076 49.9943 32.135 49.859 32.931 49.7435L32.6882 48.2391C31.8922 48.3545 31.128 48.466 30.2723 48.5854C30.2444 48.2272 30.2165 47.8769 30.1847 47.451C31.0962 47.3037 32.0036 47.1883 32.9629 47.053C32.8594 46.4321 32.7797 45.9426 32.7002 45.457Z" fill="#EEEAD9"/>
<path id="Vector_31" d="M37.2255 48.8959C36.9867 48.3546 36.8911 48.1237 36.7439 47.7854C37.4802 47.4432 38.2205 47.1247 38.929 46.7904C38.7379 46.3685 38.5509 45.9426 38.3837 45.5765C37.6155 45.9347 36.9748 46.2252 36.2106 46.5715L35.7807 45.5605L38.2444 44.3585C38.2444 44.3585 37.8862 43.5506 37.715 43.1924C36.318 43.9287 34.9488 44.5894 33.4802 45.2262L35.7847 51.0929C37.2493 50.4481 38.9369 49.6799 40.4852 48.9635L39.9041 47.6501L37.2255 48.8959Z" fill="#EEEAD9"/>
<path id="Vector_32" d="M21.2499 51.5035C21.9583 51.6827 22.6031 51.8498 23.2558 52.009C23.435 51.2926 23.5981 50.5284 23.7613 49.8797C24.6131 50.0309 25.4767 50.1662 26.2887 50.3015L26.5116 48.8368C25.632 48.6856 24.9513 48.5742 24.1076 48.423C24.1912 48.0886 24.2787 47.607 24.3862 47.1692C25.3016 47.3045 26.2051 47.4757 27.1563 47.6349C27.2201 47.0697 27.2877 46.5204 27.3434 46.0348C25.8668 45.816 24.3146 45.5294 22.8061 45.1991L21.2499 51.5035Z" fill="#EEEAD9"/>
<path id="Vector_33" d="M42.9128 45.3381C42.5346 44.8843 42.3795 44.6893 42.1446 44.4067C42.7576 43.8734 43.3824 43.3639 43.9715 42.8505C43.673 42.4963 43.3745 42.1381 43.1158 41.8316C42.475 42.3848 41.9376 42.8425 41.3048 43.3839L40.6123 42.5321L42.6501 40.6973C42.6501 40.6973 42.0849 40.0206 41.8182 39.7222C40.68 40.8127 39.5297 41.8236 38.2959 42.8385L42.1407 47.8495C43.3705 46.8226 44.7795 45.6206 46.073 44.5062L45.1536 43.4037L42.9128 45.3381Z" fill="#EEEAD9"/>
<path id="Vector_34" d="M15.4834 18.9527C15.4793 18.9527 15.4793 18.9527 15.4834 18.9527C15.4752 18.9568 15.471 18.9568 15.4669 18.9609C15.4793 18.9609 15.4875 18.9609 15.4999 18.9609C15.4916 18.9609 15.4875 18.9568 15.4834 18.9527Z" fill="#F8F5F3"/>
<path id="Vector_35" d="M33.3054 26.2368C32.8915 25.0348 32.1671 24.0677 31.0845 23.407C29.58 22.4955 27.976 22.0219 26.1969 22.4756C22.8098 23.3433 21.5004 26.412 21.588 28.5572C21.6039 28.9831 21.6716 29.401 21.7193 29.8229C21.8586 31.1841 22.1571 32.5135 22.5472 33.8229C22.8218 34.7502 23.172 35.6498 23.4865 36.5651C23.777 37.405 23.9521 38.2845 23.98 39.1801C23.996 39.6617 23.9203 40.1154 23.6218 40.5134C23.5064 40.6607 23.4267 40.8358 23.3312 41.003C23.1601 41.3055 23.0169 41.6239 22.8696 41.9423C22.79 42.1134 22.786 42.1333 22.9571 42.193C24.1193 42.595 25.3134 42.8458 26.5392 42.9492C27.5024 43.0328 28.4656 43.0328 29.4288 42.9333C30.4994 42.8219 31.5462 42.5911 32.573 42.2607C32.6805 42.2249 32.6686 42.189 32.6368 42.1055C32.573 41.9383 32.5014 41.7751 32.4258 41.6119C32.3143 41.3692 32.1909 41.1304 32.0556 40.8955C31.9283 40.6687 31.7651 40.4537 31.6736 40.207C31.6098 40.0279 31.582 39.8249 31.5502 39.6378C31.4665 39.0846 31.4825 38.5233 31.6019 37.9781C31.6974 37.5363 31.7691 37.0786 31.9283 36.6607C32.187 35.9761 32.4496 35.2916 32.6686 34.595C33.2537 32.7363 33.6357 30.8457 33.6914 28.613C33.7273 27.9841 33.5999 27.1005 33.3054 26.2368ZM23.2079 27.8049C23.2278 27.7493 23.2755 27.7214 23.3193 27.6895C23.6616 27.4547 24.0476 27.3751 24.4895 27.3672C25.0029 27.3911 25.5203 27.5065 25.986 27.8089C26.2686 27.9921 26.3203 28.2627 26.1452 28.5453C26.0974 28.6249 26.0457 28.6527 25.9542 28.6249C25.6516 28.5333 25.3452 28.4697 25.0307 28.4418C24.4776 28.394 23.9482 28.4537 23.4745 28.7761C23.4029 28.8239 23.3591 28.8079 23.3034 28.7602C23.184 28.6567 23.1363 28.5214 23.1203 28.3781C23.1004 28.1791 23.1442 27.9921 23.2079 27.8049ZM30.3601 37.3373C30.3004 37.612 30.2288 37.8786 30.1372 38.1413C30.1094 38.2169 30.0696 38.2726 30.0059 38.3124C29.377 38.7184 28.6924 38.9652 27.9442 39.0089C26.985 39.0687 26.1293 38.7741 25.3373 38.2448C25.2695 38.201 25.2377 38.1413 25.2099 38.0697C25.0586 37.6557 24.9989 37.2179 24.9472 36.7841C24.9153 36.5015 24.8994 36.2189 24.8755 35.9085C25.6317 36.7722 26.587 37.0706 27.6616 37.0945C28.5651 37.1144 29.385 36.8756 30.1292 36.3582C30.2964 36.2428 30.388 36.0597 30.5512 35.9204C30.5233 36.41 30.4636 36.8756 30.3601 37.3373ZM32.0318 26.6189C31.6577 26.6905 31.2835 26.6348 30.9094 26.6189C30.388 26.599 29.8745 26.6627 29.3691 26.7901C28.585 26.993 28.171 27.4945 28.0954 28.2985C28.0437 28.8159 28.1034 29.3214 28.2029 29.8309C28.2268 29.9582 28.2865 30.0657 28.3502 30.1692C28.4377 30.3085 28.593 30.2527 28.7243 30.2447C28.8238 30.2368 28.8756 30.1891 28.8835 30.0737C28.8994 29.8746 29.0267 29.7234 29.1501 29.5841C29.2656 29.4488 29.4208 29.4647 29.5442 29.5921C29.791 29.8428 30.0974 29.8587 30.4198 29.8189C30.6945 29.7831 30.9492 29.6637 31.2198 29.6159C31.793 29.5045 31.988 29.6716 32.0159 30.2607C32.0278 30.5353 31.9322 30.7901 31.8526 31.0448C31.4665 32.2508 30.9571 33.393 30.2288 34.4358C29.7193 35.1682 29.0467 35.6537 28.1631 35.797C27.1482 35.9641 26.2367 35.7174 25.4328 35.0607C24.7124 34.4717 24.2546 33.7035 23.9203 32.8517C23.574 31.9801 23.3631 31.0726 23.2318 30.1453C23.2079 29.99 23.1959 29.8507 23.3034 29.7234C23.395 29.6159 23.5183 29.5562 23.6497 29.6199C24.2268 29.9065 24.8238 29.8985 25.4328 29.7632C25.6198 29.7194 25.8149 29.6876 26.0138 29.7313C26.2287 29.7831 26.3362 29.9144 26.3322 30.1373C26.3283 30.2886 26.4358 30.4119 26.5989 30.4398C26.7661 30.4637 26.9372 30.3841 26.977 30.2487C27.0884 29.8866 27.0924 29.5164 27.0646 29.1462C27.0208 28.5731 26.8935 28.0159 26.7422 27.4627C26.7223 27.3871 26.6785 27.3273 26.6268 27.2717C26.2168 26.8219 25.6795 26.6587 25.0945 26.6229C24.8954 26.6109 24.6964 26.6229 24.5213 26.6229C24.2268 26.599 23.9561 26.6548 23.6934 26.591C23.6576 26.5791 23.6258 26.5711 23.59 26.5632C23.1243 26.4319 23.0248 26.1891 23.2835 25.7791C23.9123 24.7801 24.78 24.0756 25.9064 23.7294C27.3671 23.2796 28.7999 23.3473 30.1531 24.1075C31.0328 24.601 31.6934 25.3174 32.179 26.201C32.1989 26.2408 32.2268 26.2806 32.2347 26.3204C32.2746 26.5154 32.2308 26.5791 32.0318 26.6189ZM32.0994 28.2508C32.0994 28.4418 32.0755 28.6289 31.9124 28.7642C31.8566 28.8119 31.8128 28.8239 31.7412 28.7761C31.2835 28.4577 30.7661 28.398 30.2248 28.4378C29.8984 28.4617 29.576 28.5333 29.2616 28.6289C29.174 28.6567 29.1263 28.6249 29.0785 28.5532C28.8954 28.2667 28.9432 27.996 29.2377 27.8049C29.7034 27.5065 30.2248 27.3871 30.7183 27.3712C31.0845 27.3751 31.383 27.4388 31.6775 27.5542C31.9999 27.6855 32.1034 27.9323 32.0994 28.2508Z" fill="#BDAB90"/>
<path id="Vector_36" d="M32.0994 28.2508C32.0994 28.4418 32.0755 28.6289 31.9124 28.7642C31.8566 28.812 31.8128 28.8239 31.7412 28.7762C31.2835 28.4577 30.7661 28.3981 30.2248 28.4379C29.8984 28.4617 29.576 28.5334 29.2616 28.6289C29.174 28.6568 29.1263 28.6249 29.0785 28.5533C28.8954 28.2667 28.9432 27.996 29.2377 27.805C29.7034 27.5065 30.2248 27.3871 30.7183 27.3712C31.0845 27.3751 31.383 27.4389 31.6775 27.5543C31.9999 27.6856 32.1034 27.9324 32.0994 28.2508Z" fill="#EEEAD9"/>
<path id="Vector_37" d="M26.1452 28.5453C26.0975 28.6249 26.0457 28.6527 25.9542 28.6249C25.6516 28.5333 25.3452 28.4697 25.0308 28.4418C24.4776 28.394 23.9482 28.4537 23.4745 28.7761C23.4029 28.8239 23.3591 28.8079 23.3034 28.7602C23.184 28.6567 23.1363 28.5214 23.1203 28.3781C23.1004 28.1791 23.1442 27.9921 23.2079 27.805C23.2278 27.7493 23.2756 27.7214 23.3193 27.6895C23.6617 27.4547 24.0477 27.3751 24.4895 27.3672C25.0029 27.3911 25.5203 27.5065 25.986 27.8089C26.2686 27.9921 26.3204 28.2627 26.1452 28.5453Z" fill="#EEEAD9"/>
<path id="Vector_38" d="M32.2348 26.3204C32.2269 26.2806 32.199 26.2408 32.1791 26.201C31.6935 25.3174 31.0329 24.601 30.1532 24.1075C28.8 23.3473 27.3672 23.2796 25.9065 23.7294C24.7801 24.0756 23.9124 24.7801 23.2835 25.7791C23.0249 26.1891 23.1244 26.4318 23.5901 26.5632C23.6259 26.5711 23.6577 26.5791 23.6935 26.591C23.9562 26.6548 24.2269 26.599 24.5214 26.6229C24.6965 26.6229 24.8955 26.6109 25.0945 26.6229C25.6796 26.6587 26.2169 26.8219 26.6269 27.2717C26.6786 27.3273 26.7224 27.3871 26.7423 27.4627C26.8936 28.0159 27.0209 28.5731 27.0646 29.1462C27.0925 29.5164 27.0885 29.8866 26.9771 30.2487C26.9373 30.3841 26.7662 30.4637 26.599 30.4398C26.4358 30.4119 26.3283 30.2886 26.3323 30.1373C26.3363 29.9144 26.2288 29.7831 26.0139 29.7313C25.8149 29.6876 25.6199 29.7194 25.4329 29.7632C24.8239 29.8985 24.2269 29.9065 23.6497 29.6199C23.5184 29.5562 23.395 29.6159 23.3034 29.7234C23.196 29.8507 23.208 29.99 23.2319 30.1453C23.3632 31.0726 23.5741 31.9801 23.9204 32.8517C24.2547 33.7035 24.7124 34.4716 25.4329 35.0607C26.2368 35.7174 27.1483 35.9641 28.1632 35.797C29.0468 35.6537 29.7194 35.1682 30.2288 34.4358C30.9572 33.393 31.4666 32.2508 31.8527 31.0448C31.9323 30.7901 32.0278 30.5353 32.0159 30.2607C31.9881 29.6716 31.793 29.5044 31.2199 29.6159C30.9492 29.6637 30.6945 29.7831 30.4199 29.8189C30.0975 29.8587 29.7911 29.8428 29.5443 29.5921C29.4209 29.4647 29.2656 29.4488 29.1502 29.5841C29.0268 29.7234 28.8995 29.8746 28.8835 30.0736C28.8756 30.1891 28.8239 30.2368 28.7244 30.2447C28.5931 30.2527 28.4378 30.3085 28.3503 30.1692C28.2865 30.0657 28.2269 29.9582 28.203 29.8309C28.1035 29.3214 28.0437 28.8159 28.0955 28.2985C28.1711 27.4945 28.5851 26.993 29.3691 26.7901C29.8746 26.6627 30.3881 26.599 30.9095 26.6189C31.2836 26.6348 31.6577 26.6905 32.0318 26.6189C32.2309 26.5791 32.2746 26.5154 32.2348 26.3204ZM29.4526 32.8639C29.4406 32.9436 29.3888 32.9913 29.3491 33.051C29.166 33.3256 28.9471 33.5684 28.7123 33.8033C28.1153 34.3843 26.961 34.4559 26.3919 33.6719C26.3759 33.648 26.352 33.6281 26.3321 33.6042C26.2087 33.4609 26.0734 33.3296 25.9182 33.2181C25.8824 33.1943 25.8426 33.1664 25.8147 33.1306C25.7391 33.0391 25.6914 32.9236 25.7351 32.8122C25.775 32.7127 25.8864 32.7644 25.9659 32.7724C26.8456 32.8679 27.7332 32.7963 28.6167 32.8082C28.8953 32.8122 29.1739 32.8162 29.4526 32.8639ZM28.5172 31.3356C28.5929 31.3555 28.6286 31.3794 28.6128 31.4749C28.5809 31.7256 28.4655 31.8689 28.2227 31.9166C28.167 31.9286 27.0963 31.9286 27.0287 31.9127C26.7859 31.8649 26.6386 31.6659 26.6386 31.4231C26.6426 31.3316 26.7142 31.3475 26.7541 31.3356C27.0446 31.2639 27.3431 31.2281 27.6257 31.2321C27.9361 31.2281 28.2307 31.2639 28.5172 31.3356Z" fill="#EEEAD9"/>
<path id="Vector_39" d="M27.6419 12.7879C27.411 12.9273 27.1841 13.0586 26.9613 13.194C25.7035 13.9581 24.4737 14.7581 23.3633 15.7293C22.8499 16.179 22.3643 16.6526 22.01 17.2457C21.8827 17.4566 21.7792 17.6795 21.7911 17.9342C21.7951 18.0258 21.7354 18.0258 21.6797 18.0417C21.1941 18.1611 20.7165 18.3163 20.2667 18.5312C19.224 19.0288 18.4001 19.7492 18.0021 20.8676C17.7155 21.6755 17.6996 22.5113 17.8508 23.3511C17.9264 23.7691 18.0339 24.179 18.1971 24.573C18.2369 24.6726 18.221 24.7482 18.1732 24.8397C17.8548 25.4367 17.6001 26.0576 17.4926 26.7343C17.3414 27.6974 17.5563 28.5412 18.2846 29.2178C18.3484 29.2775 18.3364 29.3173 18.3006 29.381C17.8349 30.2168 17.5324 31.1124 17.3772 32.0556C17.2459 32.8596 17.3493 33.6477 17.5523 34.4278C17.7752 35.2835 18.1135 36.1034 18.3881 36.9432C18.5155 37.3372 18.619 37.7392 18.6986 38.1452C18.7185 38.2407 18.6946 38.3004 18.619 38.3641C18.3603 38.579 18.1255 38.8178 17.9105 39.0765C17.8389 39.1641 17.7951 39.1641 17.7115 39.0885C16.4458 37.9343 15.3951 36.6049 14.5752 35.1004C13.7474 33.5879 13.1981 31.98 12.9274 30.2765C12.7404 29.0864 12.6926 27.8924 12.7881 26.6905C12.9433 24.7163 13.4448 22.8377 14.3603 21.0905C16.5215 16.9551 19.8767 14.3084 24.4021 13.1661C25.3056 12.9392 26.2249 12.8198 27.1563 12.7879C27.3075 12.784 27.4548 12.776 27.6061 12.768C27.614 12.7641 27.622 12.772 27.6419 12.7879Z" fill="#EEEAD9"/>
<path id="Vector_40" d="M35.6101 31.6847C35.6061 32.6638 35.3395 33.627 35.0171 34.5782C34.7186 35.4498 34.3683 36.3056 34.0937 37.1851C33.9186 37.7464 33.7554 38.3155 33.7196 38.9045C33.6957 39.2946 33.7952 39.6647 33.9385 40.0269C34.1136 40.4727 34.3723 40.8707 34.6469 41.2568C34.7146 41.3523 34.6947 41.3842 34.5992 41.4279C34.3206 41.5513 34.0459 41.6787 33.7713 41.806C33.7196 41.8299 33.6758 41.8618 33.632 41.7901C33.2778 41.2568 32.8519 40.7672 32.637 40.1463C32.3185 39.2349 32.3982 38.3394 32.7086 37.4478C32.9434 36.7712 33.2658 36.1384 33.5803 35.4975C33.9703 34.6976 34.3325 33.8896 34.5355 33.018C34.7305 32.1861 34.7584 31.3463 34.6191 30.5025C34.5992 30.3752 34.6151 30.3155 34.7623 30.3155C34.9654 30.3195 35.1723 30.2916 35.3633 30.2081C35.4549 30.1682 35.443 30.2359 35.4509 30.2757C35.5584 30.7294 35.6181 31.1832 35.6101 31.6847Z" fill="#BDAB90"/>
<path id="Vector_41" d="M19.8088 31.5657C19.8128 32.5448 20.0794 33.508 20.4018 34.4592C20.7003 35.3309 21.0506 36.1866 21.3252 37.0662C21.5003 37.6274 21.6635 38.1965 21.6993 38.7856C21.7232 39.1756 21.6237 39.5458 21.4804 39.908C21.3053 40.3538 21.0466 40.7518 20.772 41.1378C20.7043 41.2334 20.7242 41.2652 20.8197 41.309C21.0983 41.4324 21.373 41.5597 21.6476 41.6871C21.6993 41.711 21.7431 41.7428 21.7869 41.6712C22.1411 41.1378 22.567 40.6483 22.7819 40.0274C23.1003 39.116 23.0207 38.2204 22.7103 37.3289C22.4754 36.6522 22.1531 36.0194 21.8386 35.3786C21.4486 34.5786 21.0864 33.7707 20.8834 32.899C20.6884 32.0672 20.6605 31.2274 20.7998 30.3836C20.8197 30.2563 20.8038 30.1965 20.6565 30.1965C20.4536 30.2005 20.2466 30.1726 20.0556 30.0891C19.964 30.0493 19.9759 30.117 19.968 30.1567C19.8645 30.6105 19.8048 31.0642 19.8088 31.5657Z" fill="#BDAB90"/>
<path id="Vector_42" d="M20.7437 38.9414C20.7914 39.5782 20.477 40.1872 20.0989 40.7762C20.067 40.828 20.0352 40.828 19.9915 40.8001C19.5695 40.5414 19.1676 40.2588 18.7696 39.9683C18.7019 39.9165 18.7457 39.8887 18.7775 39.8529C19.1954 39.3792 19.3267 38.7862 19.3387 38.1891C19.3467 37.8309 19.1954 37.4608 19.08 37.1066C18.8372 36.3384 18.5308 35.5902 18.3039 34.818C18.1447 34.2767 18.0253 33.7275 17.9775 33.1623C17.9138 32.3782 18.0651 31.6339 18.2959 30.8936C18.4193 30.5036 18.5706 30.1215 18.7377 29.7514C18.7815 29.6558 18.8173 29.6519 18.8969 29.7076C19.0363 29.8031 19.1914 29.8787 19.3506 29.9384C19.4342 29.9703 19.4501 30.0061 19.4183 30.0897C19.2153 30.6548 19.0999 31.2399 19.0203 31.8369C18.877 32.9275 19.0482 33.9743 19.4621 34.9852C19.7447 35.6777 20.0949 36.3384 20.3656 37.0389C20.5964 37.616 20.7397 38.221 20.7437 38.9414Z" fill="#BDAB90"/>
<path id="Vector_43" d="M36.7685 40.079C36.4341 40.3656 36.064 40.5885 35.7018 40.8153C35.658 40.8432 35.6261 40.8711 35.5824 40.8034C35.2679 40.3337 34.9853 39.8521 34.9018 39.271C34.8182 38.678 34.9018 38.1089 35.0769 37.5437C35.3038 36.8272 35.6461 36.1626 35.9485 35.478C36.4898 34.2442 36.6252 32.9506 36.4779 31.6213C36.4182 31.088 36.3067 30.5666 36.1356 30.0611C36.1038 29.9696 36.1316 29.9457 36.2072 29.9178C36.4262 29.8343 36.6331 29.7189 36.8361 29.5955C36.8839 29.6392 36.8998 29.7029 36.9276 29.7586C37.457 30.8929 37.6162 32.083 37.469 33.3248C37.3376 34.4113 37.0232 35.4502 36.7207 36.4969C36.5734 37.0024 36.4063 37.5079 36.3147 38.0293C36.2152 38.5905 36.2192 39.1516 36.4659 39.689C36.5376 39.8362 36.6371 39.9636 36.7685 40.079Z" fill="#BDAB90"/>
<path id="Vector_44" d="M29.5088 20.5534C29.0272 20.2549 28.5536 19.9883 28.1078 19.6818C27.853 19.5067 27.666 19.4908 27.4033 19.6778C26.9615 19.9922 26.4839 20.2549 25.9944 20.5574C26.0939 20.2072 26.1894 19.8848 26.2809 19.5624C26.3605 19.2837 26.4401 19.0092 26.5277 18.7345C26.5555 18.6509 26.5356 18.5992 26.464 18.5474C26.0142 18.1932 25.5645 17.831 25.1188 17.4728C25.0789 17.441 25.0431 17.4092 24.9834 17.3574C25.1108 17.3574 25.2063 17.3574 25.3058 17.3574C25.8272 17.3574 26.3446 17.3534 26.866 17.3614C26.9735 17.3614 27.0172 17.3256 27.0571 17.226C27.2839 16.6529 27.5147 16.0798 27.7536 15.4868C27.9764 16.036 28.1874 16.5614 28.4023 17.0907C28.5098 17.3574 28.5058 17.3574 28.7844 17.3574C29.3496 17.3574 29.9147 17.3574 30.4879 17.3574C30.476 17.4211 30.4202 17.433 30.3884 17.4609C29.9466 17.8191 29.5048 18.1813 29.059 18.5315C28.9715 18.5992 28.9595 18.6589 28.9914 18.7584C29.1546 19.2957 29.3098 19.837 29.469 20.3783C29.4809 20.4261 29.4889 20.4778 29.5088 20.5534Z" fill="#EEEAD9"/>
<path id="Vector_45" d="M24.8759 35.9077C25.6321 36.7713 26.5873 37.0698 27.662 37.0937C28.5654 37.1136 29.3853 36.8748 30.1296 36.3614C30.2968 36.2459 30.3883 36.0628 30.5555 35.9236C30.5276 36.4131 30.4679 36.8788 30.3644 37.3405C30.3047 37.6111 30.2291 37.8818 30.1375 38.1444C30.1137 38.2201 30.0739 38.2718 30.0062 38.3156C29.3774 38.7176 28.6928 38.9644 27.9445 39.0121C26.9853 39.0718 26.1296 38.7733 25.3376 38.2479C25.2699 38.2042 25.2381 38.1444 25.2102 38.0728C25.055 37.6588 24.9953 37.2211 24.9475 36.7872C24.9196 36.5007 24.9037 36.2181 24.8759 35.9077Z" fill="#EEEAD9"/>
<path id="Vector_46" d="M29.4528 32.8624C29.4408 32.9421 29.3891 32.9898 29.3493 33.0495C29.1662 33.3241 28.9473 33.5669 28.7125 33.8018C28.1155 34.3829 26.9612 34.4545 26.3921 33.6704C26.3761 33.6465 26.3523 33.6266 26.3323 33.6027C26.2089 33.4595 26.0736 33.3281 25.9185 33.2167C25.8826 33.1928 25.8428 33.1649 25.8149 33.1291C25.7393 33.0376 25.6916 32.9222 25.7353 32.8107C25.7752 32.7112 25.8866 32.7629 25.9662 32.7709C26.8458 32.8664 27.7334 32.7948 28.6169 32.8067C28.8955 32.8107 29.1742 32.8147 29.4528 32.8624Z" fill="#BDAB90"/>
<path id="Vector_47" d="M28.6128 31.4755C28.581 31.7262 28.4656 31.8695 28.2228 31.9173C28.167 31.9292 27.0964 31.9292 27.0287 31.9133C26.7859 31.8655 26.6387 31.6666 26.6387 31.4238C26.6427 31.3322 26.7143 31.3481 26.7541 31.3362C27.0446 31.2645 27.3432 31.2287 27.6258 31.2327C27.9362 31.2287 28.2307 31.2645 28.5173 31.3362C28.5929 31.3561 28.6287 31.38 28.6128 31.4755Z" fill="#BDAB90"/>
<path id="Vector_48" d="M37.0269 26.5747C37.003 26.0375 36.8717 25.5598 36.4418 25.2016C36.1831 24.9827 36.1592 24.8673 36.3065 24.5529C36.5373 24.0673 36.6886 23.5618 36.7443 23.0205C36.8876 21.6115 36.1712 20.2464 34.9254 19.5698C34.4359 19.3031 33.9065 19.1479 33.3652 19.0324C33.1781 18.9927 33.0547 18.8971 32.995 18.7061C32.8359 18.1847 32.5572 17.723 32.203 17.3091C31.8368 16.8752 31.4149 16.5011 30.9652 16.1588C29.9861 15.4066 28.9114 14.7936 27.8687 14.1409C27.7771 14.0852 27.6896 14.0971 27.602 14.1528C27.399 14.2802 27.196 14.4036 26.9931 14.5309C25.9861 15.1518 24.9711 15.7608 24.0677 16.533C23.3871 17.118 22.8099 17.7788 22.5234 18.6464C22.4398 18.9011 22.2886 19.0205 22.0378 19.0603C21.7114 19.1121 21.3971 19.2116 21.0905 19.327C19.3194 19.9996 18.6985 21.4921 18.7383 22.8334C18.7542 23.4384 18.9373 23.9996 19.1881 24.5449C19.2358 24.6484 19.2916 24.7678 19.2796 24.8832C19.2677 24.9946 19.1841 25.0783 19.1085 25.1499C18.8895 25.3489 18.6906 25.5758 18.5991 25.8663C18.4916 26.2086 18.4279 26.5708 18.4199 26.929C18.4199 26.9648 18.4199 27.0006 18.4199 27.0365C18.4279 27.7449 18.6547 28.3499 19.2478 28.7797C19.805 29.1817 20.4538 29.2852 21.1144 29.3449C21.1144 29.3449 21.0746 28.9748 21.0905 28.4016C21.0905 28.3937 21.0905 28.3817 21.0905 28.3738C21.0905 28.2424 21.0985 28.1111 21.1105 27.9837C21.2697 25.8146 22.3005 21.8185 27.7652 21.8185C28.1672 21.8106 28.5652 21.8464 28.9592 21.922C30.4916 22.2205 31.7811 22.9528 32.7921 24.1469C33.8587 25.4046 34.3881 26.8653 34.3761 28.521C34.3721 28.8355 34.3324 29.1499 34.3005 29.4604C34.2886 29.5877 34.3324 29.6036 34.4359 29.5917C34.5791 29.5758 34.7224 29.5479 34.8617 29.5081C35.8527 29.2414 37.0906 27.9678 37.0269 26.5747ZM30.3841 17.4563C29.9423 17.8145 29.5005 18.1767 29.0548 18.527C28.9672 18.5947 28.9553 18.6543 28.9871 18.7539C29.1503 19.2911 29.3055 19.8325 29.4647 20.3737C29.4806 20.4255 29.4886 20.4772 29.5085 20.5529C29.0269 20.2543 28.5532 19.9877 28.1075 19.6812C27.8528 19.5061 27.6657 19.4902 27.403 19.6772C26.9612 19.9917 26.4836 20.2543 25.994 20.5569C26.0935 20.2066 26.1891 19.8842 26.2806 19.5618C26.3602 19.2832 26.4398 19.0086 26.5274 18.734C26.5552 18.6504 26.5354 18.5986 26.4637 18.5469C26.014 18.1926 25.5642 17.8305 25.1184 17.4723C25.0786 17.4404 25.0428 17.4086 24.9831 17.3568C25.1104 17.3568 25.206 17.3568 25.3055 17.3568C25.8269 17.3568 26.3443 17.3528 26.8657 17.3608C26.9732 17.3608 27.0169 17.325 27.0567 17.2255C27.2836 16.6524 27.5144 16.0792 27.7533 15.4862C27.9762 16.0355 28.1871 16.5608 28.402 17.0901C28.5094 17.3568 28.5055 17.3568 28.7841 17.3568C29.3493 17.3568 29.9145 17.3568 30.4876 17.3568C30.4716 17.4166 30.4199 17.4285 30.3841 17.4563Z" fill="#BDAB90"/>
</g>
</svg>
