<svg width="320" height="320" viewBox="0 0 320 320" fill="none" xmlns="http://www.w3.org/2000/svg">
<mask id="mask0_26_7" style="mask-type:luminance" maskUnits="userSpaceOnUse" x="0" y="0" width="320" height="320">
<path d="M320 0H0V320H320V0Z" fill="white"/>
</mask>
<g mask="url(#mask0_26_7)">
<path fill-rule="evenodd" clip-rule="evenodd" d="M22.4942 22.4942C0 44.9885 0 81.1923 0 153.6V166.4C0 238.808 0 275.012 22.4942 297.506C44.9885 320 81.1923 320 153.6 320H166.4C238.808 320 275.012 320 297.506 297.506C320 275.012 320 238.808 320 166.4V153.6C320 81.1923 320 44.9885 297.506 22.4942C275.012 0 238.808 0 166.4 0H153.6C81.1923 0 44.9885 0 22.4942 22.4942ZM54.0006 97.3341C55.7338 180.534 97.3334 230.534 170.267 230.534H174.401V182.934C201.201 185.6 221.466 205.201 229.599 230.534H267.467C257.067 192.667 229.732 171.734 212.666 163.734C229.732 153.867 253.733 129.867 259.466 97.3341H225.065C217.598 123.734 195.468 147.734 174.401 150V97.3341H140V189.6C118.667 184.267 91.7338 158.401 90.5338 97.3341H54.0006Z" fill="#BDAB90"/>
</g>
</svg>
