<svg width="56" height="56" viewBox="0 0 56 56" fill="none" xmlns="http://www.w3.org/2000/svg">
<path id="Vector" d="M27.9999 55C13.0883 55 1 42.9116 1 28C1 13.0884 13.0883 1 27.9999 1C42.9115 1 54.9998 13.0883 54.9998 27.9998C54.9999 42.9116 42.9116 55 27.9999 55Z" stroke="#BDAB90" stroke-width="2"/>
<path fill-rule="evenodd" clip-rule="evenodd" d="M33.1426 12.1081C31.7286 13.0892 30.7341 14.5616 30.3545 16.236C29.9749 17.9104 30.2377 19.6657 31.0913 21.1569L42.4124 40.9866C42.4494 41.0541 42.5006 41.113 42.5625 41.1591C42.6243 41.2052 42.6955 41.2375 42.771 41.2538C42.8466 41.2696 42.9248 41.2689 43.0002 41.2517C43.0755 41.2345 43.1462 41.2012 43.2074 41.1541C44.6153 40.1697 45.6035 38.6972 45.9786 37.025C46.3537 35.3527 46.0885 33.6012 45.2351 32.1136L33.9139 12.2839C33.877 12.2165 33.826 12.1577 33.7643 12.1115C33.7027 12.0653 33.6318 12.0328 33.5565 12.0161C33.4812 11.9995 33.4032 11.9991 33.3277 12.0149C33.2523 12.0308 33.1811 12.0626 33.1189 12.1081M21.7352 12.061C20.3266 13.0455 19.3394 14.5199 18.9682 16.1936C18.5957 17.8683 18.8649 19.6213 19.7228 21.1085L31.0051 40.9395C31.0421 41.0071 31.0933 41.0659 31.1551 41.112C31.217 41.1581 31.2881 41.1904 31.3637 41.2067C31.4394 41.2224 31.5177 41.2214 31.593 41.204C31.6684 41.1865 31.739 41.153 31.8 41.1056C33.2149 40.1271 34.2105 38.6562 34.5907 36.9827C34.9716 35.3076 34.7104 33.5513 33.8583 32.0582L22.5066 12.2272C22.4686 12.1607 22.4169 12.1029 22.3548 12.0578C22.2928 12.0128 22.2218 11.9813 22.1467 11.9656C22.0715 11.9499 21.9938 11.9503 21.9188 11.9667C21.8438 11.9832 21.7732 12.0153 21.7116 12.061" fill="#BDAB90"/>
<path fill-rule="evenodd" clip-rule="evenodd" d="M15.938 27.4776C14.5867 27.4712 13.2641 27.8654 12.1384 28.6101C11.0107 29.3567 10.1305 30.4195 9.60896 31.6642C9.08725 32.9096 8.94611 34.2807 9.20322 35.6057C9.46034 36.9307 10.1043 38.1506 11.0543 39.1126C12.0024 40.0724 13.2159 40.7292 14.5401 40.9992C15.8644 41.2692 17.2393 41.1402 18.4897 40.6286C19.741 40.1167 20.8119 39.2466 21.5667 38.1283C22.4503 36.8174 22.8523 35.2427 22.7047 33.6705C22.557 32.0983 21.8688 30.6252 20.7564 29.5003C19.4831 28.2163 17.7499 27.4887 15.938 27.4776Z" fill="#BDAB90"/>
</svg>
