<svg width="320" height="320" viewBox="0 0 320 320" fill="none" xmlns="http://www.w3.org/2000/svg">
<path d="M160 0C248.366 0 320 71.6344 320 160C320 248.366 248.366 320 160 320C71.6344 320 0 248.366 0 160C0 71.6344 71.6344 0 160 0ZM183 80V164H183.012C183.005 164.333 183 164.666 183 165C183 190.957 204.043 212 230 212C255.957 212 277 190.957 277 165C277 139.043 255.957 118 230 118C219.951 118 210.64 121.155 203 126.526V80H183ZM75 209H89L109 157.5L129.5 209H144L177 121.5H155L136 170.5L117 121.5H102L83 170.5L64 121.5H41.5L75 209ZM229 139C243.359 139 255 150.641 255 165C255 179.359 243.359 191 229 191C214.641 191 203 179.359 203 165C203 150.641 214.641 139 229 139Z" fill="#BDAB90"/>
</svg>
