<svg width="56" height="56" viewBox="0 0 56 56" fill="none" xmlns="http://www.w3.org/2000/svg">
<g id="yadex">
<path id="Vector" d="M28 1C42.9123 1 55 13.0877 55 28C55 42.9123 42.9123 55 28 55C13.0877 55 1 42.9123 1 28C1 13.0877 13.0877 1 28 1Z" stroke="#BDAB90" stroke-width="2"/>
<path id="Vector_2" d="M37.7995 44.8474H32.1521V15.68H29.3069C24.4521 15.68 22.0269 18.1074 22.0269 21.7474C22.0269 25.8074 23.6595 27.8126 27.2995 30.24L30.1469 32.2474L22.0721 44.8H15.5869L23.2869 33.46C18.8521 30.24 16.4269 27.3926 16.4269 22.12C16.4269 15.6326 20.8595 11.2 29.3995 11.2H37.7995V44.8474Z" fill="#BDAB90"/>
</g>
</svg>
